<?xml version="1.0" encoding="UTF-8"?>
<svg xmlns="http://www.w3.org/2000/svg" width="1600" height="1200" xmlns:xlink="http://www.w3.org/1999/xlink" viewBox="0 0 1600 1200">
  <defs>
    <style>
      .q {
        fill: #fff;
      }

      .r {
        fill: #112e72;
      }

      .s {
        fill: #174bc5;
      }

      .t {
        fill: url(#c);
      }

      .t, .u {
        opacity: .31;
      }

      .v, .w {
        fill: #072968;
      }

      .x {
        fill: #64b2ff;
      }

      .w {
        stroke: #072968;
        stroke-miterlimit: 10;
        stroke-width: 3px;
      }

      .u {
        fill: url(#d);
      }

      .y {
        fill: #229bff;
        opacity: .61;
      }
    </style>
    <linearGradient id="c" x1="903.77" y1="651.53" x2="1257.59" y2="707.08" gradientTransform="matrix(1, 0, 0, 1, 0, 0)" gradientUnits="userSpaceOnUse">
      <stop offset="0" stop-color="#072968"/>
      <stop offset=".21" stop-color="#072968" stop-opacity=".96"/>
      <stop offset=".4" stop-color="#082969" stop-opacity=".86"/>
      <stop offset=".59" stop-color="#0a2a6b" stop-opacity=".68"/>
      <stop offset=".77" stop-color="#0c2b6d" stop-opacity=".42"/>
      <stop offset=".95" stop-color="#0f2d70" stop-opacity=".1"/>
      <stop offset="1" stop-color="#112e72" stop-opacity="0"/>
    </linearGradient>
    <linearGradient id="d" x1="581.22" y1="814.5" x2="1219.53" y2="883.75" xlink:href="#c"/>
  </defs>
  <g id="a" data-name="Layer 2"/>
  <g id="b" data-name="Layer 3">
    <g>
      <path class="r" d="M1155.19,679.34c-.45-5.56-3.97-10.22-9.21-12.15l-46.8-17.31V385.47l-90.18-3.47-70.68,3.47v41.97l-33.32,15.56-81.79,.02v96.02l-43.51,35.28c-1.02,.3-1.86,1-2.36,1.91l-63,51.08-65.9-17.47-91.89,48.7c-1.95,1.03-2.69,3.45-1.66,5.4,.72,1.35,2.1,2.13,3.53,2.13,.63,0,1.27-.15,1.87-.47l13.74-7.28v95.76l-117.14,59.16c-3.93,1.98-6.33,5.95-6.27,10.35,.02,1.52,.34,2.98,.91,4.32l-.25,11.46h.01c-.02,3.79,1.97,7.59,5.97,9.48l213.47,100.56c16.85,7.94,36.5,7.21,52.71-1.96l423.77-239.52c3.89-2.2,6.02-5.81,6.54-9.61h.03v-.28c.11-.91,.15-1.83,.06-2.74l.19-9.04c.94-2.12,1.36-4.48,1.16-6.92Zm-510.26,38.94l-62.9,31.77v-95.96l62.9-33.34v97.53Zm65.55-33.1l-57.56,29.07v-94.94l57.56,15.26v50.61Zm66.35-33.5l-58.35,29.47v-46.89l58.36-47.32v64.74Zm46.37-23.42l-38.38,19.38v-67.18l38.38-31.11v78.91Z"/>
      <path class="r" d="M525.02,717.02c6.07,0,10.98-4.92,10.98-10.98s-4.92-10.98-10.98-10.98-10.98,4.92-10.98,10.98,4.92,10.98,10.98,10.98Z"/>
      <path class="r" d="M754.45,551.75c6.18,0,11.19-5.01,11.19-11.19s-5.01-11.19-11.19-11.19-11.19,5.01-11.19,11.19,5.01,11.19,11.19,11.19Z"/>
      <path class="r" d="M1024.66,810.77c-6.18,0-11.19,5.01-11.19,11.19s5.01,11.19,11.19,11.19,11.19-5.01,11.19-11.19-5.01-11.19-11.19-11.19Z"/>
      <path class="r" d="M623.23,501.5c21.54,21.54,44.07,33.94,50.31,27.7h0l6.4-6.4c6.24-6.24-6.16-28.77-27.7-50.31s-44.07-33.94-50.31-27.7l-6.4,6.4h0c-6.24,6.24,6.16,28.77,27.7,50.31Z"/>
      <path class="r" d="M771.79,367.61l5.82,8.16c.07,.09,.13,.18,.19,.27l.04,.06h0c.48,.64,.97,1.27,1.5,1.88,18.17,21.03,59.48,15.1,92.28-13.24,31.7-27.39,43.83-65.68,28.22-87.2h0l-6.23-8.73-.03-.04-.02-.02h0c-.5-.68-1.03-1.35-1.59-1.99-18.17-21.03-59.48-15.1-92.28,13.24-31.9,27.56-43.98,66.16-27.91,87.6h0Z"/>
      <path class="r" d="M435.68,609.87c1.57-.91,3.08-1.9,4.53-2.97l11.6-7.62-.02-.03c32.32-21.66,36.04-80.85,7.48-136.06-29.88-57.76-83.76-89.24-120.34-70.31-1.32,.68-2.59,1.44-3.83,2.23l-.39,.24-13.98,9.26h0c-32.28,21.68-35.97,80.88-7.42,136.06,29.88,57.76,83.76,89.24,120.34,70.31,.68-.35,1.35-.73,2.01-1.11h0Z"/>
    </g>
    <g>
      <path class="v" d="M1153.77,698.03c.11-.91,.14-1.83,.06-2.74l.34-16.01-14.11,2.9-198.34-73.36c-17.12-6.33-36.1-5.25-52.4,2.97l-406.28,205.17-31.41,6.44-.35,15.96h.01c-.02,3.79,1.97,7.59,5.97,9.48l213.47,100.56c16.85,7.94,36.5,7.21,52.71-1.96l423.77-239.52c3.89-2.2,6.02-5.81,6.54-9.61h.03v-.28Z"/>
      <g>
        <path class="q" d="M457.34,814.13l432.32-218.32c16.29-8.23,35.28-9.31,52.4-2.97l203.57,75.29c10.51,3.89,11.67,18.3,1.91,23.81l-423.77,239.52c-16.21,9.16-35.86,9.89-52.71,1.96l-213.47-100.56c-7.85-3.7-8.01-14.82-.26-18.73Z"/>
        <path class="s" d="M695.52,939.88c-8.49,0-17-1.84-24.88-5.56l-213.47-100.56c-3.98-1.88-6.49-5.77-6.55-10.18-.06-4.4,2.34-8.37,6.27-10.35l432.32-218.32c16.48-8.33,35.87-9.43,53.19-3.02l203.57,75.29c5.23,1.94,8.76,6.59,9.21,12.15,.45,5.56-2.29,10.72-7.15,13.47l-423.77,239.52c-8.88,5.02-18.81,7.55-28.75,7.55Zm223.78-350.11c-10.05,0-20.07,2.33-29.19,6.93l-432.32,218.32c-3.29,1.66-5.22,4.85-5.17,8.54,.05,3.69,2.07,6.82,5.41,8.39l213.47,100.56c16.53,7.78,35.89,7.07,51.79-1.92l423.77-239.52c4.17-2.36,6.52-6.79,6.14-11.57-.38-4.78-3.41-8.78-7.91-10.44l-203.57-75.29c-7.23-2.67-14.83-4-22.41-4Z"/>
      </g>
      <g>
        <ellipse class="v" cx="608.06" cy="860.11" rx="29.5" ry="16.19"/>
        <path class="s" d="M608.06,877.31c-16.82,0-30.5-7.71-30.5-17.19s13.68-17.2,30.5-17.2,30.5,7.71,30.5,17.2-13.68,17.19-30.5,17.19Zm0-32.39c-15.71,0-28.5,6.82-28.5,15.2s12.78,15.19,28.5,15.19,28.5-6.82,28.5-15.19-12.78-15.2-28.5-15.2Z"/>
      </g>
      <g>
        <ellipse class="q" cx="608.06" cy="854.36" rx="29.5" ry="16.19"/>
        <path class="s" d="M608.06,871.55c-16.82,0-30.5-7.71-30.5-17.19s13.68-17.19,30.5-17.19,30.5,7.71,30.5,17.19-13.68,17.19-30.5,17.19Zm0-32.39c-15.71,0-28.5,6.82-28.5,15.19s12.78,15.19,28.5,15.19,28.5-6.82,28.5-15.19-12.78-15.19-28.5-15.19Z"/>
      </g>
    </g>
    <polygon class="v" points="722.45 719.88 806.73 673.06 962.17 740.48 872.27 791.05 722.45 719.88"/>
    <polygon class="y" points="823.21 653.87 898.35 618.9 988.69 651.68 909.54 692.45 823.21 653.87"/>
    <polygon class="r" points="909.54 470.21 987.89 439.83 989.49 650.88 909.54 692.45 909.54 470.21"/>
    <polygon class="s" points="823.21 443.02 823.21 653.87 909.54 692.45 909.54 470.21 823.21 443.02"/>
    <polygon class="t" points="1220.68 653.78 1183.79 616.88 898.35 616.88 909.54 692.45 1024.66 692.45 1024.66 740.42 1063.52 740.42 1063.52 755.22 1256.5 755.22 1256.5 653.78 1220.68 653.78"/>
    <path class="u" d="M1203.1,881.35c-1.19-1.86-3.67-2.4-5.52-1.2-1.86,1.19-2.4,3.67-1.2,5.52l9.44,14.69-251.12-44.68-92.62-41.52-193.02-47.25c-2.15-.53-4.31,.79-4.83,2.93-.53,2.15,.79,4.31,2.93,4.83l33.16,8.12h-122.29v5.2h143.55l111.43,27.28h-184.08v5.31h205.78l4.76,1.17,78.92,35.38h-57.63v-14.39h-166.28v5.39h156.71v15.4l80.83-.28,.3,.13,143.48,25.53h-272.6v-13.65h-42.39l-.02,5.75h32.22v15.79h320.57v-1.17l66.32,11.8-14.49,5.97c-2.04,.84-3.01,3.18-2.17,5.22,.64,1.54,2.13,2.48,3.7,2.48,.51,0,1.02-.1,1.52-.3l31.61-13.02-16.98-26.42Z"/>
    <g>
      <polygon class="q" points="823.21 443.02 898.35 417.44 987.89 439.83 909.54 470.21 823.21 443.02"/>
      <path class="s" d="M909.56,470.74l-.17-.05-87.79-27.64,76.73-26.12,.14,.04,91.06,22.77-79.98,31.01Zm-84.75-27.73l84.72,26.67,76.71-29.75-87.87-21.97-73.56,25.04Z"/>
    </g>
    <polygon class="s" points="938.32 385.47 938.32 701.83 1024.66 740.42 1024.66 412.65 938.32 385.47"/>
    <g>
      <polygon class="q" points="938.32 385.47 1012.85 358.28 1099.18 385.47 1024.66 412.65 938.32 385.47"/>
      <path class="s" d="M1024.68,413.17l-.16-.05-87.74-27.62,76.06-27.74,.16,.05,87.74,27.62-76.06,27.74Zm-84.8-27.74l84.77,26.69,72.98-26.62-84.77-26.69-72.98,26.62Z"/>
    </g>
    <circle class="v" cx="525.02" cy="706.04" r="10.98"/>
    <circle class="v" cx="754.45" cy="540.56" r="11.19"/>
    <circle class="v" cx="1024.66" cy="821.96" r="11.19"/>
    <g>
      <path class="s" d="M578.03,788c-2.21,0-4-1.79-4-4v-132.32c0-2.21,1.79-4,4-4s4,1.79,4,4v132.32c0,2.21-1.79,4-4,4Z"/>
      <path class="s" d="M648.93,820.59c-2.21,0-4-1.79-4-4v-202.49c0-2.21,1.79-4,4-4s4,1.79,4,4v202.49c0,2.21-1.79,4-4,4Z"/>
      <path class="s" d="M714.48,848.13c-2.21,0-4-1.79-4-4v-211.64c0-2.21,1.79-4,4-4s4,1.79,4,4v211.64c0,2.21-1.79,4-4,4Z"/>
      <path class="s" d="M780.8,881.01h0c-2.21,0-4-1.79-4-4l.03-298.89c0-2.21,1.79-4,4-4h0c2.21,0,4,1.79,4,4l-.03,298.88c0,2.21-1.79,4-4,4Z"/>
    </g>
    <path class="w" d="M839.82,506.98c-2.21,0-4,1.79-4,4s1.79,4,4,4h13.07l-138.54,112.33-65.9-17.47-91.89,48.7c-1.95,1.03-2.69,3.45-1.66,5.4,.72,1.35,2.1,2.13,3.54,2.13,.63,0,1.27-.15,1.87-.47l89.13-47.23,66.8,17.71,145.34-117.84-.04,15.07c0,2.21,1.78,4,3.99,4.01h0c2.2,0,3.99-1.78,4-3.99l.06-26.34h-29.76Z"/>
    <path class="r" d="M652.24,472.49c-21.54-21.54-44.07-33.94-50.31-27.7l-6.4,6.4,6.84,6.84c4.07,10,13.9,23.72,27.25,37.07,13.35,13.35,27.08,23.18,37.07,27.25l6.84,6.84,6.4-6.4c6.24-6.24-6.16-28.77-27.7-50.31Z"/>
    <ellipse class="x" cx="634.54" cy="490.19" rx="15.99" ry="55.16" transform="translate(-160.77 592.26) rotate(-45)"/>
    <polygon class="r" points="1024.66 412.65 1024.66 740.42 1099.18 697.25 1099.18 385.47 1024.66 412.65"/>
    <ellipse class="s" cx="869.93" cy="779.53" rx="36.69" ry="20.14"/>
    <path class="r" d="M644.92,494.48c-7.57-7.01-11.93-6.39-14.81-5.98-1.98,.28-3.27,.38-4.5-.57-1.23-.95-2.55-2.53-3.35-4.03-.35-.66-1.11-2.25-.5-2.86,.72-.72,3.29,1.4,3.59,1.65l-.05-.04,1.65-4.4c-2.81-2.42-8.3-6.17-11.44-5.45l-2.93-2.93-2.56,2.56,3.37,3.37c-.03,1.59,.62,3.69,1.93,6.12,2.18,4.05,5.78,8.24,9.62,11.21,5.6,4.34,9.01,3.85,11.5,3.5,2.99-.43,4.09-.27,6.15,1.64,2.02,1.87,3.36,3.44,3.79,4.44,.47,1.1-.11,1.71-.5,1.98-1.11,.76-5.03-2.12-5.04-2.12l-.47,5.35c3.02,2.28,8.47,5.56,11.65,4.98l3.8,3.8,2.73-2.73-3.91-3.91c.18-1.17-.07-2.6-.78-4.25-.99-2.31-3.34-6.14-8.93-11.32Z"/>
    <path class="r" d="M666.14,524.55c-5.1,4.63-22.24-4.53-39.62-21.47-18.37-17.9-30.16-37.83-26.27-44.41,3.89-6.58,22,2.63,40.38,20.53h0c18.37,17.91,30.16,37.83,26.27,44.41-.21,.36-.46,.67-.76,.93Zm-62.94-64.43c-.25,.23-.47,.49-.65,.8-3.47,5.87,7.62,24.21,24.73,40.88,17.11,16.67,33.85,25.45,37.32,19.58,3.47-5.87-7.62-24.21-24.73-40.88h0c-16.22-15.8-32.11-24.52-36.67-20.38Z"/>
    <g>
      <path class="r" d="M997.61,525.4l-10.72-8.06c-10.47-7.87-40.97,15.03-68.12,51.15-27.15,36.12-40.68,71.78-30.21,79.65l10.72,8.06,8.63-11.47c13.83-8.05,31.94-25.35,48.77-47.73,16.83-22.38,28.41-44.59,32.31-60.11l8.63-11.47Z"/>
      <ellipse class="x" cx="948.44" cy="590.79" rx="81.82" ry="23.72" transform="translate(-93.72 993.87) rotate(-53.06)"/>
      <path class="r" d="M951.89,612.05c9.04-13.24,6.35-20.4,4.57-25.13-1.22-3.25-1.88-5.38-.73-7.51,1.15-2.13,3.34-4.47,5.58-5.95,.98-.65,3.4-2.06,4.67-1.11,1.5,1.13-1.14,5.6-1.45,6.1l.05-.08,8.08,2.3c3.04-4.89,7.34-14.36,4.94-19.49l3.87-5.15-5.31-3.99-4.45,5.91c-2.7,.11-6.02,1.4-9.64,3.81-6.04,4.01-11.8,10.38-15.39,17.04-5.25,9.71-3.14,15.31-1.6,19.4,1.84,4.9,1.99,6.74-.47,10.35-2.41,3.53-4.58,5.91-6.11,6.72-1.7,.89-2.95-.01-3.54-.63-1.7-1.77,1.7-8.54,1.7-8.56l-9.25-.25c-2.73,5.23-6.24,14.58-4.07,19.79l-5.01,6.66,5.66,4.26,5.16-6.86c2.05,.18,4.39-.38,6.91-1.71,3.54-1.87,9.16-6.14,15.83-15.91Z"/>
      <path class="r" d="M905.12,648.83c-7.88-6.65,2.57-34.24,24.61-63.84,23.3-31.29,50.87-53.14,61.45-48.71,10.58,4.42,.23,33.48-23.07,64.77h0c-23.3,31.29-50.87,53.14-61.45,48.71-.57-.24-1.09-.55-1.54-.93Zm84.46-107.84c-.39-.33-.82-.59-1.31-.8-9.44-3.95-34.77,16.54-56.47,45.66-21.69,29.13-31.66,56.05-22.22,59.99,9.44,3.95,34.77-16.54,56.47-45.66h0c20.57-27.62,30.6-53.24,23.54-59.19Z"/>
    </g>
    <g>
      <path class="r" d="M899.85,277.55h0l-6.27-8.78-1.46,1.18c-20.21-14.22-56.7-6.9-86.28,18.65-27.6,23.85-40.37,55.96-32.9,78.07l-1.16,.94,5.82,8.16c.07,.09,.13,.18,.19,.27l.04,.06h0c.48,.64,.97,1.27,1.5,1.88,18.17,21.03,59.48,15.1,92.28-13.24,31.7-27.39,43.83-65.68,28.22-87.2Z"/>
      <ellipse class="x" cx="832.6" cy="318.08" rx="78.48" ry="50.31" transform="translate(-5.37 621.74) rotate(-40.83)"/>
      <path class="r" d="M836.21,337.86c9.74-12.43,4.59-22.62,1.18-29.37-2.34-4.64-3.69-7.61-2.54-9.74,1.15-2.14,3.69-4.06,6.46-4.89,1.22-.36,4.26-1.02,6.2,.76,2.29,2.1-.43,6.48-.75,6.98l.05-.08,11.58,6.59c3.19-4.73,7.18-14.61,2.84-22.14l4.28-4.67-8.12-7.44-4.92,5.36c-3.69-1.1-7.99-1.02-12.5,.33-7.5,2.25-14.12,7.58-17.72,14.26-5.25,9.74-1.21,17.73,1.74,23.56,3.53,6.99,4.11,9.36,1.46,12.75-2.6,3.31-5.1,5.3-7.04,5.61-2.15,.34-4.06-1.37-5-2.42-2.7-3,.6-9.92,.6-9.93l-12.77-4.57c-2.7,5.29-5.62,15.38-1.58,22.91l-5.54,6.04,8.66,7.94,5.7-6.22c2.85,1.17,5.96,1.54,9.16,1.04,4.49-.71,11.36-3.48,18.55-12.65Z"/>
      <path class="r" d="M803.93,372.4c-8.74,0-16.38-2.66-21.94-8.21-16.27-16.27-7.67-50.34,19.56-77.57,27.23-27.23,61.31-35.83,77.57-19.56,16.27,16.27,7.67,50.34-19.56,77.57-17.92,17.92-38.81,27.77-55.64,27.77Zm53.3-107.36c-15.11,0-34.71,9.36-51.3,25.95-24.36,24.36-33.14,55.23-19.56,68.81,13.58,13.58,44.45,4.81,68.81-19.56,24.36-24.36,33.14-55.23,19.56-68.81-4.33-4.33-10.43-6.39-17.51-6.39Z"/>
    </g>
    <g>
      <path class="r" d="M459.27,463.2c-29.88-57.76-83.76-89.24-120.34-70.31-1.32,.68-2.59,1.44-3.83,2.23l-.39,.24-13.98,9.26,1.42,2.54c-20.6,27.04-19.82,77.28,4.65,124.57,26.43,51.09,71.63,81.58,107.03,74.86l1.84,3.28,16.14-10.6-.02-.03c32.32-21.66,36.04-80.85,7.48-136.06Z"/>
      <ellipse class="x" cx="379.55" cy="506.41" rx="74.57" ry="117.75" transform="translate(-190.26 231.04) rotate(-27.36)"/>
      <path class="r" d="M416.12,510.91c-10.47-20.16-30.2-18.44-43.25-17.3-8.97,.78-14.59,1.06-16.83-1.67-2.25-2.74-2.99-7.29-1.9-11.59,.48-1.89,2.07-6.46,6.4-8.21,5.1-2.06,9.4,4.06,9.88,4.76l-.07-.11,19.75-12.57c-4.43-6.95-15.93-17.77-30.96-15.75l-3.41-8.44-18.09,7.31,3.91,9.69c-4.79,4.54-8.31,10.56-10.09,17.54-2.97,11.61-.55,23.66,6.47,32.22,10.24,12.48,25.69,11.14,36.97,10.15,13.53-1.18,17.59-.72,20.44,4.77,2.79,5.37,3.67,9.91,2.48,12.77-1.31,3.17-5.5,4.9-7.89,5.66-6.8,2.15-14.44-6.12-14.46-6.14l-17.71,15.31c5.68,6.57,18.41,16.02,33.19,14.42l4.41,10.92,19.29-7.79-4.54-11.24c4.18-3.34,7.37-7.46,9.33-12.17,2.74-6.62,4.39-17.64-3.33-32.52Z"/>
      <path class="r" d="M419.21,600.67c-31.95,11.32-75.69-15.72-100.3-63.29-12.46-24.09-18.29-49.84-16.41-72.52,1.94-23.33,11.77-40.71,27.7-48.95,32.25-16.67,79.66,10.66,105.68,60.96,26.02,50.3,20.96,104.79-11.29,121.48-1.75,.9-3.54,1.68-5.38,2.33Zm-80.97-179.98c-1.55,.55-3.07,1.2-4.55,1.97-13.52,6.99-21.9,22.2-23.61,42.83-1.77,21.27,3.77,45.57,15.58,68.4,22.85,44.16,62.52,69.71,90.89,59.67,1.55-.55,3.07-1.2,4.55-1.97,28.52-14.76,32.13-64.66,8.03-111.23-22.85-44.16-62.52-69.72-90.89-59.67Z"/>
    </g>
  </g>
  <g id="e" data-name="Layer 5"/>
  <g id="f" data-name="Layer 4"/>
  <g id="g" data-name="Layer 6"/>
  <g id="h" data-name="Layer 7"/>
  <g id="i" data-name="Layer 8"/>
  <g id="j" data-name="Layer 10"/>
  <g id="k" data-name="Layer 11"/>
  <g id="l" data-name="Layer 12"/>
  <g id="m" data-name="Layer 13"/>
  <g id="n" data-name="Layer 14"/>
  <g id="o" data-name="Layer 15"/>
  <g id="p" data-name="Layer 16"/>
</svg>