<?xml version="1.0" encoding="UTF-8"?>
<svg xmlns="http://www.w3.org/2000/svg" width="1600" height="1200" xmlns:xlink="http://www.w3.org/1999/xlink" viewBox="0 0 1600 1200">
  <defs>
    <style>
      .r, .s {
        fill: #fff;
      }

      .t {
        fill: #112e72;
      }

      .u {
        fill: #174bc5;
      }

      .v {
        fill: url(#k);
      }

      .v, .w, .x {
        opacity: .31;
      }

      .y {
        fill: #072968;
      }

      .w {
        fill: url(#l);
      }

      .a` {
        fill: #001e4f;
      }

      .x {
        fill: url(#m);
      }

      .aa {
        fill: #4885ff;
        opacity: .69;
      }

      .s {
        stroke: #174bc5;
        stroke-miterlimit: 10;
        stroke-width: 2px;
      }
    </style>
    <linearGradient id="k" x1="461.8" y1="807.65" x2="1263.98" y2="807.65" gradientTransform="matrix(1, 0, 0, 1, 0, 0)" gradientUnits="userSpaceOnUse">
      <stop offset="0" stop-color="#072968"/>
      <stop offset=".21" stop-color="#072968" stop-opacity=".96"/>
      <stop offset=".4" stop-color="#082969" stop-opacity=".86"/>
      <stop offset=".59" stop-color="#0a2a6b" stop-opacity=".68"/>
      <stop offset=".77" stop-color="#0c2b6d" stop-opacity=".42"/>
      <stop offset=".95" stop-color="#0f2d70" stop-opacity=".1"/>
      <stop offset="1" stop-color="#112e72" stop-opacity="0"/>
    </linearGradient>
    <linearGradient id="l" x1="878.07" y1="752.88" x2="1197.65" y2="752.88" xlink:href="#k"/>
    <linearGradient id="m" x1="1133.21" y1="730.2" x2="1297.5" y2="730.2" xlink:href="#k"/>
  </defs>
  <g id="a" data-name="Layer 2"/>
  <g id="b" data-name="Layer 3"/>
  <g id="c" data-name="Layer 5"/>
  <g id="d" data-name="Layer 4"/>
  <g id="e" data-name="Layer 6"/>
  <g id="f" data-name="Layer 7"/>
  <g id="g" data-name="Layer 8"/>
  <g id="h" data-name="Layer 10"/>
  <g id="i" data-name="Layer 11"/>
  <g id="j" data-name="Layer 12">
    <path class="v" d="M943.15,919.07h320.83l-279.84-105.94s-58.9-112.79-196.77-116.71-40.7,57.7-40.7,57.7h-203.09l154.31,68.33h-123.38l-78.06-30.79h-34.65l209.69,111.93h50.87l21.18-14.46-105.21-41.5h117.71l187.11,71.44Z"/>
    <path class="y" d="M833,742.92s1.15-161.07,113.47-161.07,147.85,137.44,149,196.5c1.15,59.06-194.84,19.33-194.84,19.33,0,0-67.62-11.81-67.62-54.76Z"/>
    <g>
      <g>
        <path class="a`" d="M953,331c-18,0-27.34,16.76-27.34,16.76l47.34,9.24,21-26h-41Z"/>
        <ellipse class="y" cx="966.45" cy="442.36" rx="104.68" ry="104.72" transform="translate(-22.88 53.87) rotate(-3.16)"/>
        <path class="u" d="M1028.57,457s-6.57-101-75.57-126c.35,.16,41,0,41,0,0,0,59,15,65.65,126,.35,0-31.09,0-31.09,0Z"/>
        <circle class="s" cx="1040" cy="461" r="45"/>
      </g>
      <circle class="u" cx="1040" cy="461" r="27"/>
    </g>
    <polygon class="y" points="624.07 861.48 461.8 798.51 443.62 808.87 435.5 806.5 435.5 813.5 594.86 874.59 671.49 903.59 696.59 889.63 696.59 882.63 624.07 861.48"/>
    <g>
      <polygon class="r" points="594.86 867.59 671.49 896.59 696.59 882.63 461.8 791.51 435.5 806.5 594.86 867.59"/>
      <path class="u" d="M671.57,897.69l-.43-.16-76.63-29-161.33-61.84,28.55-16.28,237.21,92.06-27.37,15.22Zm-76.35-31.03l76.19,28.84,22.83-12.7-232.35-90.18-24.06,13.71,157.39,60.33Z"/>
    </g>
    <path class="w" d="M944.27,798.48s307.24-10.24,245.08-66.28c-62.16-56.04-311.28,0-311.28,0l66.2,66.28Z"/>
    <ellipse class="x" cx="1215.36" cy="730.2" rx="82.14" ry="31.68"/>
    <g>
      <path class="t" d="M1189.44,696.42s-87.01-7.23-73.49-107.84c68.64,33.01,75.65,73.23,73.49,107.84Z"/>
      <path class="t" d="M1202.31,696.95s-23.07-84.21,76.08-106.02c-7.46,75.8-42.83,96.18-76.08,106.02Z"/>
      <path class="t" d="M1189.44,594.57s-87.01-7.23-73.49-107.84c68.64,33.01,75.65,73.23,73.49,107.84Z"/>
      <path class="t" d="M1202.31,595.1s-23.07-84.21,76.08-106.02c-7.46,75.8-42.83,96.18-76.08,106.02Z"/>
      <path class="t" d="M1192.95,504.74s-67.84-54.97,0-130.49c38.13,65.93,21.28,103.11,0,130.49Z"/>
    </g>
    <polygon class="aa" points="623.16 342.72 623.16 570.9 895.9 668.61 895.9 437.75 623.16 342.72"/>
    <polygon class="aa" points="322.5 257.89 322.5 403.42 496.45 465.74 496.45 318.5 322.5 257.89"/>
    <polygon class="u" points="350.42 342.72 350.42 570.9 623.16 668.61 623.16 437.75 350.42 342.72"/>
    <polygon class="u" points="735.91 475.87 735.91 592.02 874.75 641.77 874.75 524.24 735.91 475.87"/>
    <polygon class="aa" points="582.36 457.61 582.36 685.79 855.1 783.51 855.1 552.64 582.36 457.61"/>
    <g>
      <polygon class="t" points="413.08 318.17 394.83 327.84 413.05 350.82 412.7 670.59 776.41 809.1 795.28 832.9 813.53 823.24 813.53 458.28 413.08 318.17"/>
      <g>
        <polygon class="r" points="394.83 327.84 394.44 680.25 795.28 832.9 795.28 467.94 394.83 327.84"/>
        <path class="u" d="M796.28,834.35l-402.84-153.41v-.69l.39-353.82,1.33,.46,401.12,140.34v367.12Zm-400.83-154.79l398.83,151.89V468.65l-398.45-139.4-.38,350.32Z"/>
      </g>
      <ellipse class="u" cx="573.77" cy="580.56" rx="30.07" ry="35.63"/>
    </g>
    <g>
      <path class="aa" d="M615.12,154.45h111.81c15.23,0,27.59,12.34,27.61,27.57l.16,121.74-56.26-31.06h-83.32c-15.25,0-27.61-12.36-27.61-27.61v-63.03c0-15.25,12.36-27.61,27.61-27.61Z"/>
      <path class="r" d="M717.53,204.99h-92.09c-2.67,0-4.83-2.16-4.83-4.83s2.16-4.83,4.83-4.83h92.09c2.67,0,4.83,2.16,4.83,4.83s-2.16,4.83-4.83,4.83Z"/>
      <path class="r" d="M717.53,229.69h-92.09c-2.67,0-4.83-2.16-4.83-4.83s2.16-4.83,4.83-4.83h92.09c2.67,0,4.83,2.16,4.83,4.83s-2.16,4.83-4.83,4.83Z"/>
    </g>
    <g>
      <g>
        <path class="r" d="M1076.59,630.68v141.5c0,10.76,8.72,19.48,19.48,19.48h124.74c10.76,0,19.48-8.72,19.48-19.48v-82.45c0-10.76-8.72-19.48-19.48-19.48h-88.29l-55.93-39.56Z"/>
        <path class="u" d="M1220.81,792.66h-124.74c-11.3,0-20.49-9.19-20.49-20.48v-143.43l57.25,40.49h87.97c11.3,0,20.49,9.19,20.49,20.49v82.45c0,11.3-9.19,20.48-20.49,20.48Zm-143.22-160.05v139.56c0,10.19,8.29,18.48,18.49,18.48h124.74c10.19,0,18.49-8.29,18.49-18.48v-82.45c0-10.19-8.29-18.49-18.49-18.49h-88.61l-.26-.18-54.36-38.45Z"/>
      </g>
      <g>
        <path class="y" d="M1259.68,715.46h-105c-2.37,0-4.3-1.92-4.3-4.3s1.92-4.3,4.3-4.3h105c2.37,0,4.3,1.92,4.3,4.3s-1.92,4.3-4.3,4.3Z"/>
        <path class="y" d="M1259.68,739.09h-105c-2.37,0-4.3-1.92-4.3-4.3s1.92-4.3,4.3-4.3h105c2.37,0,4.3,1.92,4.3,4.3s-1.92,4.3-4.3,4.3Z"/>
        <path class="y" d="M1259.68,762.71h-105c-2.37,0-4.3-1.92-4.3-4.3s1.92-4.3,4.3-4.3h105c2.37,0,4.3,1.92,4.3,4.3s-1.92,4.3-4.3,4.3Z"/>
        <circle class="y" cx="1120.32" cy="711.41" r="4.3"/>
        <circle class="y" cx="1120.32" cy="735.04" r="4.3"/>
        <circle class="y" cx="1120.32" cy="758.66" r="4.3"/>
      </g>
    </g>
    <circle class="t" cx="297.48" cy="506.1" r="6.98"/>
    <circle class="t" cx="826.45" cy="318.36" r="6.98"/>
    <circle class="t" cx="376.73" cy="881.61" r="6.98"/>
    <circle class="t" cx="476.73" cy="235.83" r="6.98"/>
    <circle class="t" cx="936.17" cy="889.13" r="6.98"/>
    <polygon class="y" points="543.7 649.71 536.7 653.71 543.67 682.29 543.5 840.5 586.09 856.33 587.86 863.59 594.86 859.59 594.86 668.61 543.7 649.71"/>
    <g>
      <polygon class="r" points="536.7 653.71 536.5 844.5 587.86 863.59 587.86 672.61 536.7 653.71"/>
      <path class="u" d="M588.86,865.03l-53.36-19.83v-.7l.2-192.22,53.16,19.64v193.11Zm-51.36-21.22l49.36,18.34v-188.84l-49.16-18.16-.2,188.66Z"/>
    </g>
  </g>
  <g id="n" data-name="Layer 13"/>
  <g id="o" data-name="Layer 14"/>
  <g id="p" data-name="Layer 15"/>
  <g id="q" data-name="Layer 16"/>
</svg>