<?xml version="1.0" encoding="UTF-8"?>
<svg xmlns="http://www.w3.org/2000/svg" width="1600" height="1200" xmlns:xlink="http://www.w3.org/1999/xlink" viewBox="0 0 1600 1200">
  <defs>
    <style>
      .q {
        fill: #fff;
      }

      .r {
        fill: #112e72;
      }

      .s {
        fill: #174bc5;
      }

      .t {
        fill: #072968;
      }

      .u {
        fill: url(#l);
      }

      .u, .v {
        opacity: .31;
      }

      .w, .x {
        fill: #4885ff;
      }

      .v {
        fill: url(#m);
      }

      .x {
        opacity: .69;
      }
    </style>
    <linearGradient id="l" x1="715.03" y1="901.43" x2="1452.88" y2="901.43" gradientTransform="matrix(1, 0, 0, 1, 0, 0)" gradientUnits="userSpaceOnUse">
      <stop offset="0" stop-color="#072968"/>
      <stop offset=".21" stop-color="#072968" stop-opacity=".96"/>
      <stop offset=".4" stop-color="#082969" stop-opacity=".86"/>
      <stop offset=".59" stop-color="#0a2a6b" stop-opacity=".68"/>
      <stop offset=".77" stop-color="#0c2b6d" stop-opacity=".42"/>
      <stop offset=".95" stop-color="#0f2d70" stop-opacity=".1"/>
      <stop offset="1" stop-color="#112e72" stop-opacity="0"/>
    </linearGradient>
    <linearGradient id="m" x1="376" y1="931.26" x2="873.17" y2="931.26" xlink:href="#l"/>
  </defs>
  <g id="a" data-name="Layer 2"/>
  <g id="b" data-name="Layer 3"/>
  <g id="c" data-name="Layer 5"/>
  <g id="d" data-name="Layer 4"/>
  <g id="e" data-name="Layer 6"/>
  <g id="f" data-name="Layer 7"/>
  <g id="g" data-name="Layer 8">
    <circle class="r" cx="612.5" cy="465.5" r="8.5"/>
    <circle class="r" cx="199.5" cy="690.5" r="8.5"/>
  </g>
  <g id="h" data-name="Layer 10"/>
  <g id="i" data-name="Layer 11"/>
  <g id="j" data-name="Layer 12"/>
  <g id="k" data-name="Layer 13">
    <path class="t" d="M350.04,419.1c1.8-19.57,3.89-74.98-28.89-82.55-6.17-1.42-11.92-.08-16.63,3.88-13.2,11.1-14.85,42.17-14.72,58.8l-19.47,8.89-.32,91.53,81.83,38.35,23.32-17.32v-91.54l-25.11-10.04Zm-35.97-67.31c.94-.79,1.9-1.2,3.74-.78,17.66,4.08,19.11,40.73,17.76,62.3l-30.91-12.36c-.25-18.79,2.25-43.14,9.41-49.15Z"/>
    <circle class="r" cx="918.5" cy="1004.5" r="8.5"/>
    <path class="u" d="M1109.31,824.87h-384.47c-10.47,0-13.63,14.22-4.15,18.66l254.52,119.12c21.6,10.11,45.15,15.35,68.99,15.35h398.88c10.78,0,13.65-14.88,3.64-18.88l-333.77-133.55c-1.16-.46-2.39-.7-3.64-.7Z"/>
    <path class="v" d="M870.28,985.34l-280.42-116.81c-.57-.24-1.18-.36-1.8-.36h-203.97c-8.81,0-11.26,12.09-3.15,15.52l236.2,99.93c16.74,7.08,34.73,10.73,52.9,10.73h198.43c5.12,0,6.53-7.04,1.8-9.01Z"/>
    <g>
      <path class="r" d="M1145.93,893.86s-81.03-6.73-68.44-100.43c63.92,30.74,70.45,68.2,68.44,100.43Z"/>
      <path class="r" d="M1157.91,894.35s-21.48-78.42,70.85-98.74c-6.94,70.59-39.88,89.57-70.85,98.74Z"/>
      <path class="r" d="M1145.93,799.01s-81.03-6.73-68.44-100.43c63.92,30.74,70.45,68.2,68.44,100.43Z"/>
      <path class="r" d="M1157.91,799.5s-21.48-78.42,70.85-98.74c-6.94,70.59-39.88,89.57-70.85,98.74Z"/>
      <path class="r" d="M1149.2,715.35s-63.17-51.19,0-121.53c35.51,61.4,19.82,96.03,0,121.53Z"/>
    </g>
    <g>
      <g>
        <polygon class="r" points="1162 400.12 763 252 1112.06 340.6 1141 355 1153 368 1159 380 1163 394 1162 400.12"/>
        <g>
          <path class="q" d="M1123.27,345.03c-5.97-2.36-255.56-101.17-339.95-129.98-4.89-1.67-10.75-2.55-16.95-2.55-31.77,0-57.62,25.85-57.62,57.62v417.74c0,15.86-6.67,30.2-17.36,40.34l.43,.74c-2.87,2.5-6.13,4.34-9.82,5.06-20.41,4-7.39,5.3-7.39,5.3l294.19,139.79s26.2,11.9,50.2-1.1,29.32-29.62,31-38c1-5,.75-13.14,.75-13.14V400.12c0-30.67,24.95-55.62,55.62-55.62,5.65,0,11.11,.85,16.25,2.43h0c22.76,6.97,39.37,28.18,39.37,53.2h2c0-25.9-17.17-47.85-40.73-55.09Z"/>
          <path class="s" d="M994.07,885.03c-14.37,0-25.51-4.95-25.69-5.03l-294.05-139.72c-3.14-.34-4.76-1.14-4.82-2.39-.06-1.29,.83-2.63,12.29-4.88,3.03-.59,5.96-2.04,8.72-4.3l-.4-.7,.57-.54c10.99-10.43,17.05-24.5,17.05-39.61V270.12c0-32.33,26.3-58.62,58.62-58.62,6.3,0,12.28,.9,17.27,2.61,84.28,28.78,335.69,128.29,339.96,129.98,24.37,7.51,41.39,30.55,41.39,56.04v1h-4v-1c0-23.74-15.83-45.18-38.52-52.2h-.47l-.08-.17c-5.04-1.5-10.27-2.26-15.55-2.26-30.12,0-54.62,24.5-54.62,54.62v426.74c0,.31,.24,8.28-.77,13.33-3.22,16.09-13.82,29.1-31.5,38.68-8.58,4.65-17.48,6.15-25.4,6.15Zm-322.14-147.28c.65,.23,1.75,.46,2.78,.56l.17,.02,.16,.07,294.19,139.79c.24,.11,26.03,11.53,49.29-1.07,17.14-9.28,27.4-21.84,30.5-37.32,.97-4.83,.73-12.83,.73-12.91V400.12c0-31.22,25.4-56.62,56.62-56.62,5.62,0,11.19,.83,16.55,2.47l.26,.08c-.07-.02-.13-.04-.2-.06l-.07-.03c-2.54-1.01-255.37-101.1-339.91-129.96-4.79-1.64-10.54-2.5-16.62-2.5-31.22,0-56.62,25.4-56.62,56.62v417.74c0,15.4-6.07,29.76-17.1,40.51l.45,.77-.62,.54c-3.21,2.8-6.67,4.58-10.28,5.29-6.88,1.35-9.37,2.29-10.27,2.77Zm451.4-391.65c5.36,1.69,10.34,4.15,14.85,7.24-4.5-3.09-9.49-5.56-14.85-7.24h0Z"/>
        </g>
        <path class="r" d="M1031.79,869.56l-.26-.28c-9.88,8.85-23.09,13.21-38.4,13.21-30.67,0-55.62-24.95-55.62-55.62l-340-139h-2c0,26.98,18.64,49.68,43.72,55.92l2.78,1.22,326.8,134.1-.04-.03c7.41,3.47,15.66,5.42,24.36,5.42,14.86,0,28.43-5.66,38.66-14.93Z"/>
      </g>
      <circle class="x" cx="727.12" cy="355.12" r="56.12"/>
      <path class="t" d="M706.23,387.24l-37.64-54.24c-2.2-3.18-1.42-7.54,1.76-9.74,3.18-2.21,7.54-1.42,9.74,1.76l28.44,40.99,77.5-71.92c2.83-2.63,7.26-2.46,9.89,.37,2.63,2.83,2.46,7.26-.37,9.89l-89.33,82.89Z"/>
      <path class="r" d="M983.5,468.02c-.71,0-1.44-.14-2.14-.44l-153.46-64.9c-2.8-1.18-4.11-4.41-2.92-7.21,1.18-2.8,4.41-4.11,7.21-2.92l153.46,64.9c2.8,1.18,4.11,4.41,2.92,7.21-.89,2.1-2.92,3.36-5.07,3.36Z"/>
      <path class="r" d="M983.5,518.02c-.71,0-1.43-.14-2.13-.43l-107-45.02c-2.8-1.18-4.11-4.4-2.94-7.2,1.18-2.8,4.4-4.12,7.2-2.94l107,45.02c2.8,1.18,4.11,4.4,2.94,7.2-.88,2.1-2.92,3.37-5.07,3.37Z"/>
      <path class="r" d="M983.5,685.02c-.71,0-1.43-.14-2.13-.43l-107-45.02c-2.8-1.18-4.11-4.4-2.94-7.2,1.18-2.8,4.4-4.12,7.2-2.94l107,45.02c2.8,1.18,4.11,4.4,2.94,7.2-.88,2.1-2.92,3.37-5.07,3.37Z"/>
      <path class="r" d="M983.5,737.02c-.7,0-1.41-.13-2.1-.42l-87-36.02c-2.81-1.16-4.14-4.38-2.98-7.19,1.16-2.81,4.38-4.14,7.19-2.98l87,36.02c2.81,1.16,4.14,4.38,2.98,7.19-.88,2.12-2.93,3.4-5.08,3.4Z"/>
      <path class="r" d="M983.5,569.02c-.71,0-1.44-.14-2.13-.43l-228-96.02c-2.8-1.18-4.11-4.4-2.93-7.2s4.4-4.11,7.2-2.93l228,96.02c2.8,1.18,4.11,4.4,2.93,7.2-.89,2.1-2.92,3.37-5.07,3.37Z"/>
      <path class="r" d="M983.5,602.02c-.71,0-1.44-.14-2.13-.43l-228-96.02c-2.8-1.18-4.11-4.4-2.93-7.2s4.4-4.11,7.2-2.93l228,96.02c2.8,1.18,4.11,4.4,2.93,7.2-.89,2.1-2.92,3.37-5.07,3.37Z"/>
      <path class="r" d="M983.5,639.02c-.71,0-1.44-.14-2.13-.43l-228-96.02c-2.8-1.18-4.11-4.4-2.93-7.2s4.4-4.12,7.2-2.93l228,96.02c2.8,1.18,4.11,4.4,2.93,7.2-.89,2.1-2.92,3.37-5.07,3.37Z"/>
    </g>
    <g>
      <path class="t" d="M750.9,550.08l-351.58-149.05c-8.39-3.56-17.2-2.48-24.14,1.67h0l-10.67,6.4,1.85,2.12c-2.63,4.1-4.19,9-4.19,14.41v215.86c0,17.38,10.05,33.19,25.78,40.58l353.26,165.86c2.29,1.07,4.63,1.72,6.95,2l3.13,3.6,9.31-5.7c1.34-.65,2.6-1.43,3.79-2.32l.06-.04h0c5.34-4.04,8.94-10.43,8.94-17.99v-243.46c0-14.8-8.85-28.17-22.48-33.95Z"/>
      <path class="s" d="M371.13,691.98l353.26,165.86c14.98,7.03,32.18-3.9,32.18-20.44v-243.46c0-14.8-8.85-28.17-22.48-33.95l-351.58-149.05c-17.62-7.47-37.16,5.46-37.16,24.61v215.86c0,17.38,10.05,33.19,25.78,40.58Z"/>
      <polygon class="r" points="345.36 447.59 345.36 500.94 756.54 685.63 756.54 628.32 345.36 447.59"/>
      <polygon class="q" points="371.03 538.07 371.03 574.27 607.15 684.37 607.15 645.92 371.03 538.07"/>
      <polygon class="q" points="641.19 663.47 641.19 699.67 707.31 730.66 707.31 692.21 641.19 663.47"/>
      <path class="r" d="M527.62,699.22c-.67,0-1.34-.14-1.99-.45l-156-74.29c-2.31-1.1-3.29-3.86-2.19-6.17,1.1-2.31,3.86-3.29,6.17-2.19l156,74.29c2.31,1.1,3.29,3.86,2.19,6.17-.79,1.67-2.45,2.64-4.18,2.64Z"/>
      <path class="r" d="M645.02,784.65c-.67,0-1.35-.14-1.99-.45l-273.4-130.25c-2.31-1.1-3.29-3.86-2.19-6.17,1.1-2.31,3.86-3.29,6.17-2.19l273.4,130.25c2.31,1.1,3.29,3.86,2.19,6.17-.79,1.67-2.45,2.64-4.18,2.64Z"/>
    </g>
    <rect class="x" x="717" y="760" width="176" height="59"/>
    <rect class="s" x="1011" y="427" width="176" height="59"/>
    <g>
      <polygon class="t" points="270.32 408.12 294.74 396.98 375.15 429.14 351.83 442.78 270.32 408.12"/>
      <polygon class="w" points="270.32 408.12 270 499.65 351.83 538 351.83 442.78 270.32 408.12"/>
      <polygon class="t" points="375.15 429.14 375.15 520.68 351.83 538 351.83 442.78 375.15 429.14"/>
      <path class="t" d="M315.59,464.68c0-9.38-4.06-16.99-9.06-16.99s-9.06,7.6-9.06,16.99c0,5.87,1.59,11.04,4,14.09v16.89l7.99,4v-18.91c3.56-2.29,6.13-8.6,6.13-16.06Z"/>
      <path class="t" d="M349.38,425.17l-14.72-1.94c2.25-17.21,4-67.41-16.85-72.22-1.84-.43-2.79-.02-3.74,.78-8.06,6.77-10.22,36.78-9.19,55.93l-14.82,.81c-.49-8.93-2.08-54.19,14.45-68.1,4.71-3.96,10.46-5.3,16.63-3.88,37.65,8.69,29.3,80.47,28.23,88.62Z"/>
    </g>
  </g>
  <g id="n" data-name="Layer 14"/>
  <g id="o" data-name="Layer 15"/>
  <g id="p" data-name="Layer 16"/>
</svg>