<?xml version="1.0" encoding="UTF-8"?>
<svg xmlns="http://www.w3.org/2000/svg" width="1600" height="1200" xmlns:xlink="http://www.w3.org/1999/xlink" viewBox="0 0 1600 1200">
  <defs>
    <style>
      .p {
        fill: #fff;
      }

      .q {
        fill: #112e72;
      }

      .r {
        fill: #174bc5;
      }

      .s {
        fill: #072968;
      }

      .t, .u {
        fill: #4885ff;
      }

      .v {
        fill: #2e66e5;
      }

      .w {
        fill: url(#m);
        opacity: .31;
      }

      .u {
        opacity: .69;
      }
    </style>
    <linearGradient id="m" x1="819.43" y1="792.85" x2="1432" y2="792.85" gradientTransform="matrix(1, 0, 0, 1, 0, 0)" gradientUnits="userSpaceOnUse">
      <stop offset="0" stop-color="#072968"/>
      <stop offset=".21" stop-color="#072968" stop-opacity=".96"/>
      <stop offset=".4" stop-color="#082969" stop-opacity=".86"/>
      <stop offset=".59" stop-color="#0a2a6b" stop-opacity=".68"/>
      <stop offset=".77" stop-color="#0c2b6d" stop-opacity=".42"/>
      <stop offset=".95" stop-color="#0f2d70" stop-opacity=".1"/>
      <stop offset="1" stop-color="#112e72" stop-opacity="0"/>
    </linearGradient>
  </defs>
  <g id="a" data-name="Layer 2"/>
  <g id="b" data-name="Layer 3"/>
  <g id="c" data-name="Layer 5"/>
  <g id="d" data-name="Layer 4"/>
  <g id="e" data-name="Layer 6"/>
  <g id="f" data-name="Layer 7"/>
  <g id="g" data-name="Layer 8"/>
  <g id="h" data-name="Layer 10"/>
  <g id="i" data-name="Layer 11"/>
  <g id="j" data-name="Layer 12"/>
  <g id="k" data-name="Layer 13"/>
  <g id="l" data-name="Layer 14">
    <polygon class="w" points="1179.53 855.92 1388.15 855.92 1407.34 878.17 1432 707.54 819.43 707.54 1179.53 855.92"/>
    <g>
      <g>
        <polygon class="q" points="247.64 369.58 596.94 239.9 291.36 317.47 266.03 330.07 255.52 341.45 250.27 351.96 246.77 364.21 247.64 369.58"/>
        <g>
          <path class="p" d="M281.54,321.35c5.23-2.07,223.73-88.57,297.6-113.79,4.28-1.46,9.41-2.24,14.84-2.24,27.82,0,50.45,22.63,50.45,50.45v365.7c0,13.89,5.84,26.43,15.2,35.31l-.38,.65c2.51,2.19,5.36,3.8,8.59,4.43,17.87,3.5,6.47,4.64,6.47,4.64l-257.54,122.38s-22.94,10.42-43.95-.96c-21.01-11.38-25.67-25.93-27.14-33.27-.88-4.38-.66-11.5-.66-11.5V369.58c0-26.85-21.84-48.7-48.7-48.7-4.95,0-9.73,.75-14.23,2.13h0c-19.93,6.1-34.46,24.67-34.46,46.57h-1.75c0-22.67,15.03-41.89,35.65-48.23Z"/>
          <path class="r" d="M394.65,794.2c-6.95,0-14.76-1.32-22.29-5.4-15.52-8.41-24.82-19.83-27.64-33.95-.89-4.44-.69-11.43-.68-11.73V369.58c0-26.3-21.4-47.7-47.7-47.7-4.59,0-9.14,.66-13.53,1.96l-.08,.17h-.47c-19.8,6.13-33.62,24.85-33.62,45.57v1h-3.75v-1c0-22.37,14.93-42.58,36.32-49.17,3.91-1.55,223.4-88.46,297.61-113.79,4.38-1.5,9.63-2.29,15.16-2.29,28.37,0,51.45,23.08,51.45,51.45v365.7c0,13.19,5.29,25.48,14.89,34.59l.57,.54-.35,.6c2.38,1.93,4.9,3.16,7.5,3.67,10.14,1.99,10.92,3.17,10.86,4.4-.02,.44-.08,1.75-4.31,2.2l-257.39,122.3c-.16,.07-9.95,4.42-22.56,4.42Zm-98.31-474.32c27.4,0,49.7,22.29,49.7,49.7v373.58c0,.1-.21,7.09,.64,11.3,2.7,13.51,11.66,24.47,26.63,32.58,20.31,11,42.83,1.03,43.06,.93l257.68-122.44,.17-.02c.75-.08,1.55-.23,2.11-.39-.95-.44-3.24-1.21-8.68-2.28-3.18-.62-6.23-2.19-9.06-4.66l-.62-.54,.4-.68c-9.64-9.43-14.94-22.01-14.94-35.49V255.77c0-27.26-22.18-49.45-49.45-49.45-5.32,0-10.33,.75-14.51,2.18-70.45,24.05-272.03,103.67-295.36,112.9,3.99-1.01,8.09-1.53,12.23-1.53Z"/>
        </g>
        <path class="q" d="M361.63,780.53l.22-.25c8.65,7.75,20.21,11.57,33.62,11.57,26.85,0,48.7-21.84,48.7-48.7l297.65-121.68h1.75c0,23.62-16.32,43.49-38.27,48.95l-2.44,1.07-286.09,117.39,.03-.02c-6.48,3.04-13.71,4.75-21.33,4.75-13.01,0-24.89-4.95-33.85-13.07Z"/>
      </g>
      <circle class="u" cx="384.1" cy="430.85" r="49.13"/>
      <path class="s" d="M356.29,458.97l-32.95-47.49c-1.93-2.78-1.24-6.6,1.54-8.53,2.78-1.93,6.6-1.24,8.53,1.54l24.9,35.88,67.84-62.96c2.48-2.3,6.36-2.16,8.66,.32,2.3,2.48,2.16,6.36-.32,8.66l-78.2,72.57Z"/>
      <path class="q" d="M466.94,395.75c.63,0,1.26-.12,1.87-.38l134.34-56.81c2.45-1.04,3.6-3.86,2.56-6.31-1.04-2.45-3.86-3.59-6.31-2.56l-134.34,56.81c-2.45,1.04-3.6,3.86-2.56,6.31,.78,1.84,2.56,2.94,4.44,2.94Z"/>
      <path class="q" d="M505.46,420.26c.62,0,1.26-.12,1.86-.38l93.67-39.41c2.45-1.03,3.6-3.85,2.57-6.3-1.03-2.45-3.85-3.6-6.3-2.57l-93.67,39.41c-2.45,1.03-3.6,3.85-2.57,6.3,.77,1.84,2.56,2.95,4.44,2.95Z"/>
      <path class="q" d="M403.91,618.98c.62,0,1.26-.12,1.86-.38l93.67-39.41c2.45-1.03,3.6-3.85,2.57-6.3-1.03-2.45-3.85-3.6-6.3-2.57l-93.67,39.41c-2.45,1.03-3.6,3.85-2.57,6.3,.77,1.84,2.56,2.95,4.44,2.95Z"/>
      <path class="q" d="M403.91,664.51c.61,0,1.24-.12,1.84-.37l76.16-31.53c2.46-1.02,3.62-3.83,2.61-6.29-1.02-2.46-3.83-3.62-6.29-2.61l-76.16,31.53c-2.46,1.02-3.62,3.83-2.61,6.29,.77,1.86,2.56,2.97,4.45,2.97Z"/>
      <path class="q" d="M403.91,517.43c.62,0,1.26-.12,1.87-.38l199.6-84.06c2.45-1.03,3.6-3.85,2.57-6.31-1.03-2.45-3.86-3.6-6.31-2.57l-199.6,84.06c-2.45,1.03-3.6,3.85-2.57,6.31,.77,1.84,2.56,2.95,4.44,2.95Z"/>
      <path class="q" d="M403.91,546.32c.62,0,1.26-.12,1.87-.38l199.6-84.06c2.45-1.03,3.6-3.85,2.57-6.31-1.03-2.45-3.86-3.6-6.31-2.57l-199.6,84.06c-2.45,1.03-3.6,3.85-2.57,6.31,.77,1.84,2.56,2.95,4.44,2.95Z"/>
      <path class="q" d="M403.91,578.71c.62,0,1.26-.12,1.87-.38l199.6-84.06c2.45-1.03,3.6-3.85,2.57-6.31-1.03-2.45-3.86-3.6-6.31-2.57l-199.6,84.06c-2.45,1.03-3.6,3.85-2.57,6.31,.77,1.84,2.56,2.95,4.44,2.95Z"/>
    </g>
    <g>
      <path class="q" d="M752.26,533.05s-70.94-5.89-59.91-87.92c55.96,26.91,61.68,59.7,59.91,87.92Z"/>
      <path class="q" d="M762.75,533.48s-18.81-68.65,62.02-86.44c-6.08,61.79-34.91,78.42-62.02,86.44Z"/>
      <path class="q" d="M752.26,450.02s-70.94-5.89-59.91-87.92c55.96,26.91,61.68,59.7,59.91,87.92Z"/>
      <path class="q" d="M762.75,450.45s-18.81-68.65,62.02-86.44c-6.08,61.79-34.91,78.42-62.02,86.44Z"/>
      <path class="q" d="M755.12,376.78s-55.3-44.82,0-106.39c31.09,53.75,17.35,84.07,0,106.39Z"/>
    </g>
    <g>
      <polygon class="r" points="546.86 803.2 524.71 812.21 881.93 992.29 1178.74 832.08 1129.47 814.11 546.86 803.2"/>
      <polygon class="r" points="595.44 761.73 546.86 781.11 877.16 941.05 1151.72 802.68 823.52 676.32 595.44 761.73"/>
      <polygon class="v" points="877.16 964 1151.72 822.85 1151.72 801.09 877.16 939.47 877.16 964"/>
      <polygon class="v" points="881.93 992.29 883.12 1018.04 1179.53 855.92 1178.74 832.08 881.93 992.29"/>
      <polygon class="q" points="865.24 668.66 865.24 905.59 871.2 902.67 871.2 918.32 894.24 905.88 1098.6 802.99 1098.6 791.55 1098.6 786.19 1098.6 579.37 865.24 668.66"/>
      <polygon class="t" points="546.86 781.11 546.86 803.2 877.55 964 877.55 939.47 546.86 781.11"/>
      <polygon class="t" points="525.51 811.42 525.51 831.87 883.12 1017.72 882.32 991.81 525.51 811.42"/>
      <polygon class="p" points="624.85 770.89 845.77 871.81 845.77 717.45 628.82 625.46 624.85 770.89"/>
      <polygon class="q" points="638.65 796.63 659.02 788.37 659.02 641.53 633.59 632.89 638.65 796.63"/>
      <polygon class="q" points="712.56 830.8 732.92 822.54 732.92 675.7 707.49 667.06 712.56 830.8"/>
      <polygon class="q" points="785.67 867.36 806.03 859.1 806.03 712.25 780.6 703.62 785.67 867.36"/>
      <polygon class="r" points="735.31 494.34 605.77 572.22 605.77 780.82 638.65 796.63 638.35 646.12 677.29 662.81 677.29 815.21 711.76 831.79 711.47 680.29 750.41 697.78 750.41 850.37 784.87 866.94 784.87 714.29 823.52 730.36 823.52 885.53 865.24 905.59 865.24 668.66 735.31 494.34"/>
      <polygon class="t" points="592.26 766.12 592.26 780.8 646.3 805.85 646.6 788.67 592.26 766.12"/>
      <polygon class="r" points="592.26 766.12 605.77 760.85 638.65 773.45 646.3 788.37 592.26 766.12"/>
      <polygon class="q" points="659.02 766.91 669.35 777.25 669.35 793.04 646.3 805.47 646.3 786.19 659.02 766.91"/>
      <polygon class="t" points="664.58 799.5 664.58 814.18 718.62 839.23 718.91 822.04 664.58 799.5"/>
      <polygon class="r" points="664.58 799.5 678.09 794.23 710.97 806.82 718.62 821.75 664.58 799.5"/>
      <polygon class="q" points="731.33 800.29 741.66 810.62 741.66 826.41 718.62 838.85 718.62 819.57 731.33 800.29"/>
      <polygon class="t" points="737.69 838.44 737.69 853.12 791.73 878.17 792.02 860.98 737.69 838.44"/>
      <polygon class="r" points="737.69 838.44 751.2 833.17 784.08 845.76 791.73 860.69 737.69 838.44"/>
      <polygon class="q" points="804.44 839.23 814.77 849.56 814.77 865.35 791.73 877.79 791.73 858.51 804.44 839.23"/>
      <polygon class="t" points="811.6 873.4 811.6 888.09 872.79 917.9 873.08 900.72 811.6 873.4"/>
      <polygon class="r" points="810.01 872.61 823.52 867.34 864.98 883.88 872.63 898.8 810.01 872.61"/>
      <g>
        <polygon class="p" points="865.24 681.71 1098.6 591.53 1098.6 579.37 865.24 668.66 865.24 681.71"/>
        <path class="r" d="M864.24,683.17v-15.2l.64-.25,234.72-89.81v14.3l-235.36,90.95Zm2-13.82v10.9l231.36-89.41v-10.02l-231.36,88.53Z"/>
      </g>
      <polygon class="p" points="727.36 533.28 639.15 583.34 825.9 663.61 727.36 533.28"/>
      <g>
        <polygon class="p" points="605.77 572.22 598.62 576.19 595.13 572.22 735.5 488.29 735.5 481.14 949.87 412.49 949.87 425.79 1106.42 576.19 865.24 668.66 735.31 494.34 605.77 572.22"/>
        <path class="r" d="M864.89,669.87l-129.84-174.2-128.79,77.43-7.86,4.36-4.81-5.48,140.92-84.25v-7.31l216.37-69.29v14.25l157.38,151.2-1.47,.56-241.89,92.74Zm-129.32-176.85l130.02,174.44,239.01-91.63-155.72-149.61v-12.36l-212.37,68.01v6.99l-139.83,83.6,2.17,2.46,6.43-3.57,130.29-78.34Z"/>
      </g>
    </g>
    <rect class="u" x="393.4" y="699.5" width="154.08" height="51.65"/>
    <circle class="q" cx="450.74" cy="832.13" r="7.44"/>
    <circle class="q" cx="877.07" cy="376.91" r="7.44"/>
    <g>
      <polygon class="t" points="1081 393.34 1086.85 405.18 1099.92 407.08 1090.46 416.3 1092.69 429.32 1081 423.18 1069.31 429.32 1071.54 416.3 1062.08 407.08 1075.15 405.18 1081 393.34"/>
      <polygon class="t" points="1149.14 411.27 1154.98 423.11 1168.06 425.01 1158.6 434.23 1160.83 447.25 1149.14 441.11 1137.45 447.25 1139.68 434.23 1130.22 425.01 1143.29 423.11 1149.14 411.27"/>
      <polygon class="t" points="1198.15 461.48 1204 473.32 1217.07 475.22 1207.61 484.44 1209.84 497.46 1198.15 491.31 1186.46 497.46 1188.69 484.44 1179.23 475.22 1192.3 473.32 1198.15 461.48"/>
      <polygon class="t" points="1216.08 528.42 1221.93 540.26 1235 542.16 1225.54 551.38 1227.77 564.4 1216.08 558.26 1204.39 564.4 1206.62 551.38 1197.16 542.16 1210.24 540.26 1216.08 528.42"/>
      <polygon class="t" points="1198.15 595.36 1204 607.21 1217.07 609.11 1207.61 618.33 1209.84 631.35 1198.15 625.2 1186.46 631.35 1188.69 618.33 1179.23 609.11 1192.3 607.21 1198.15 595.36"/>
      <polygon class="t" points="1147.94 645.57 1153.79 657.41 1166.86 659.31 1157.4 668.53 1159.64 681.55 1147.94 675.41 1136.25 681.55 1138.48 668.53 1129.02 659.31 1142.1 657.41 1147.94 645.57"/>
      <polygon class="t" points="1081 663.5 1086.85 675.35 1099.92 677.24 1090.46 686.47 1092.69 699.49 1081 693.34 1069.31 699.49 1071.54 686.47 1062.08 677.24 1075.15 675.35 1081 663.5"/>
      <polygon class="t" points="1012.86 645.57 1018.71 657.41 1031.78 659.31 1022.32 668.53 1024.55 681.55 1012.86 675.41 1001.17 681.55 1003.4 668.53 993.94 659.31 1007.02 657.41 1012.86 645.57"/>
      <polygon class="t" points="962.65 595.36 968.5 607.21 981.57 609.11 972.11 618.33 974.35 631.35 962.65 625.2 950.96 631.35 953.2 618.33 943.74 609.11 956.81 607.21 962.65 595.36"/>
      <polygon class="t" points="945.92 528.42 951.76 540.26 964.84 542.16 955.38 551.38 957.61 564.4 945.92 558.26 934.23 564.4 936.46 551.38 927 542.16 940.07 540.26 945.92 528.42"/>
      <polygon class="t" points="963.85 460.28 969.7 472.13 982.77 474.03 973.31 483.25 975.54 496.27 963.85 490.12 952.16 496.27 954.39 483.25 944.93 474.03 958 472.13 963.85 460.28"/>
      <polygon class="t" points="1014.06 411.27 1019.9 423.11 1032.98 425.01 1023.52 434.23 1025.75 447.25 1014.06 441.11 1002.36 447.25 1004.6 434.23 995.14 425.01 1008.21 423.11 1014.06 411.27"/>
    </g>
  </g>
  <g id="n" data-name="Layer 15"/>
  <g id="o" data-name="Layer 16"/>
</svg>