<?xml version="1.0" encoding="UTF-8"?>
<svg xmlns="http://www.w3.org/2000/svg" width="1600" height="1200" xmlns:xlink="http://www.w3.org/1999/xlink" viewBox="0 0 1600 1200">
  <defs>
    <style>
      .p, .q {
        fill: #fff;
      }

      .r {
        fill: #112e72;
      }

      .s {
        fill: #174bc5;
      }

      .t {
        fill: #072968;
      }

      .u, .v {
        fill: #4885ff;
      }

      .w {
        fill: #64b2ff;
      }

      .x {
        fill: none;
        stroke: #112e72;
        stroke-width: 5px;
      }

      .x, .q {
        stroke-miterlimit: 10;
      }

      .v {
        opacity: .69;
      }

      .q {
        stroke: #174bc5;
        stroke-width: 2px;
      }

      .y {
        fill: url(#o);
        opacity: .31;
      }
    </style>
    <linearGradient id="o" x1="771" y1="818.69" x2="1413" y2="818.69" gradientTransform="matrix(1, 0, 0, 1, 0, 0)" gradientUnits="userSpaceOnUse">
      <stop offset="0" stop-color="#072968"/>
      <stop offset=".21" stop-color="#072968" stop-opacity=".96"/>
      <stop offset=".4" stop-color="#082969" stop-opacity=".86"/>
      <stop offset=".59" stop-color="#0a2a6b" stop-opacity=".68"/>
      <stop offset=".77" stop-color="#0c2b6d" stop-opacity=".42"/>
      <stop offset=".95" stop-color="#0f2d70" stop-opacity=".1"/>
      <stop offset="1" stop-color="#112e72" stop-opacity="0"/>
    </linearGradient>
  </defs>
  <g id="a" data-name="Layer 2"/>
  <g id="b" data-name="Layer 3"/>
  <g id="c" data-name="Layer 5"/>
  <g id="d" data-name="Layer 4"/>
  <g id="e" data-name="Layer 6"/>
  <g id="f" data-name="Layer 7"/>
  <g id="g" data-name="Layer 8"/>
  <g id="h" data-name="Layer 10"/>
  <g id="i" data-name="Layer 11"/>
  <g id="j" data-name="Layer 12"/>
  <g id="k" data-name="Layer 13"/>
  <g id="l" data-name="Layer 14"/>
  <g id="m" data-name="Layer 15"/>
  <g id="n" data-name="Layer 16">
    <path class="r" d="M664,309v.19l-.5-.19-80.5,32c-65,69-68,117-68,207v179.5l256,117,148.5-80v-.23l.5,.23V408.5l-256-99.5Z"/>
    <g>
      <path class="r" d="M1039.26,738.05s-70.94-5.89-59.91-87.92c55.96,26.91,61.68,59.7,59.91,87.92Z"/>
      <path class="r" d="M1049.75,738.48s-18.81-68.65,62.02-86.44c-6.08,61.79-34.91,78.42-62.02,86.44Z"/>
      <path class="r" d="M1039.26,655.02s-70.94-5.89-59.91-87.92c55.96,26.91,61.68,59.7,59.91,87.92Z"/>
      <path class="r" d="M1049.75,655.45s-18.81-68.65,62.02-86.44c-6.08,61.79-34.91,78.42-62.02,86.44Z"/>
      <path class="r" d="M1042.12,581.78s-55.3-44.82,0-106.39c31.09,53.75,17.35,84.07,0,106.39Z"/>
    </g>
    <g>
      <polygon class="r" points="1137.65 759.18 626.27 560.25 625.86 560.09 310.47 717.8 312.77 718.87 312.77 742.64 798.19 969.39 1135.29 784.21 1135.29 760.47 1135.77 760.21 1137.65 759.18"/>
      <g>
        <g>
          <polygon class="p" points="312.77 717.77 625.91 561.18 1135.29 759.33 798.19 944.51 312.77 717.77"/>
          <path class="s" d="M798.23,945.63l-487.76-227.84,315.39-157.71,.41,.16,511.38,198.92-1.88,1.03-337.54,185.42Zm-483.16-227.9l483.09,225.65,334.78-183.9-506.97-197.21-310.9,155.46Z"/>
        </g>
        <polygon class="s" points="312.77 717.77 312.77 742.64 798.19 969.39 798.19 944.51 312.77 717.77"/>
        <polygon class="r" points="1135.29 759.33 1135.29 784.21 798.19 969.39 798.19 944.51 1135.29 759.33"/>
      </g>
      <polygon class="y" points="1413 875.83 1135.29 770.9 1135.29 759.33 900.46 667.98 771 845 968.5 850.96 968.5 875.83 968.5 875.83 798.19 969.39 838.65 969.39 1012.62 875.83 1413 875.83"/>
    </g>
    <g>
      <polygon class="r" points="920 408.5 664 309 664 647.5 763.56 693 771 844.5 919.5 764.5 919.5 764.27 920 764.5 920 408.5"/>
      <polygon class="u" points="588.48 411.27 559.91 411.27 537.61 546.68 553 583 723 652 757.25 600 757.25 478.3 588.48 411.27"/>
      <g>
        <path class="p" d="M588.48,411.27s-21.96,74.98-2.48,131.73c-.48,.25,150,64,150,64l21.25-128.7-168.77-67.04Z"/>
        <path class="t" d="M738.34,611.25l-3.51-1.49s-37.5-15.89-75-31.83c-21.77-9.26-39.12-16.65-51.57-21.98-7.04-3.01-12.9-5.53-17.01-7.32-2.06-.9-3.68-1.61-4.79-2.1-1.95-.87-3.12-1.39-3.4-2.85-19.39-56.96,1.63-130.17,2.54-133.26l.93-3.16,174.08,69.15-22.26,134.84Zm-149.9-70.4c10.91,4.92,104.34,44.58,145.22,61.9l20.24-122.55-163.4-64.9c-3.79,14.69-18.12,77.07-2.06,125.55Z"/>
      </g>
      <path class="s" d="M663.5,309l-80.5,32c-65,69-68,117-68,207v179.5l256,117v-197c0-70.5,10-143.5,66-205.5l82.5-33.5-256-99.5Zm59.5,343l-170-69v-37c0-48,2-105,35.48-134.73l168.77,67.04s-34.25,39.7-34,127.7c.13,46-.25,46-.25,46Z"/>
      <polygon class="q" points="586 341 837 441 919.5 408.5 663.5 309 586 341"/>
      <polygon class="r" points="553 607.3 553 631.35 659 675.32 659 651 553 607.3"/>
      <ellipse class="r" cx="678" cy="670.5" rx="10" ry="11.5" transform="translate(-122.69 152.67) rotate(-11.79)"/>
    </g>
    <g>
      <path class="r" d="M659,655.83l-12.47,3.96-93.53-37.82s-66-7.97-93,65.03c-7.56,20.44-21.65,30.77-35.44,35.87l-37.56-4.87v9l128,55.22s51.44-13.49,63-51.22c15.13-49.38,55.71-61.71,73.64-65.09l7.36-1.08v-9Z"/>
      <path class="w" d="M553,612.97s-66-7.97-93,65.03c-18,48.67-73,40-73,40l128,55.22s46.44-12.49,58-50.22c19-62,86-67.17,86-67.17l-106-42.86Z"/>
    </g>
    <ellipse class="r" cx="546.5" cy="657.5" rx="35.5" ry="16.5"/>
    <path class="x" d="M573.5,618.5s-75,1-92.24,52c-15.59,46.13-44.61,50.85-44.61,50.85l78.35,32.44s37.7-5.45,49.22-51.82c12.28-49.46,75.28-56.46,75.28-56.46"/>
    <g>
      <path class="r" d="M464.92,408.89c16.57-39.29,9.82-79.65-15.06-90.14-.9-.38-1.81-.7-2.73-.99l-.28-.1-10.53-3.16-.68,1.78c-22.27,.97-47.26,22.43-60.83,54.61-14.65,34.75-11.06,70.32,7.18,85.34l-.88,2.3,12.11,3.69v-.02c24.48,7.2,55.87-15.76,71.71-53.32Z"/>
      <ellipse class="w" cx="409.7" cy="386.84" rx="77.21" ry="48.9" transform="translate(-105.93 614.06) rotate(-67.14)"/>
      <path class="r" d="M422.77,407.16c5.77-13.74-3.38-22.96-9.43-29.06-4.16-4.19-6.65-6.9-6.22-9.18,.44-2.28,2.42-4.57,5.04-5.82,1.15-.55,4.12-1.67,6.82-.22,3.18,1.71,1.9,6.44,1.74,6.98l.03-.08,14.62,4.68c1.65-5.15,2.27-15.48-5.05-22.21l2.82-5.26-11.27-6.05-3.24,6.04c-4.3-.51-8.81,.24-13.07,2.27-7.1,3.38-12.15,9.65-13.52,16.78-2,10.4,5.17,17.62,10.39,22.89,6.27,6.32,7.74,8.56,6.17,12.3-1.54,3.66-3.45,6.01-5.39,6.61-2.15,.67-4.78-.72-6.16-1.6-3.94-2.53-2.97-9.85-2.97-9.86l-15.15-2.5c-.93,5.62-.35,16,6.66,22.77l-3.65,6.8,12.02,6.45,3.76-7c3.44,.71,6.85,.59,10.05-.41,4.49-1.4,10.73-5.19,14.99-15.32Z"/>
      <path class="r" d="M378.84,446.38c-19.11-11.35-23.84-44.74-10.19-77.1,6.91-16.39,17.44-30.13,29.66-38.7,12.57-8.81,25.46-11.15,36.29-6.58,21.93,9.26,28.05,44.61,13.62,78.83s-44.01,54.53-65.95,45.28c-1.19-.5-2.33-1.08-3.43-1.73Zm56.72-116.32c-.93-.55-1.89-1.04-2.9-1.46-9.19-3.88-20.38-1.72-31.49,6.07-11.46,8.04-21.38,21.02-27.93,36.55-12.67,30.04-8.9,60.76,8.07,70.84,.93,.55,1.89,1.04,2.9,1.46,19.41,8.18,46.06-10.94,59.42-42.62,12.67-30.04,8.9-60.76-8.07-70.83Z"/>
    </g>
    <circle class="r" cx="975.07" cy="340.91" r="7.44"/>
    <circle class="r" cx="436.07" cy="545.91" r="7.44"/>
    <circle class="r" cx="613.07" cy="971.91" r="7.44"/>
    <circle class="r" cx="1172.07" cy="670.91" r="7.44"/>
    <g>
      <path class="r" d="M746.49,213.55h0l6.27-8.78,1.46,1.18c20.21-14.22,56.7-6.9,86.28,18.65,27.6,23.85,40.37,55.96,32.9,78.07l1.16,.94-5.82,8.16c-.07,.09-.13,.18-.19,.27l-.04,.06h0c-.48,.64-.97,1.27-1.5,1.88-18.17,21.03-59.48,15.1-92.28-13.24-31.7-27.39-43.83-65.68-28.22-87.2Z"/>
      <ellipse class="w" cx="813.74" cy="254.08" rx="50.31" ry="78.48" transform="translate(89.47 703.7) rotate(-49.17)"/>
      <path class="r" d="M840.65,249.04c-10.25-12.02-21.26-8.99-28.55-6.99-5.01,1.38-8.19,2.1-10.05,.55-1.87-1.55-3.25-4.42-3.51-7.3-.12-1.27-.16-4.38,1.97-5.93,2.51-1.83,6.27,1.71,6.69,2.12l-.07-.07,8.76-10.04c-4-4.06-12.89-9.94-21.14-7.18l-3.73-5.13-8.9,6.48,4.28,5.88c-1.81,3.4-2.58,7.63-2.15,12.31,.72,7.79,4.63,15.34,10.46,20.2,8.51,7.08,17.14,4.71,23.43,2.97,7.55-2.08,9.99-2.17,12.78,1.1,2.73,3.2,4.18,6.05,4.1,8.01-.1,2.18-2.15,3.7-3.36,4.42-3.47,2.05-9.6-2.56-9.62-2.56l-7.01,11.61c4.65,3.7,13.96,8.57,22.14,6.1l4.82,6.63,9.5-6.91-4.96-6.82c1.71-2.56,2.69-5.53,2.84-8.77,.2-4.55-1.15-11.83-8.71-20.69Z"/>
      <path class="r" d="M786.77,280.63c-27.23-27.23-35.82-61.31-19.56-77.57,16.27-16.27,50.34-7.68,77.57,19.56,27.23,27.23,35.82,61.31,19.56,77.57-5.56,5.56-13.2,8.21-21.94,8.21-16.82,0-37.71-9.85-55.64-27.77Zm-15.18-73.19c-13.58,13.58-4.8,44.45,19.56,68.81,24.36,24.36,55.23,33.14,68.81,19.56,13.58-13.58,4.8-44.45-19.56-68.81-16.59-16.59-36.19-25.95-51.3-25.95-7.08,0-13.18,2.06-17.51,6.39Z"/>
    </g>
    <path class="r" d="M709,498c-.62,0-1.25-.12-1.86-.36l-100-40c-2.56-1.03-3.81-3.94-2.79-6.5,1.03-2.56,3.93-3.81,6.5-2.79l100,40c2.56,1.03,3.81,3.94,2.79,6.5-.78,1.95-2.66,3.14-4.64,3.14Z"/>
    <path class="r" d="M668,507c-.65,0-1.31-.13-1.95-.4l-59-25c-2.54-1.08-3.73-4.01-2.65-6.55,1.08-2.54,4.01-3.73,6.55-2.65l59,25c2.54,1.08,3.73,4.01,2.65,6.55-.81,1.91-2.66,3.05-4.61,3.05Z"/>
    <rect class="v" x="954" y="439" width="170" height="66"/>
    <path class="t" d="M1095.47,466h-116.94c-1.95,0-3.53-1.79-3.53-4s1.58-4,3.53-4h116.94c1.95,0,3.53,1.79,3.53,4s-1.58,4-3.53,4Z"/>
    <path class="t" d="M1095.47,486h-116.94c-1.95,0-3.53-1.79-3.53-4s1.58-4,3.53-4h116.94c1.95,0,3.53,1.79,3.53,4s-1.58,4-3.53,4Z"/>
  </g>
</svg>