<?xml version="1.0" encoding="UTF-8"?>
<svg xmlns="http://www.w3.org/2000/svg" width="1600" height="1200" xmlns:xlink="http://www.w3.org/1999/xlink" viewBox="0 0 1600 1200">
  <defs>
    <style>
      .ab {
        fill: url(#a`);
      }

      .ab, .ac, .ad, .ae, .af {
        opacity: .31;
      }

      .ac {
        fill: url(#q);
      }

      .ag {
        fill: #fff;
      }

      .ah {
        fill: #112e72;
      }

      .ai {
        fill: #174bc5;
      }

      .ad {
        fill: url(#aa);
      }

      .aj {
        fill: #072968;
      }

      .ak, .al {
        fill: #4885ff;
      }

      .am {
        fill: #64b2ff;
      }

      .al {
        opacity: .69;
      }

      .ae {
        fill: url(#s);
      }

      .af {
        fill: url(#r);
      }
    </style>
    <linearGradient id="q" x1="678.67" y1="868.14" x2="1415.65" y2="868.14" gradientTransform="matrix(1, 0, 0, 1, 0, 0)" gradientUnits="userSpaceOnUse">
      <stop offset="0" stop-color="#072968"/>
      <stop offset=".21" stop-color="#072968" stop-opacity=".96"/>
      <stop offset=".4" stop-color="#082969" stop-opacity=".86"/>
      <stop offset=".59" stop-color="#0a2a6b" stop-opacity=".68"/>
      <stop offset=".77" stop-color="#0c2b6d" stop-opacity=".42"/>
      <stop offset=".95" stop-color="#0f2d70" stop-opacity=".1"/>
      <stop offset="1" stop-color="#112e72" stop-opacity="0"/>
    </linearGradient>
    <linearGradient id="r" x1="737.07" y1="1001.68" x2="918.31" y2="1001.68" xlink:href="#q"/>
    <linearGradient id="s" x1="359.96" y1="870.59" x2="701.16" y2="870.59" xlink:href="#q"/>
    <linearGradient id="a`" x1="655" y1="554.24" x2="735.15" y2="554.24" xlink:href="#q"/>
    <linearGradient id="aa" x1="776.57" y1="716.5" x2="830.22" y2="716.5" xlink:href="#q"/>
  </defs>
  <g id="a" data-name="Layer 2"/>
  <g id="b" data-name="Layer 3"/>
  <g id="c" data-name="Layer 5"/>
  <g id="d" data-name="Layer 4"/>
  <g id="e" data-name="Layer 6"/>
  <g id="f" data-name="Layer 7"/>
  <g id="g" data-name="Layer 8"/>
  <g id="h" data-name="Layer 18"/>
  <g id="i" data-name="Layer 10"/>
  <g id="j" data-name="Layer 11"/>
  <g id="k" data-name="Layer 12"/>
  <g id="l" data-name="Layer 13"/>
  <g id="m" data-name="Layer 14"/>
  <g id="n" data-name="Layer 15"/>
  <g id="o" data-name="Layer 16"/>
  <g id="p" data-name="Layer 17">
    <g>
      <g>
        <g>
          <path class="ak" d="M985.5,496.74l-12.07,8.14,.32,77.77,64.3,29.77h0l11.66-7.06v-76.07l-64.2-32.55Zm33.49,72.52l-16.31-7.41v-19.19l16.31,7.45v19.15Z"/>
          <path class="ak" d="M986.41,330.36l-12.98,7.23v76.4l64.62,31.14h0l11.66-7.06v-76.07l-63.3-31.65Zm32.59,71.62l-16.31-7.41v-19.19l16.31,7.45v19.15Z"/>
          <polygon class="ak" points="808.85 446.1 808.85 507.13 858 530.13 858 471.42 858.1 471.36 858.1 530.13 869.76 523.08 869.76 464.19 820.93 438.87 808.85 446.1"/>
          <path class="ak" d="M820.93,256.2l-11.81,7.65v78.97l64.36,28.15h0l11.66-7.06v-76.07l-64.2-31.65Zm33.49,71.62l-16.31-7.41v-19.19l16.31,7.45v19.15Z"/>
          <path class="ak" d="M982.79,435.25l-28.03-12.66v-28.94l-18.99-9.04-10.27,5.7v51.71l45.57,21.96,11.72-7.03v-21.7Zm-11.93,6.68l.21,.11h0l-.21-.11Z"/>
          <polygon class="ak" points="820.92 358.33 809.11 364.23 808.85 364.23 808.85 390.31 835.83 403.57 847.15 397.08 847.15 369.24 820.92 358.33"/>
          <polygon class="ak" points="948.43 345.54 948.43 317.7 921.3 304.13 910.13 310.46 910.13 338.77 937.11 352.02 948.43 345.54"/>
          <polygon class="ak" points="1011.41 466.9 1011.41 495.21 1038.39 508.47 1049.71 501.98 1049.71 474.14 1022.58 460.57 1011.41 466.9"/>
          <polygon class="ak" points="879.38 510.31 879.38 539.53 937.11 566.34 948.43 559.85 948.43 532.01 890.56 503.98 879.38 510.31"/>
          <polygon class="ak" points="880.61 414.78 864.33 408.12 854.42 414.01 854.42 435.25 880.61 447.91 880.61 483.6 902.31 494.94 912.26 488.12 912.26 406.32 890.56 396.37 880.61 401.79 880.61 414.78"/>
          <polygon class="ak" points="933.96 476.85 933.96 507.13 951.14 515.73 961.99 509.4 961.99 478.66 944.56 471.42 933.96 476.85"/>
        </g>
        <g>
          <polygon class="ak" points="854.42 414.01 864.33 408.12 884.23 416.26 885.13 428.92 854.42 414.01"/>
          <g>
            <polygon class="ah" points="1038.05 536.41 1049.71 529.3 1049.71 605.37 1038.05 612.42 1038.05 536.41"/>
            <polygon class="ah" points="992.49 568.15 1002.69 561.85 1002.69 534.99 992.49 538 992.49 568.15"/>
            <polygon class="ak" points="1002.69 561.85 1022.58 570.9 1019 581.3 992.49 568.15 1002.69 561.85"/>
            <path class="ai" d="M973.43,504.88l.32,77.77,64.3,29.77v-76.02l-64.62-31.52Zm19.06,33.12l26.51,12.12v31.19l-26.51-13.15v-30.15Z"/>
          </g>
          <polygon class="ak" points="1038.05 536.41 1049.71 529.3 985.51 496.74 973.43 504.88 1038.05 536.41"/>
          <g>
            <polygon class="ah" points="1038.05 369.11 1049.71 362.01 1049.71 438.07 1038.05 445.13 1038.05 369.11"/>
            <polygon class="ah" points="992.49 400.86 1002.69 394.56 1002.69 367.7 992.49 370.71 992.49 400.86"/>
            <polygon class="ak" points="1002.69 394.56 1022.58 403.6 1019 414.01 992.49 400.86 1002.69 394.56"/>
            <path class="ai" d="M973.43,337.59v76.4l64.62,31.14v-76.02l-64.62-31.52Zm19.06,33.12l26.51,12.12v31.19l-26.51-13.15v-30.15Z"/>
          </g>
          <polygon class="ak" points="1038.05 369.11 1049.71 362.01 986.41 330.36 973.43 337.59 1038.05 369.11"/>
          <g>
            <polygon class="ah" points="858.1 471.3 869.76 464.19 869.76 523.08 858.1 530.13 858.1 471.3"/>
            <path class="ai" d="M808.85,446.1v61.03l49.15,23v-60.52l-49.15-23.51Z"/>
          </g>
          <polygon class="ak" points="858 471.42 869.76 464.19 820.93 438.87 808.85 446.1 858 471.42"/>
          <g>
            <polygon class="ah" points="873.47 294.96 885.13 287.85 885.13 363.92 873.47 370.98 873.47 294.96"/>
            <polygon class="ah" points="827.56 328.07 838.11 320.41 838.11 293.55 827.91 296.55 827.56 328.07"/>
            <polygon class="ak" points="838.11 320.41 858 329.45 854.42 339.86 827.56 328.07 838.11 320.41"/>
            <path class="ai" d="M809.11,263.86v78.97l64.36,28.15v-76.02l-64.36-31.1Zm18.8,32.7l26.51,12.12v31.19l-26.51-11.79v-31.51Z"/>
          </g>
          <polygon class="ak" points="873.47 294.96 885.13 287.85 820.93 256.2 809.11 263.86 873.47 294.96"/>
          <g>
            <g>
              <polygon class="ah" points="944.56 428.89 954.76 422.59 954.76 393.66 944.56 398.74 944.56 428.89"/>
              <polygon class="ak" points="954.76 422.59 982.79 435.25 971.07 442.04 944.56 428.89 954.76 422.59"/>
              <polygon class="ai" points="944.56 428.89 944.56 398.74 925.5 390.31 925.5 442.02 971.07 463.98 971.07 442.04 944.56 428.89"/>
            </g>
            <polygon class="ah" points="971.07 463.98 982.79 456.96 982.79 435.25 971.07 442.04 971.07 463.98"/>
            <polygon class="ak" points="925.5 390.31 944.56 398.74 954.76 393.66 935.77 384.61 925.5 390.31"/>
          </g>
          <polygon class="ai" points="808.85 364.23 808.85 390.31 835.83 403.57 835.83 375.61 808.85 364.23"/>
          <polygon class="ah" points="835.83 403.57 847.15 397.08 847.15 369.24 835.83 375.61 835.83 403.57"/>
          <polygon class="ak" points="809.11 364.23 835.83 375.61 847.15 369.24 820.92 358.33 809.11 364.23"/>
          <polygon class="ai" points="910.13 310.46 910.13 338.77 937.11 352.02 937.11 324.07 910.13 310.46"/>
          <polygon class="ah" points="937.11 352.02 948.43 345.54 948.43 317.7 937.11 324.07 937.11 352.02"/>
          <polygon class="ak" points="910.13 310.46 937.11 324.07 948.43 317.7 921.3 304.13 910.13 310.46"/>
          <polygon class="ai" points="1011.41 466.9 1011.41 495.21 1038.39 508.47 1038.39 480.51 1011.41 466.9"/>
          <polygon class="ah" points="1038.39 508.47 1049.71 501.98 1049.71 474.14 1038.39 480.51 1038.39 508.47"/>
          <polygon class="ak" points="1011.41 466.9 1038.39 480.51 1049.71 474.14 1022.58 460.57 1011.41 466.9"/>
          <polygon class="ah" points="937.11 566.34 948.43 559.85 948.43 532.01 937.11 538.38 937.11 566.34"/>
          <polygon class="ak" points="879.38 510.31 937.11 538.38 948.43 532.01 890.56 503.98 879.38 510.31"/>
          <polygon class="ai" points="879.38 510.31 879.38 539.53 937.11 566.34 937.11 538.38 879.38 510.31"/>
          <polygon class="ai" points="880.61 401.79 880.61 426.21 854.42 414.01 854.42 435.25 880.61 447.91 880.61 483.6 902.31 494.94 902.31 411.74 880.61 401.79"/>
          <polygon class="ah" points="902.31 411.74 912.26 406.32 912.26 488.12 902.31 494.94 902.31 411.74"/>
          <polygon class="ak" points="880.61 401.79 890.56 396.37 912.26 406.32 902.31 411.74 880.61 401.79"/>
          <polygon class="ai" points="933.96 476.85 933.96 507.13 951.14 515.73 951.14 484.58 933.96 476.85"/>
          <polygon class="ah" points="951.14 484.58 961.99 478.66 961.99 509.4 951.14 515.73 951.14 484.58"/>
          <polygon class="ak" points="961.99 478.66 951.14 484.58 933.96 476.85 944.56 471.42 961.99 478.66"/>
        </g>
      </g>
      <polygon class="ac" points="860.17 903.99 1415.65 903.99 1196.64 832.29 678.67 832.29 860.17 903.99"/>
      <g>
        <path class="ah" d="M862.37,390.1l-159.21-65.01c-7.87-3.21-16.11-1.81-22.29,2.56h0c-.28,.2-.56,.4-.84,.61l-14.4,10.55,5.36,15.4v426.56c0,18.93,11.39,36,28.88,43.26l157.47,65.39,4.18,12.01,19.31-13.2c.31-.2,.61-.41,.91-.62h0c5.81-4.15,9.77-10.94,9.77-18.98V433.47c0-19.03-11.51-36.17-29.13-43.36Z"/>
        <g>
          <path class="ag" d="M847.37,401.1l-159.21-65.01c-15.35-6.27-32.16,5.02-32.16,21.61v434.08c0,18.93,11.39,36,28.88,43.26l159.34,66.17c15.37,6.38,32.29-4.91,32.29-21.56V444.47c0-19.03-11.51-36.17-29.13-43.36Z"/>
          <path class="ai" d="M853.17,903.99c-3.16,0-6.33-.62-9.34-1.87l-159.33-66.17c-17.92-7.44-29.49-24.78-29.49-44.18V357.7c0-8.12,4.03-15.67,10.77-20.2,6.74-4.53,15.26-5.4,22.78-2.33l159.21,65.01c18.07,7.38,29.75,24.76,29.75,44.29v435.18c0,8.15-4.05,15.72-10.83,20.24-4.07,2.71-8.77,4.1-13.51,4.1Zm-173.84-568.64c-4.37,0-8.71,1.29-12.45,3.8-6.19,4.16-9.88,11.09-9.88,18.54v434.08c0,18.59,11.09,35.2,28.26,42.33l159.33,66.17c6.91,2.87,14.75,2.1,20.97-2.05,6.22-4.15,9.94-11.1,9.94-18.58V444.47c0-18.71-11.19-35.36-28.51-42.44l-159.21-65.01c-2.73-1.11-5.6-1.66-8.45-1.66Z"/>
        </g>
        <ellipse class="ah" cx="758.98" cy="815.75" rx="17" ry="22" transform="translate(-95.06 100.13) rotate(-7.1)"/>
        <g>
          <ellipse class="ag" cx="755.02" cy="817.25" rx="16.88" ry="21" transform="translate(-95.28 99.65) rotate(-7.1)"/>
          <path class="ai" d="M755.9,839.2c-4.15,0-8.2-1.74-11.58-5.02-3.82-3.7-6.32-8.93-7.04-14.72s.42-11.47,3.21-16c2.84-4.59,7.03-7.45,11.81-8.05,4.78-.6,9.55,1.14,13.42,4.9,3.82,3.7,6.32,8.93,7.04,14.72,.72,5.79-.42,11.47-3.21,16-2.84,4.59-7.03,7.45-11.81,8.05-.62,.08-1.23,.12-1.84,.12Zm-1.77-41.89c-.53,0-1.06,.03-1.58,.1-4.17,.52-7.85,3.04-10.36,7.11-2.55,4.14-3.59,9.36-2.93,14.7,.67,5.34,2.96,10.15,6.45,13.53,3.43,3.33,7.62,4.87,11.79,4.35,4.17-.52,7.85-3.04,10.36-7.11,2.55-4.14,3.59-9.36,2.93-14.7s-2.96-10.15-6.45-13.53c-3-2.91-6.57-4.45-10.2-4.45Z"/>
        </g>
      </g>
      <polygon class="ah" points="682.9 429 677.9 432 682.9 436.52 682.9 512 834.85 573.98 845 583.15 850 580.15 850 496.39 682.9 429"/>
      <path class="af" d="M737.07,1021.79h168.97c13.49,0,17.08-18.62,4.56-23.64h0c-35.19-14.1-73.31-19.33-111-15.24l-54.13,5.88-8.4,32.99Z"/>
      <path class="ae" d="M359.96,887.99h91.27l98.05,5.44h137.01c16.16,0,20.69-22.17,5.82-28.51h0c-26.56-11.32-55.13-17.16-83.99-17.16h-91.75l-156.42,40.23Z"/>
      <g>
        <path class="ah" d="M590.61,857.54c-16.65-5.92-43.69-9.77-74.23-9.77s-57.58,3.85-74.23,9.77h-17.39v13.85c0,13.04,41.02,23.62,91.63,23.62s91.63-10.57,91.63-23.62v-13.85h-17.39Z"/>
        <ellipse class="am" cx="516.37" cy="857.54" rx="91.63" ry="23.62"/>
      </g>
      <g>
        <path class="ah" d="M584.09,839.62c-16.65-5.92-43.69-9.77-74.23-9.77s-57.58,3.85-74.23,9.77h-17.39v13.85c0,13.04,41.02,23.62,91.63,23.62s91.63-10.57,91.63-23.62v-13.85h-17.39Z"/>
        <ellipse class="am" cx="509.86" cy="839.62" rx="91.63" ry="23.62"/>
      </g>
      <g>
        <path class="ah" d="M588.16,818.44c-16.65-5.92-43.69-9.77-74.23-9.77s-57.58,3.85-74.23,9.77h-17.39v13.85c0,13.04,41.02,23.62,91.63,23.62s91.63-10.57,91.63-23.62v-13.85h-17.39Z"/>
        <ellipse class="am" cx="513.93" cy="818.44" rx="91.63" ry="23.62"/>
        <g id="t" data-name="Layer_1">
          <g id="u" data-name=" 1421394342400">
            <g>
              <polygon class="aj" points="445.46 816.5 448.24 816.84 528.96 816.84 529.78 816.5 507.63 801.01 445.46 816.5"/>
              <polygon class="ai" points="445.46 816.5 507.63 832 529.78 816.5 490.6 816.5 445.46 816.5"/>
              <polygon class="aj" points="536.88 816.5 537.44 816.7 566.19 816.7 567.54 816.5 514.74 801 536.88 816.5"/>
              <polygon class="ai" points="567.54 816.5 536.88 816.5 514.74 832 567.54 816.5"/>
              <polygon points="529.78 816.5 507.63 801.01 490.6 816.5 529.78 816.5"/>
              <polygon class="aj" points="507.63 832 529.78 816.5 490.6 816.5 507.63 832"/>
            </g>
          </g>
        </g>
      </g>
      <g>
        <path class="ah" d="M778.62,980.49c-19.51-6.94-51.19-11.45-86.97-11.45s-67.46,4.51-86.97,11.45h-20.38v16.22c0,15.28,48.06,27.67,107.35,27.67s107.35-12.39,107.35-27.67v-16.22h-20.38Z"/>
        <ellipse class="am" cx="691.65" cy="980.49" rx="107.35" ry="27.67"/>
      </g>
      <g>
        <path class="ah" d="M479.27,779.39c-17.09,4.51-41.59,16.59-66.8,33.83-25.21,17.23-45.36,35.68-55.76,49.96l-14.36,9.82,7.81,11.43c7.36,10.77,47.19-3.65,88.97-32.21,41.77-28.56,69.67-60.44,62.31-71.21l-7.81-11.43-14.36,9.82Z"/>
        <ellipse class="am" cx="417.99" cy="821.28" rx="91.63" ry="23.62" transform="translate(-390.57 379.19) rotate(-34.36)"/>
      </g>
      <g id="v" data-name="Layer_1">
        <g id="w" data-name=" 1421344023328">
          <path class="ah" d="M435.46,823.21c10.24-6.63,14.03-12.62,15.46-18.14l14.15-8.6,.36-3.82-13.77,8.37c.09-1,.15-2,.2-3l13.87-8.43,.36-3.82-14.14,8.6c.04-.8,.08-1.59,.15-2.39l.04-.03,.5-5.27-9.2,5.59s-.14,2.75-.26,2.77c-.15,1.55-2.22,3.28-3.98,4.49l-16.12,9.8c-.01,.11-.03,.25-.1,.44,.01-.13,.03-.26,.04-.4l-22.58,13.72c-1.09,.6-2.82,1.38-2.72,.3-.1,.11,.26-2.78,.26-2.78l-10.21,5.49-.47,4.97c-.09,.93-.21,1.86-.31,2.76l-14.31,8.7-.36,3.82,14.16-8.61c-.15,1.08-.26,2.1-.35,3.09l-14.09,8.56-.36,3.82,14.28-8.68c.23,5.92,3.45,8.2,17,.49,10.91-6.2,16-11.46,18.32-16.3,2.33,.67,6.68-.67,14.18-5.53h0Zm-30.09,13.25c-10.69,6.5-8.71-2.36-8.48-4.95l18.96-11.52c-.24,2.59,.67,9.69-10.48,16.47h0Zm26.91-18.03c-9.73,5.91-7.96-1.55-7.76-3.71l17.19-10.45c-.2,2.16,.71,7.99-9.44,14.16h0Z"/>
        </g>
      </g>
      <g>
        <polygon class="ah" points="700.19 644.56 700.19 656.39 840 716.39 840 703.91 700.19 644.56"/>
        <g>
          <path class="ah" d="M835.77,686.61c-10.16-12.17-42.44-21.08-80.73-21.08s-70.57,8.9-80.73,21.08l-3.34-5.61v13.76c0,16.15,37.64,29.24,84.07,29.24s84.07-13.09,84.07-29.24v-13.76l-3.34,5.61Z"/>
          <ellipse class="am" cx="755.04" cy="680.61" rx="84.07" ry="29.24"/>
        </g>
        <g id="x" data-name="Layer_1">
          <g id="y" data-name=" 1421394342400">
            <g>
              <polygon class="aj" points="688.34 680.5 691.12 680.84 771.84 680.84 772.66 680.5 750.51 665.01 688.34 680.5"/>
              <polygon class="ai" points="688.34 680.5 750.51 696 772.66 680.5 733.48 680.5 688.34 680.5"/>
              <polygon class="aj" points="779.75 680.5 780.32 680.69 809.07 680.69 810.42 680.5 757.62 665 779.75 680.5"/>
              <polygon class="ai" points="810.42 680.5 779.75 680.5 757.62 696 810.42 680.5"/>
              <polygon points="772.66 680.5 750.51 665.01 733.48 680.5 772.66 680.5"/>
              <polygon class="aj" points="750.51 696 772.66 680.5 733.48 680.5 750.51 696"/>
            </g>
          </g>
        </g>
        <polygon class="ag" points="697.36 644.4 852 709 857 654 696.14 634.09 697.36 644.4"/>
      </g>
      <g>
        <polygon class="ag" points="679 433 679 514.82 844 582 844 499.43 679 433"/>
        <path class="ai" d="M845,583.49l-1.38-.56-165.62-67.44v-83.97l167,67.23v84.74Zm-165-69.34l163,66.37v-80.41l-163-65.62v79.66Z"/>
      </g>
      <path class="ah" d="M689.43,980.41l27.7,3.88v-20.75c-.04-.58,.91-1.06,2.14-1.08h.73l13.18,1.8c1.28,.16,2.16,.73,2.1,1.35v31.75l-38.4-5.32,3.82,5.95-8.79-1.35-3.82-5.95-53.88-7.49c-1.28-.17-2.14-.73-2.1-1.35v-8.03c-.04-.58,.91-1.06,2.14-1.08h.73l45.47,6.31-3.82-5.95,9.17,1.26,3.63,6.04Z"/>
      <g>
        <path class="ah" d="M825,968.02c-18.84-8.59-50.01-15.82-85.66-18.9-35.65-3.08-67.6-1.31-87.63,3.92l-20.3-1.76-1.4,16.16c-1.32,15.23,45.5,31.71,104.56,36.81,59.07,5.11,108.02-3.1,109.33-18.32l1.4-16.16-20.3-1.76Z"/>
        <ellipse class="am" cx="738.35" cy="960.52" rx="27.67" ry="107.35" transform="translate(-282.19 1613.41) rotate(-85.06)"/>
      </g>
      <path class="ah" d="M736.15,960.25l27.27,6.25,1.79-20.67c0-.58,1-.98,2.22-.89h0l.72,.06,12.98,2.93c1.27,.27,2.09,.91,1.98,1.53l-2.73,31.63-37.8-8.61,3.29,6.26-8.64-2.1-3.29-6.26-53.03-12.1c-1.26-.28-2.07-.91-1.98-1.53l.69-8c0-.58,1-.98,2.22-.89h0l.72,.06,44.76,10.21-3.29-6.26,9.03,2.05,3.1,6.33Z"/>
      <g>
        <polygon class="aj" points="525.32 449.12 549.74 437.98 630.15 470.14 606.83 483.78 525.32 449.12"/>
        <polygon class="ak" points="525.32 449.12 525 545 606.83 579 606.83 483.78 525.32 449.12"/>
        <polygon class="aj" points="630.15 470.14 630.15 561.68 606.83 579 606.83 483.78 630.15 470.14"/>
        <path class="aj" d="M570.59,505.68c0-9.38-4.06-16.99-9.06-16.99s-9.06,7.6-9.06,16.99c0,5.87,1.59,11.04,4,14.09v16.89l7.99,4v-18.91c3.56-2.29,6.13-8.6,6.13-16.06Z"/>
        <path class="aj" d="M604.38,466.17l-14.72-1.94c2.25-17.21,4-67.41-16.85-72.22-1.84-.43-2.79-.02-3.74,.78-8.06,6.77-10.22,36.78-9.19,55.93l-14.82,.81c-.49-8.93-2.08-54.19,14.45-68.1,4.71-3.96,10.46-5.3,16.63-3.88,37.65,8.69,29.3,80.47,28.23,88.62Z"/>
      </g>
      <path class="ab" d="M716,540v-9s-1-1-2.76-1.15c.97-21.48-1.04-59.49-26.47-65.36-3.77-.87-6.76-1.49-8.76-.49v4c-.88,.51-4,3-8,7-11.51,11.51-11.44,30.76-11.33,45.66l-3.67,1.68v98.04l59.26,24.62,20.89-15.52v-82.02l-19.15-7.46Zm-15-6l-29.01-11.81c-.17-12.68-1.75-26.29,4.01-34.19,.42-.57,1.68-2.31,2-3,.9-1.94,1.26-5.87,2.42-6.85,.85-.71,1.7-1.08,3.35-.69,13.61,3.14,16.47,27.89,16.24,47.05-.02-.5,1.98,.5,1.98,.5,0,0-1,10-1,9Z"/>
      <g>
        <polygon class="ag" points="773 537 737.02 522.57 737.02 495.07 719 487.87 755 478 792 512.87 773 505.29 773 537"/>
        <path class="ai" d="M774,538.48l-37.97-15.24v-27.5l-20.16-8.05,39.42-10.81,.41,.39,40.82,38.47-22.51-8.97v31.71Zm-35.97-16.59l33.97,13.63v-31.7l15.49,6.18-32.77-30.88-32.58,8.93,15.89,6.34v27.5Z"/>
      </g>
      <circle class="ah" cx="525" cy="666" r="8"/>
      <circle class="ah" cx="397" cy="516" r="8"/>
      <circle class="ah" cx="962" cy="747" r="8"/>
      <circle class="ah" cx="632" cy="250" r="8"/>
      <path class="ah" d="M1086.61,671.22l-81.42-37.7c-3.33-1.54-4.78-5.49-3.24-8.82,1.54-3.33,5.49-4.78,8.82-3.24l62.55,28.96v-69.22c0-3.67,2.97-6.64,6.64-6.64s6.64,2.97,6.64,6.64v90.01Z"/>
      <path class="ah" d="M1079.97,420.6h-.03c-3.67-.02-6.63-3-6.61-6.67l.35-75.18-64.78-30.12c-3.33-1.55-4.77-5.5-3.22-8.82,1.55-3.33,5.5-4.77,8.82-3.22l72.5,33.71-.39,83.69c-.02,3.66-2.99,6.61-6.64,6.61Z"/>
      <path class="ah" d="M785.5,290.8c-3.65,0-6.62-2.95-6.64-6.61l-.42-89.92,83.3,38.84c3.32,1.55,4.76,5.5,3.21,8.83-1.55,3.32-5.5,4.76-8.83,3.21l-64.3-29.99,.32,68.95c.02,3.67-2.94,6.66-6.61,6.67h-.03Z"/>
      <polygon class="ai" points="682.9 527 682.9 610 850 678.15 850 594.39 682.9 527"/>
      <polygon class="ag" points="740 569 775.98 583.43 775.98 610.93 794 618.13 755 625 721 590.13 740 597.71 740 569"/>
      <polygon class="ad" points="776.57 724 830.22 724 825.64 709 776.57 724"/>
      <rect class="al" x="844" y="795" width="200" height="74"/>
    </g>
  </g>
</svg>