<?xml version="1.0" encoding="UTF-8"?>
<svg xmlns="http://www.w3.org/2000/svg" width="1600" height="1200" xmlns:xlink="http://www.w3.org/1999/xlink" viewBox="0 0 1600 1200">
  <defs>
    <style>
      .w {
        fill: #fff;
      }

      .x {
        fill: #174bc5;
      }

      .y {
        fill: url(#j);
      }

      .y, .a`, .aa, .ab, .ac, .ad {
        opacity: .31;
      }

      .a` {
        fill: url(#k);
      }

      .ae {
        fill: #072968;
      }

      .af {
        fill: url(#e);
      }

      .af, .ag {
        opacity: .16;
      }

      .aa {
        fill: url(#i);
      }

      .ag {
        fill: url(#l);
      }

      .ab {
        fill: url(#g);
      }

      .ah {
        fill: #4885ff;
        opacity: .69;
      }

      .ac {
        fill: url(#h);
      }

      .ai {
        fill: none;
      }

      .ad {
        fill: url(#f);
      }
    </style>
    <linearGradient id="e" x1="658.5" y1="840.72" x2="1304.5" y2="840.72" gradientTransform="matrix(1, 0, 0, 1, 0, 0)" gradientUnits="userSpaceOnUse">
      <stop offset="0" stop-color="#072968"/>
      <stop offset=".21" stop-color="#072968" stop-opacity=".96"/>
      <stop offset=".4" stop-color="#082969" stop-opacity=".86"/>
      <stop offset=".59" stop-color="#0a2a6b" stop-opacity=".68"/>
      <stop offset=".77" stop-color="#0c2b6d" stop-opacity=".42"/>
      <stop offset=".95" stop-color="#0f2d70" stop-opacity=".1"/>
      <stop offset="1" stop-color="#112e72" stop-opacity="0"/>
    </linearGradient>
    <linearGradient id="f" x1="623.85" y1="640.89" x2="745.74" y2="640.89" xlink:href="#e"/>
    <linearGradient id="g" x1="881.5" y1="719.22" x2="1019.5" y2="719.22" xlink:href="#e"/>
    <linearGradient id="h" x1="881.5" y1="632.22" x2="1024" y2="632.22" xlink:href="#e"/>
    <linearGradient id="i" x1="644.52" y1="505.37" x2="718.52" y2="505.37" gradientTransform="translate(28.85 -36.75) rotate(3.16)" xlink:href="#e"/>
    <linearGradient id="j" x1="786.07" y1="571.37" x2="828.97" y2="571.37" gradientTransform="translate(51.85 -67) rotate(4.91)" xlink:href="#e"/>
    <linearGradient id="k" x1="786.07" y1="657.37" x2="828.97" y2="657.37" gradientTransform="translate(59.21 -66.69) rotate(4.91)" xlink:href="#e"/>
    <linearGradient id="l" x1="419.2" y1="942.6" x2="643.93" y2="942.6" xlink:href="#e"/>
  </defs>
  <g id="a" data-name="Layer 2"/>
  <g id="b" data-name="Layer 3"/>
  <g id="c" data-name="Layer 5"/>
  <g id="d" data-name="Layer 4">
    <g>
      <path class="x" d="M1128.88,914.41l-371.73-174.11c-14.34-6.72-30.98-7.17-45.66-1.24l-170.57,68.89c-4.62,1.87-7.65,6.12-7.9,11.1-.13,2.67,.55,5.2,1.89,7.34l.32,6.17c-.05,.77,0,1.55,.12,2.32v.23h.04c.54,3.21,2.43,6.22,5.78,7.98l365.01,192.28c13.96,7.36,30.63,7.48,44.7,.34l178.32-90.54c3.34-1.69,4.93-4.96,4.82-8.18h.01l-.43-8.33c.82-1.52,1.27-3.24,1.24-5.06-.06-3.98-2.34-7.5-5.95-9.19Z"/>
      <circle class="x" cx="465.5" cy="443.5" r="12"/>
      <circle class="x" cx="1161" cy="660" r="13"/>
      <path class="x" d="M590.62,501.4c1.53,27.84,19.3,49.5,39.68,48.37,3.03-.17,5.94-.84,8.7-1.93v29.13c-3.75-1.91-7.74-3.68-12-5.26-56.26-20.9-53.12,51-53.12,51l68.41,30.98c4.01,9.62,11.47,17.69,21.2,22.25l21.69,10.19,.02,6.05-52.99-24.92c-2-.94-4.38-.08-5.32,1.92-.94,2-.08,4.38,1.92,5.32l64.45,30.31-.06-14.91,294.16,138.11c3.02,1.42,6.24,2.12,9.45,2.12,4.14,0,8.26-1.17,11.89-3.48,2.26-1.43,4.19-3.23,5.75-5.28l1.32-.81c1.22-.59,2.39-1.31,3.47-2.12l.06-.04h0c4.89-3.71,8.2-9.56,8.2-16.49v-14.18l28.89,13.31c5.34,2.53,11.49-1.4,11.45-7.31l-.3-38.11c-.02-3.12-1.86-5.94-4.7-7.24l-35.34-15.66v-35.56l28.89,12.87c5.34,2.53,11.49-1.4,11.45-7.31l-.3-38.11c-.02-3.12-1.86-5.94-4.7-7.24l-35.34-15.12v-63.55c0-13.57-8.11-25.82-20.61-31.12l-322.33-136.65c-7.69-3.26-15.77-2.28-22.13,1.53h0l-2.57,1.54c-3.24,.66-6.37,1.92-9.21,3.81-7.29,4.83-11.65,12.93-11.65,21.68v12.48c-4.47-2.2-9.28-3.29-14.26-3.02-20.38,1.12-35.65,24.6-34.12,52.44Z"/>
      <path class="x" d="M532.5,494.37c2.21,0,4-1.79,4-4v-46.04l54.54,21.42c2.05,.81,4.38-.2,5.19-2.26,.81-2.06-.2-4.38-2.26-5.19l-65.46-25.72v57.78c0,2.21,1.79,4,4,4Z"/>
      <path class="x" d="M579,651c1.5,0,2.94-.85,3.62-2.29,.94-2,.09-4.38-1.91-5.33l-44.21-20.92v-43.14c0-2.21-1.79-4-4-4s-4,1.79-4,4v48.21l48.79,23.08c.55,.26,1.13,.39,1.71,.39Z"/>
      <circle class="x" cx="1004" cy="296" r="15"/>
      <circle class="x" cx="652" cy="278" r="15"/>
      <circle class="x" cx="845" cy="379" r="11"/>
      <path class="x" d="M1063.2,508.19c1.98,0,3.82-1.06,4.81-2.78,.99-1.72,.99-3.83,0-5.55s-2.82-2.78-4.81-2.78-3.81,1.06-4.81,2.78c-.99,1.72-.99,3.83,0,5.55,.99,1.72,2.82,2.78,4.81,2.78Z"/>
      <path class="x" d="M1072.72,402.35c-1.04,1.04-1.63,2.45-1.63,3.92h0c0,1.47,.58,2.88,1.63,3.93s2.45,1.63,3.93,1.63,2.88-.58,3.93-1.63c1.04-1.04,1.63-2.45,1.63-3.93s-.58-2.88-1.63-3.92c-1.04-1.04-2.45-1.63-3.93-1.63-1.47,0-2.88,.59-3.92,1.63Z"/>
    </g>
    <path class="af" d="M1219,905.5c-11.93,0-23.28,.32-33.6,.88,1.21-5.42-.87-11.58-7.12-14.52l-274.06-128.99h-118.98l-17.75-8.37-87.63-.56-21.37,8.92,293.68,135.79c14.04,6.49,29.33,9.86,44.8,9.86h101.52l19.48,8h15.52c0,6.08,38.28,11,85.5,11s85.5-4.92,85.5-11-38.28-11-85.5-11Z"/>
    <g>
      <path class="x" d="M1174,432.19v29.97c-.02,17.37-6.93,34.02-19.21,46.29-12.28,12.28-28.93,19.19-46.29,19.21-10.02,.03-19.91-2.27-28.89-6.72-1.36-.63-2.4-1.78-2.9-3.19-.5-1.41-.41-2.96,.26-4.3,.66-1.34,1.84-2.36,3.26-2.82,1.42-.46,2.97-.33,4.3,.36,7.45,3.69,15.66,5.59,23.98,5.57,14.42-.02,28.25-5.75,38.45-15.95,10.2-10.2,15.94-24.02,15.95-38.45v-29.97c0-13.39-4.95-26.3-13.89-36.26-1.32-1.48-1.76-3.55-1.14-5.43,.62-1.89,2.19-3.3,4.13-3.71,1.94-.41,3.95,.25,5.28,1.72,10.77,12,16.73,27.56,16.73,43.68h0Zm-115.62,51.13c-2.84-6.69-4.29-13.89-4.28-21.15v-29.97c.02-14.42,5.75-28.25,15.95-38.45,10.2-10.2,24.02-15.94,38.45-15.95,8.32-.02,16.53,1.89,23.98,5.57,1.32,.69,2.87,.82,4.29,.36,1.42-.46,2.6-1.48,3.26-2.82,.66-1.34,.75-2.89,.26-4.3-.5-1.41-1.54-2.56-2.9-3.19-8.98-4.45-18.87-6.75-28.89-6.72-17.37,.02-34.02,6.93-46.29,19.21-12.28,12.28-19.19,28.93-19.21,46.29v29.97c-.02,8.75,1.74,17.42,5.16,25.48,.56,1.37,1.65,2.46,3.02,3.03,1.37,.56,2.91,.56,4.28-.02,1.37-.58,2.44-1.68,2.99-3.05,.55-1.38,.53-2.92-.07-4.28h0Zm95.63-21.15v-29.97c-.01-12.07-4.81-23.64-13.35-32.17-8.53-8.53-20.1-13.33-32.17-13.35-6.53-.02-12.99,1.39-18.93,4.13-1.38,.59-2.47,1.71-3.01,3.11s-.49,2.96,.13,4.32c.63,1.36,1.78,2.41,3.19,2.92,1.41,.5,2.97,.41,4.32-.26,4.48-2.06,9.36-3.12,14.29-3.11,9.12,0,17.87,3.64,24.32,10.09,6.45,6.45,10.08,15.2,10.09,24.32v29.97c0,12.3-6.56,23.66-17.21,29.81-10.65,6.15-23.77,6.15-34.42,0-10.65-6.15-17.21-17.51-17.21-29.81v-29.97c0-2.51,.27-5.01,.82-7.46,.34-1.45,.09-2.97-.7-4.23-.79-1.26-2.05-2.15-3.5-2.47-1.45-.32-2.97-.05-4.22,.76-1.25,.81-2.12,2.08-2.42,3.54-.72,3.24-1.08,6.55-1.08,9.87v29.97c0,16.26,8.68,31.29,22.76,39.42,14.08,8.13,31.43,8.13,45.52,0,14.08-8.13,22.76-23.16,22.76-39.42h0Zm-25.53-.38c1.47,0,2.88-.58,3.93-1.63,1.04-1.04,1.63-2.45,1.63-3.92v-24.04c0-9.12-4.87-17.55-12.77-22.11-7.9-4.56-17.63-4.56-25.53,0s-12.77,12.99-12.77,22.11v29.97c0,6.47,2.46,12.71,6.88,17.44s10.47,7.6,16.93,8.04c6.46,.44,12.84-1.6,17.86-5.69,1.18-.92,1.94-2.27,2.1-3.76s-.27-2.97-1.22-4.13c-.94-1.16-2.32-1.88-3.8-2.02-1.49-.13-2.97,.34-4.1,1.31-2.57,2.11-5.8,3.26-9.12,3.24-3.83,0-7.49-1.53-10.2-4.23s-4.23-6.37-4.23-10.2v-29.97c0-5.16,2.75-9.92,7.22-12.5,4.47-2.58,9.97-2.58,14.43,0,4.47,2.58,7.22,7.34,7.22,12.5v24.04c0,1.47,.58,2.88,1.63,3.93,1.04,1.04,2.45,1.62,3.93,1.62h0Zm-25.53-27.09v25.92c0,1.98,1.06,3.81,2.78,4.81,1.72,.99,3.83,.99,5.55,0,1.72-.99,2.78-2.82,2.78-4.81v-25.92c0-1.98-1.06-3.82-2.78-4.81s-3.83-.99-5.55,0-2.78,2.82-2.78,4.81Zm-31.86-28.42c0,1.47,.58,2.88,1.63,3.93s2.45,1.63,3.93,1.63,2.88-.58,3.93-1.63c1.04-1.04,1.63-2.45,1.63-3.93s-.58-2.88-1.63-3.92c-1.04-1.04-2.45-1.63-3.93-1.63-1.47,0-2.88,.59-3.92,1.63-1.04,1.04-1.63,2.45-1.63,3.92h0Zm-7.88,90.81c-1.98,0-3.81,1.06-4.81,2.78-.99,1.72-.99,3.83,0,5.55,.99,1.72,2.82,2.78,4.81,2.78s3.82-1.06,4.81-2.78,.99-3.83,0-5.55c-.99-1.72-2.82-2.78-4.81-2.78Z"/>
      <rect class="ah" x="1012" y="414" width="183" height="81"/>
      <g>
        <path class="ae" d="M535.34,834.89c-.11-.77-.16-1.54-.12-2.32l-.69-13.56,12.03,2.1,166.19-67.12c14.34-5.79,30.45-5.36,44.46,1.2l349.34,163.62,26.77,4.67,.7,13.51h-.01c.11,3.21-1.48,6.48-4.82,8.18l-178.32,90.54c-14.07,7.15-30.74,7.02-44.7-.34l-365.01-192.28c-3.35-1.77-5.24-4.77-5.78-7.98h-.02v-.24Z"/>
        <g>
          <path class="w" d="M1128.24,915.77l-371.73-174.11c-14.01-6.56-30.12-7-44.46-1.2l-170.57,68.89c-8.81,3.56-9.43,15.79-1.02,20.22l365.01,192.28c13.96,7.36,30.63,7.48,44.7,.34l178.32-90.54c6.56-3.33,6.41-12.75-.25-15.87Z"/>
          <path class="x" d="M928.15,1028.95c-8.04,0-16.08-1.93-23.38-5.77l-365.01-192.28c-4.41-2.32-7-6.86-6.74-11.84,.25-4.98,3.28-9.23,7.9-11.1l170.57-68.89c14.68-5.93,31.32-5.48,45.66,1.24l371.73,174.11c3.61,1.69,5.89,5.21,5.95,9.19s-2.1,7.57-5.65,9.38l-178.32,90.54c-7.13,3.62-14.92,5.43-22.71,5.43Zm-195.26-291.03c-6.89,0-13.79,1.31-20.28,3.93l-170.57,68.89c-3.53,1.42-5.84,4.67-6.03,8.47-.19,3.8,1.78,7.26,5.15,9.03l365.01,192.28c13.51,7.12,29.71,7.24,43.33,.33l178.32-90.54c2.56-1.3,4.06-3.79,4.01-6.66-.05-2.87-1.62-5.31-4.22-6.52l-371.73-174.11c-7.25-3.39-15.11-5.1-22.99-5.1Z"/>
        </g>
        <g>
          <ellipse class="ae" cx="1001.72" cy="958.51" rx="25" ry="13.73" transform="translate(-27.94 30.08) rotate(-1.7)"/>
          <path class="x" d="M1000.72,973.75c-14.17,0-25.24-6.2-25.49-14.46h0c-.25-8.53,11.18-15.56,26.04-16,6.91-.2,13.5,1.09,18.52,3.66,5.31,2.71,8.3,6.54,8.42,10.78,.25,8.53-11.18,15.56-26.04,16-.49,.01-.97,.02-1.45,.02Zm-22.49-14.54c.2,6.62,11.11,11.9,23.85,11.52,12.73-.38,23.32-6.29,23.13-12.92-.09-3.09-2.5-6-6.79-8.19-4.58-2.34-10.64-3.52-17.06-3.33-12.73,.38-23.32,6.29-23.13,12.92h0Z"/>
        </g>
        <g>
          <ellipse class="w" cx="1001.58" cy="953.63" rx="25" ry="13.73" transform="translate(-27.8 30.07) rotate(-1.7)"/>
          <path class="x" d="M1000.61,968.87c-6.4,0-12.42-1.29-17.1-3.68-5.31-2.71-8.3-6.54-8.42-10.78h0c-.13-4.24,2.63-8.23,7.77-11.26,4.86-2.86,11.34-4.54,18.27-4.75,14.83-.43,26.69,5.9,26.94,14.43,.25,8.53-11.18,15.56-26.04,16-.47,.01-.95,.02-1.42,.02Zm1.89-27.48c-.43,0-.85,0-1.28,.02-6.43,.19-12.41,1.73-16.83,4.33-4.15,2.44-6.38,5.49-6.29,8.58h0c.09,3.09,2.5,6,6.79,8.19,4.58,2.34,10.64,3.53,17.06,3.33,12.73-.38,23.32-6.29,23.13-12.92-.19-6.4-10.39-11.54-22.57-11.54Z"/>
        </g>
      </g>
      <g>
        <path class="ae" d="M1006.89,547.59l-322.33-136.65c-7.69-3.26-15.77-2.28-22.13,1.53h0l-9.78,5.87,1.69,1.95c-2.41,3.75-3.84,8.25-3.84,13.21v197.89c0,15.93,9.21,30.43,23.63,37.2l323.87,152.05c2.1,.98,4.24,1.58,6.37,1.84l2.87,3.3,8.54-5.22c1.22-.59,2.39-1.31,3.47-2.12l.06-.04h0c4.89-3.71,8.2-9.56,8.2-16.49v-223.2c0-13.57-8.11-25.82-20.61-31.12Z"/>
        <g>
          <path class="w" d="M664.13,674.6l323.87,152.05c13.73,6.45,29.5-3.57,29.5-18.74v-223.2c0-13.57-8.11-25.82-20.61-31.12l-322.33-136.65c-16.16-6.85-34.07,5.01-34.07,22.56v197.89c0,15.93,9.21,30.43,23.63,37.2Z"/>
          <path class="x" d="M996.81,830.13c-3.21,0-6.43-.7-9.45-2.12l-323.87-152.05c-14.88-6.98-24.49-22.12-24.49-38.56v-197.89c0-8.75,4.35-16.85,11.65-21.68,7.29-4.83,16.45-5.67,24.5-2.26l322.33,136.65c13.07,5.54,21.52,18.3,21.52,32.5v223.2c0,7.64-3.85,14.64-10.3,18.74-3.63,2.31-7.75,3.48-11.89,3.48Zm-331.82-413.63c-4.45,0-8.86,1.29-12.69,3.83-6.45,4.27-10.3,11.44-10.3,19.18v197.89c0,15.28,8.94,29.35,22.77,35.84l323.87,152.05c5.98,2.81,12.88,2.37,18.46-1.17,5.58-3.54,8.91-9.6,8.91-16.21v-223.2c0-12.99-7.73-24.67-19.69-29.74l-322.33-136.65c-2.89-1.23-5.95-1.83-8.99-1.83Z"/>
        </g>
      </g>
      <path class="ad" d="M623.88,640.72l121.82,55.17s4.16-79.11-68.7-106.17c-56.26-20.9-53.12,51-53.12,51Z"/>
      <circle class="ae" cx="465.5" cy="443.5" r="12"/>
      <circle class="ae" cx="1161" cy="660" r="13"/>
      <path class="ab" d="M892.84,663.67c-5.31-2.42-11.34,1.46-11.34,7.3v34.46c0,3.1,1.79,5.92,4.59,7.25l133.41,62.83v-54.04l-126.66-57.8Z"/>
      <path class="ac" d="M892.84,576.67c-5.31-2.42-11.34,1.46-11.34,7.3v34.46c0,3.1,1.79,5.92,4.59,7.25l133.41,62.83,4.5-56.5-131.16-55.33Z"/>
      <path class="ai" d="M664.13,674.6l323.87,152.05c13.73,6.45,29.5-3.57,29.5-18.74v-223.2c0-13.57-8.11-25.82-20.61-31.12l-322.33-136.65c-16.16-6.85-34.07,5.01-34.07,22.56v197.89c0,15.93,9.21,30.43,23.63,37.2Z"/>
      <ellipse class="aa" cx="681.52" cy="505.37" rx="36.95" ry="50.48" transform="translate(-26.78 38.28) rotate(-3.16)"/>
      <ellipse class="y" cx="807.52" cy="571.37" rx="21.38" ry="29.2" transform="translate(-45.93 71.19) rotate(-4.91)"/>
      <ellipse class="a`" cx="807.52" cy="657.37" rx="21.38" ry="29.2" transform="translate(-53.29 71.51) rotate(-4.91)"/>
      <ellipse class="x" cx="792.52" cy="570.37" rx="21.38" ry="29.2" transform="translate(-45.9 69.91) rotate(-4.91)"/>
      <ellipse class="x" cx="792.52" cy="656.37" rx="21.38" ry="29.2" transform="translate(-53.26 70.22) rotate(-4.91)"/>
      <path class="x" d="M853.5,667.96v34.46c0,3.1,1.79,5.92,4.59,7.25l198.3,91.36c5.34,2.53,11.49-1.4,11.45-7.31l-.3-38.11c-.02-3.12-1.86-5.94-4.7-7.24l-198-87.71c-5.31-2.42-11.34,1.46-11.34,7.3Z"/>
      <path class="x" d="M853.5,579.96v34.46c0,3.1,1.79,5.92,4.59,7.25l198.3,88.36c5.34,2.53,11.49-1.4,11.45-7.31l-.3-38.11c-.02-3.12-1.86-5.94-4.7-7.24l-198-84.71c-5.31-2.42-11.34,1.46-11.34,7.3Z"/>
      <path class="ai" d="M664.13,674.6l323.87,152.05c13.73,6.45,29.5-3.57,29.5-18.74v-223.2c0-13.57-8.11-25.82-20.61-31.12l-322.33-136.65c-16.16-6.85-34.07,5.01-34.07,22.56v197.89c0,15.93,9.21,30.43,23.63,37.2Z"/>
      <path class="ae" d="M573.88,622.72l121.82,55.17s4.16-79.11-68.7-106.17c-56.26-20.9-53.12,51-53.12,51Z"/>
      <ellipse class="ae" cx="627.52" cy="499.37" rx="36.95" ry="50.48" transform="translate(-26.54 35.3) rotate(-3.16)"/>
      <path class="x" d="M532.5,494.37c-2.21,0-4-1.79-4-4v-57.78l65.46,25.72c2.06,.81,3.07,3.13,2.26,5.19-.81,2.06-3.13,3.07-5.19,2.26l-54.54-21.42v46.04c0,2.21-1.79,4-4,4Z"/>
      <path class="x" d="M689.24,548.8c-2.21,0-4-1.79-4-4v-44.5l-52.15-19.58c-2.07-.78-3.12-3.08-2.34-5.15,.78-2.07,3.08-3.11,5.15-2.34l57.33,21.53v50.04c0,2.21-1.79,4-4,4Z"/>
      <path class="x" d="M579,651c-.57,0-1.16-.12-1.71-.39l-48.79-23.08v-48.21c0-2.21,1.79-4,4-4s4,1.79,4,4v43.14l44.21,20.92c2,.94,2.85,3.33,1.91,5.33-.68,1.44-2.12,2.29-3.62,2.29Z"/>
      <path class="x" d="M693.27,704.81l-64.45-30.31c-2-.94-2.86-3.32-1.92-5.32,.94-2,3.32-2.86,5.32-1.92l52.99,24.92-.21-51.67c0-2.21,1.77-4.01,3.98-4.02h.02c2.2,0,3.99,1.78,4,3.98l.27,64.33Z"/>
      <circle class="ae" cx="1004" cy="296" r="15"/>
      <circle class="ae" cx="652" cy="278" r="15"/>
      <circle class="ae" cx="845" cy="379" r="11"/>
      <path class="ah" d="M356.62,843.08l61.53-67.18c6.16-6.72,17.06-5.62,21.74,2.21l55.53,92.81c3.03,5.07,2.45,11.51-1.43,15.96l-57.62,65.96c-5.95,6.81-16.76,6.04-21.69-1.55l-59.44-91.59c-3.38-5.21-2.81-12.04,1.38-16.62Z"/>
      <path class="ae" d="M353.43,898.16l.19-2.06c.68-7.48,7.3-12.98,14.77-12.3l43.47,3.97c6.78,.62,12.98-3.88,14.49-10.52l25.9-113.76c1.51-6.64,7.71-11.14,14.49-10.52h0c8.19,.75,13.85,8.54,12.01,16.56l-31.76,138.99c-1.52,6.64-7.71,11.13-14.49,10.51l-66.78-6.1c-7.48-.68-12.98-7.3-12.3-14.77Z"/>
      <path class="x" d="M1174,432.19v29.97c-.02,17.37-6.93,34.02-19.21,46.29-12.28,12.28-28.93,19.19-46.29,19.21-10.02,.03-19.91-2.27-28.89-6.72-1.36-.63-2.4-1.78-2.9-3.19-.5-1.41-.41-2.96,.26-4.3,.66-1.34,1.84-2.36,3.26-2.82,1.42-.46,2.97-.33,4.3,.36,7.45,3.69,15.66,5.59,23.98,5.57,14.42-.02,28.25-5.75,38.45-15.95,10.2-10.2,15.94-24.02,15.95-38.45v-29.97c0-13.39-4.95-26.3-13.89-36.26-1.32-1.48-1.76-3.55-1.14-5.43,.62-1.89,2.19-3.3,4.13-3.71,1.94-.41,3.95,.25,5.28,1.72,10.77,12,16.73,27.56,16.73,43.68h0Zm-115.62,51.13c-2.84-6.69-4.29-13.89-4.28-21.15v-29.97c.02-14.42,5.75-28.25,15.95-38.45,10.2-10.2,24.02-15.94,38.45-15.95,8.32-.02,16.53,1.89,23.98,5.57,1.32,.69,2.87,.82,4.29,.36,1.42-.46,2.6-1.48,3.26-2.82,.66-1.34,.75-2.89,.26-4.3-.5-1.41-1.54-2.56-2.9-3.19-8.98-4.45-18.87-6.75-28.89-6.72-17.37,.02-34.02,6.93-46.29,19.21-12.28,12.28-19.19,28.93-19.21,46.29v29.97c-.02,8.75,1.74,17.42,5.16,25.48,.56,1.37,1.65,2.46,3.02,3.03,1.37,.56,2.91,.56,4.28-.02,1.37-.58,2.44-1.68,2.99-3.05,.55-1.38,.53-2.92-.07-4.28h0Zm95.63-21.15v-29.97c-.01-12.07-4.81-23.64-13.35-32.17-8.53-8.53-20.1-13.33-32.17-13.35-6.53-.02-12.99,1.39-18.93,4.13-1.38,.59-2.47,1.71-3.01,3.11s-.49,2.96,.13,4.32c.63,1.36,1.78,2.41,3.19,2.92,1.41,.5,2.97,.41,4.32-.26,4.48-2.06,9.36-3.12,14.29-3.11,9.12,0,17.87,3.64,24.32,10.09,6.45,6.45,10.08,15.2,10.09,24.32v29.97c0,12.3-6.56,23.66-17.21,29.81-10.65,6.15-23.77,6.15-34.42,0-10.65-6.15-17.21-17.51-17.21-29.81v-29.97c0-2.51,.27-5.01,.82-7.46,.34-1.45,.09-2.97-.7-4.23-.79-1.26-2.05-2.15-3.5-2.47-1.45-.32-2.97-.05-4.22,.76-1.25,.81-2.12,2.08-2.42,3.54-.72,3.24-1.08,6.55-1.08,9.87v29.97c0,16.26,8.68,31.29,22.76,39.42,14.08,8.13,31.43,8.13,45.52,0,14.08-8.13,22.76-23.16,22.76-39.42h0Zm-25.53-.38c1.47,0,2.88-.58,3.93-1.63,1.04-1.04,1.63-2.45,1.63-3.92v-24.04c0-9.12-4.87-17.55-12.77-22.11-7.9-4.56-17.63-4.56-25.53,0s-12.77,12.99-12.77,22.11v29.97c0,6.47,2.46,12.71,6.88,17.44s10.47,7.6,16.93,8.04c6.46,.44,12.84-1.6,17.86-5.69,1.18-.92,1.94-2.27,2.1-3.76s-.27-2.97-1.22-4.13c-.94-1.16-2.32-1.88-3.8-2.02-1.49-.13-2.97,.34-4.1,1.31-2.57,2.11-5.8,3.26-9.12,3.24-3.83,0-7.49-1.53-10.2-4.23s-4.23-6.37-4.23-10.2v-29.97c0-5.16,2.75-9.92,7.22-12.5,4.47-2.58,9.97-2.58,14.43,0,4.47,2.58,7.22,7.34,7.22,12.5v24.04c0,1.47,.58,2.88,1.63,3.93,1.04,1.04,2.45,1.62,3.93,1.62h0Zm-25.53-27.09v25.92c0,1.98,1.06,3.81,2.78,4.81,1.72,.99,3.83,.99,5.55,0,1.72-.99,2.78-2.82,2.78-4.81v-25.92c0-1.98-1.06-3.82-2.78-4.81s-3.83-.99-5.55,0-2.78,2.82-2.78,4.81Zm-31.86-28.42c0,1.47,.58,2.88,1.63,3.93s2.45,1.63,3.93,1.63,2.88-.58,3.93-1.63c1.04-1.04,1.63-2.45,1.63-3.93s-.58-2.88-1.63-3.92c-1.04-1.04-2.45-1.63-3.93-1.63-1.47,0-2.88,.59-3.92,1.63-1.04,1.04-1.63,2.45-1.63,3.92h0Zm-7.88,90.81c-1.98,0-3.81,1.06-4.81,2.78-.99,1.72-.99,3.83,0,5.55,.99,1.72,2.82,2.78,4.81,2.78s3.82-1.06,4.81-2.78,.99-3.83,0-5.55c-.99-1.72-2.82-2.78-4.81-2.78Z"/>
    </g>
    <path class="ag" d="M419.2,961.5h130.79c8.01,0,15.97-1.43,23.48-4.22l68.52-25.46c3.06-1.14,2.3-5.66-.97-5.74l-106.23-2.37c-8.5-.19-16.96,1.23-24.93,4.18l-90.68,33.6Z"/>
  </g>
  <g id="m" data-name="Layer 6"/>
  <g id="n" data-name="Layer 7"/>
  <g id="o" data-name="Layer 8"/>
  <g id="p" data-name="Layer 10"/>
  <g id="q" data-name="Layer 11"/>
  <g id="r" data-name="Layer 12"/>
  <g id="s" data-name="Layer 13"/>
  <g id="t" data-name="Layer 14"/>
  <g id="u" data-name="Layer 15"/>
  <g id="v" data-name="Layer 16"/>
</svg>