<?xml version="1.0" encoding="UTF-8"?>
<svg xmlns="http://www.w3.org/2000/svg" width="1600" height="1200" xmlns:xlink="http://www.w3.org/1999/xlink" viewBox="0 0 1600 1200">
  <defs>
    <style>
      .u {
        fill: #021c4f;
      }

      .v {
        fill: #fff;
      }

      .w, .x {
        fill: #112e72;
      }

      .y {
        fill: url(#g);
      }

      .y, .a`, .aa, .ab {
        opacity: .69;
      }

      .ac {
        fill: #174bc5;
      }

      .ad {
        fill: #072968;
      }

      .ae, .aa {
        fill: #4885ff;
      }

      .af {
        fill: #64b2ff;
      }

      .a` {
        fill: url(#h);
      }

      .ag {
        fill: #001d56;
      }

      .ah {
        fill: none;
      }

      .ai {
        clip-path: url(#j);
      }

      .x {
        stroke: #174bc5;
        stroke-miterlimit: 10;
        stroke-width: 2px;
      }

      .aj {
        clip-path: url(#i);
      }

      .ab {
        fill: url(#f);
      }

      .ak {
        clip-path: url(#k);
      }
    </style>
    <linearGradient id="f" x1="790.94" y1="612.1" x2="787.79" y2="837.7" gradientTransform="matrix(1, 0, 0, 1, 0, 0)" gradientUnits="userSpaceOnUse">
      <stop offset="0" stop-color="#174bc5"/>
      <stop offset=".04" stop-color="#174bc5" stop-opacity=".95"/>
      <stop offset=".3" stop-color="#174bc5" stop-opacity=".62"/>
      <stop offset=".53" stop-color="#174bc5" stop-opacity=".35"/>
      <stop offset=".73" stop-color="#174bc5" stop-opacity=".16"/>
      <stop offset=".9" stop-color="#174bc5" stop-opacity=".04"/>
      <stop offset="1" stop-color="#174bc5" stop-opacity="0"/>
    </linearGradient>
    <linearGradient id="g" x1="311.11" y1="-51.05" x2="233.86" y2="209.68" gradientTransform="translate(909.45 774.08) rotate(171.15) scale(1 -1)" gradientUnits="userSpaceOnUse">
      <stop offset="0" stop-color="#174bc5"/>
      <stop offset=".08" stop-color="#174bc5" stop-opacity=".85"/>
      <stop offset=".28" stop-color="#174bc5" stop-opacity=".49"/>
      <stop offset=".44" stop-color="#174bc5" stop-opacity=".22"/>
      <stop offset=".57" stop-color="#174bc5" stop-opacity=".06"/>
      <stop offset=".64" stop-color="#174bc5" stop-opacity="0"/>
    </linearGradient>
    <linearGradient id="h" x1="631.98" y1="783.67" x2="631.98" y2="973.41" gradientTransform="translate(1553.63) rotate(-180) scale(1 -1)" xlink:href="#f"/>
    <clipPath id="i">
      <path class="ah" d="M851.64,266.04c-29.71-56.4-61.68-83.54-61.68-83.54h-.48s-32.02,27.17-61.75,83.66c4.57,4.32,19.78,14.63,61.05,14.63s57.97-10.51,62.86-14.76Z"/>
    </clipPath>
    <clipPath id="j">
      <path class="ah" d="M855.97,274.52c-.16,.22-11.32,15.34-66.27,15.34s-66.08-15.12-66.24-15.34c-26.4,53.2-49.62,130.06-44.9,232.16l.22-.07s32.82,19.77,110.94,19.77,110.85-19.58,111.15-19.76c4.71-102.07-18.51-178.91-44.9-232.1Z"/>
    </clipPath>
    <clipPath id="k">
      <path class="ah" d="M785.76,538.61c-88.66,0-106.82-19.89-106.98-20.07,2.88,53.57,13.43,113.99,35.18,181.48,0,0,13.64,15.93,75.51,15.93s75.99-15.93,75.99-15.93c21.67-67.25,32.22-127.48,35.15-180.9-5.22,3.3-34.88,19.48-114.85,19.48Z"/>
    </clipPath>
  </defs>
  <g id="a" data-name="Layer 2"/>
  <g id="b" data-name="Layer 3"/>
  <g id="c" data-name="Layer 5"/>
  <g id="d" data-name="Layer 4"/>
  <g id="e" data-name="Layer 6">
    <polygon class="ab" points="747.38 662.75 747.38 848.5 830.49 848.5 830.49 643.66 747.38 662.75"/>
    <path class="y" d="M902.11,830.45c-20.35-33.73-46.93-29.28-69.99-20.52-2.77-19.68-19.91-2.8-20.09-2.83,.84-49.42-86.07-35.98-79.65,3.75-.58-.33-1.15-.64-1.72-.95-3.74-6.42-22.47-35.05-49.93-18.42-5.94-47.33-54.68-22.92-57.91-6.62-21.54-19.83-48.67-9.67-57.97,9.87-36.43-58.01-76.58-7.13-68.77,6.26-98.15-.39-60.75,88.1-60.75,88.1,0,0-20.27,8.65-4.15,21.95-27.7,12.06-10.65,58.11,16.32,49.75-13.03,15.32-38.77,46.77,3.15,82.67,41.91,35.9,89.92-65.8,89.92-65.8,0,0,269.23-107.43,307.04-89.76,37.81,17.67,74.85-23.73,54.49-57.46Z"/>
    <g>
      <path class="ad" d="M1077.05,912.31c.11-.75,.16-1.51,.12-2.26l.68-13.23-11.74,2.05-162.23-65.53c-14-5.66-29.73-5.23-43.4,1.18l-341.02,159.72-26.14,4.56-.68,13.19h.01c-.11,3.14,1.45,6.33,4.7,7.98l174.07,88.39c13.74,6.98,30.01,6.85,43.64-.33l356.32-187.7c3.27-1.72,5.12-4.66,5.64-7.79h.02v-.23Z"/>
      <g>
        <path class="v" d="M498.26,991.26l362.88-169.96c13.68-6.41,29.4-6.83,43.4-1.18l166.51,67.25c8.6,3.47,9.2,15.42,1,19.74l-356.32,187.7c-13.63,7.18-29.9,7.3-43.64,.33l-174.07-88.39c-6.4-3.25-6.26-12.45,.25-15.5Z"/>
        <path class="ac" d="M671.64,1096.03l-174.07-88.39c-3.31-1.68-5.32-5.03-5.26-8.73,.06-3.71,2.18-6.99,5.54-8.56l362.88-169.96c13.88-6.5,29.99-6.94,44.2-1.2l166.51,67.25c4.34,1.75,7.19,5.75,7.42,10.43,.24,4.68-2.19,8.94-6.34,11.12l-356.32,187.7c-7.06,3.72-14.83,5.58-22.6,5.58-7.53,0-15.06-1.75-21.95-5.25Zm189.93-273.83l-362.88,169.96c-2.7,1.26-4.34,3.8-4.39,6.78-.05,2.98,1.51,5.57,4.17,6.92l174.07,88.39c13.43,6.82,29.4,6.7,42.72-.32l356.32-187.7c3.45-1.82,5.47-5.36,5.27-9.25-.2-3.89-2.56-7.21-6.18-8.67l-166.51-67.25c-6.39-2.58-13.18-3.87-19.97-3.87-7.75,0-15.5,1.68-22.64,5.02Z"/>
      </g>
      <g>
        <ellipse class="ad" cx="621.77" cy="1032.98" rx="13.4" ry="24.4" transform="translate(-429.16 1623.9) rotate(-88.3)"/>
        <path class="ac" d="M621.35,1047.37c-6.68-.2-12.94-1.82-17.61-4.57-4.86-2.86-7.47-6.62-7.36-10.57,.12-3.96,2.95-7.55,7.97-10.12,4.83-2.47,11.17-3.7,17.85-3.52,14.24,.42,25.21,7.08,24.97,15.14h0c-.12,3.96-2.95,7.55-7.97,10.12-4.5,2.3-10.3,3.54-16.48,3.54-.46,0-.91,0-1.37-.02Zm23.82-13.7c.2-6.83-10.13-12.7-23.03-13.09-6.35-.2-12.34,.98-16.88,3.3-4.34,2.22-6.79,5.2-6.88,8.4-.09,3.2,2.17,6.32,6.37,8.79,4.39,2.58,10.31,4.11,16.66,4.29,6.35,.2,12.35-.98,16.88-3.3,4.34-2.22,6.79-5.2,6.88-8.4h0Z"/>
      </g>
      <g>
        <ellipse class="v" cx="621.92" cy="1028.22" rx="13.4" ry="24.4" transform="translate(-424.27 1619.42) rotate(-88.3)"/>
        <path class="ac" d="M621.49,1042.61c-6.68-.2-12.94-1.82-17.61-4.57-4.86-2.86-7.47-6.62-7.36-10.57,.12-3.96,2.95-7.55,7.97-10.12,4.83-2.47,11.17-3.7,17.85-3.52,14.24,.42,25.21,7.08,24.97,15.14-.12,3.96-2.95,7.55-7.97,10.12-4.5,2.3-10.3,3.54-16.48,3.54-.46,0-.91,0-1.37-.02Zm-16.09-23.48c-4.34,2.22-6.79,5.2-6.88,8.4-.09,3.2,2.17,6.32,6.37,8.79,4.39,2.58,10.31,4.11,16.66,4.29,6.35,.2,12.35-.99,16.88-3.3,4.34-2.22,6.79-5.2,6.88-8.4h0c.2-6.83-10.13-12.7-23.03-13.09-.44-.01-.88-.02-1.32-.02-5.86,0-11.34,1.17-15.56,3.32Z"/>
      </g>
    </g>
    <path class="a`" d="M668.41,977.3c7.05-38.76,33.47-44.04,58.14-44.04-4.4-19.38,17.62-9.69,17.77-9.78-18.34-45.9,67.67-64.21,75.79-24.79,.42-.51,.85-1,1.27-1.49,1.22-7.33,8.55-40.74,40.13-34.95-11.26-46.35,42.97-40.85,51.78-26.76,13.09-26.18,42.06-26.33,57.69-11.37,13.45-67.17,69.05-33.87,66.51-18.58,91.61-35.23,88.08,60.78,88.08,60.78,0,0,22.02,.88,11.68,19.05,30.18,1.43,30.6,50.54,2.41,52.3,17.62,9.69,52.85,29.95,26.43,78.39-26.43,48.45-107.42-29.57-107.42-29.57,0,0-289.83-4.79-318.9,25.16-29.07,29.95-78.39,4.4-71.35-34.35Z"/>
    <path class="ac" d="M589.13,441.65l-32.27,12.49-12.55-33.13c-2-5.29-7.91-7.95-13.2-5.95-5.29,2-7.95,7.91-5.95,13.2l12.6,33.26-31.64,12.24c-5.27,2.04-7.89,7.97-5.85,13.24,2.04,5.27,7.97,7.89,13.24,5.85l31.51-12.19,14.09,37.19c2,5.29,7.91,7.95,13.2,5.95,1.08-.41,2.06-.99,2.9-1.69,3.28-2.71,4.64-7.31,3.04-11.51l-14.14-37.32,32.4-12.54c1.06-.41,2.01-.97,2.84-1.66,3.3-2.73,4.65-7.37,3.02-11.58-2.04-5.27-7.97-7.89-13.24-5.85Z"/>
    <circle class="v" cx="985.02" cy="263.59" r="7.91"/>
    <path class="aa" d="M623.06,353.59l-29.58-41.6v-44.38c0-7.66-6.21-13.87-13.86-13.87h-84.63c-7.66,0-13.86,6.21-13.86,13.87v72.11c0,7.66,6.21,13.87,13.86,13.87h128.07Z"/>
    <circle class="ad" cx="426.5" cy="529.5" r="11"/>
    <circle class="ad" cx="1147" cy="747" r="11"/>
    <circle class="ad" cx="977.5" cy="327.5" r="11"/>
    <path class="ac" d="M1074.74,689.59l-24.68-8.24,8.61-25.21c1.37-4.02-.77-8.4-4.8-9.77-4.02-1.37-8.4,.77-9.77,4.8l-8.65,25.32-24.2-8.08c-4.03-1.34-8.39,.83-9.74,4.87s.83,8.39,4.86,9.74l24.1,8.04-9.67,28.3c-1.37,4.02,.77,8.4,4.8,9.77,.83,.28,1.66,.42,2.49,.42,3.2,0,6.19-2.01,7.28-5.21l9.7-28.41,24.79,8.27c.81,.27,1.63,.4,2.44,.4,3.22,0,6.23-2.04,7.3-5.26,1.35-4.03-.83-8.39-4.86-9.74Z"/>
    <g>
      <path class="w" d="M1129.48,441.03h0l-6.02-8.44-1.4,1.14c-19.41-13.66-54.45-6.63-82.85,17.91-26.5,22.9-38.76,53.74-31.59,74.97l-1.11,.9,5.59,7.83c.06,.09,.12,.17,.19,.26l.04,.06h0c.46,.61,.94,1.22,1.44,1.81,17.45,20.19,57.12,14.5,88.62-12.71,30.44-26.3,42.09-63.07,27.1-83.73Z"/>
      <ellipse class="af" cx="1064.91" cy="479.96" rx="75.37" ry="48.32" transform="translate(-54.68 813.01) rotate(-40.83)"/>
      <path class="w" d="M1068.37,498.95c9.36-11.93,4.41-21.73,1.13-28.2-2.25-4.45-3.54-7.31-2.43-9.36,1.11-2.06,3.54-3.9,6.2-4.7,1.17-.35,4.09-.98,5.95,.73,2.2,2.02-.41,6.23-.72,6.7l.05-.07,11.12,6.33c3.06-4.54,6.89-14.03,2.73-21.26l4.11-4.49-7.79-7.14-4.72,5.15c-3.55-1.06-7.68-.98-12,.32-7.2,2.16-13.56,7.28-17.02,13.7-5.04,9.36-1.16,17.02,1.67,22.62,3.39,6.71,3.95,8.99,1.4,12.24-2.49,3.18-4.89,5.09-6.76,5.38-2.07,.32-3.9-1.32-4.8-2.32-2.59-2.88,.58-9.53,.58-9.54l-12.27-4.39c-2.59,5.08-5.4,14.77-1.52,22l-5.32,5.8,8.31,7.62,5.47-5.97c2.74,1.12,5.72,1.48,8.8,1,4.32-.68,10.91-3.34,17.82-12.15Z"/>
      <path class="w" d="M1037.37,532.12c-8.39,0-15.73-2.55-21.06-7.89-15.62-15.62-7.37-48.34,18.78-74.49,26.15-26.15,58.87-34.4,74.49-18.78,15.62,15.62,7.37,48.34-18.78,74.49-17.21,17.21-37.27,26.67-53.43,26.67Zm51.19-103.09c-14.51,0-33.33,8.99-49.27,24.92-23.4,23.4-31.82,53.04-18.78,66.08,13.04,13.04,42.69,4.61,66.08-18.78,23.4-23.4,31.82-53.04,18.78-66.08-4.16-4.16-10.02-6.14-16.82-6.14Z"/>
    </g>
    <circle class="ac" cx="512.35" cy="295.65" r="13.8"/>
    <g>
      <g>
        <polygon class="ac" points="753 521.11 646.34 569.11 639.75 738 650.38 738.03 716.47 616.78 753 521.11"/>
        <path class="ag" d="M723.46,274.52s9.53-7.22,66.24-7.22,66.27,7.22,66.27,7.22l-6.85,37.85s-116.39,38.65-116.39,34.58-9.26-72.43-9.26-72.43Z"/>
        <path class="ag" d="M678.79,518.54s12.99-10.54,110.92-10.54,110.92,11.13,110.92,11.13l-34.33,27.64s-147.22,4.81-149.35,4.81-38.15-33.04-38.15-33.04Z"/>
        <path class="w" d="M785.76,538.61c-88.66,0-106.82-19.89-106.98-20.07,2.88,53.57,13.43,113.99,35.18,181.48,0,0,13.64,15.93,75.51,15.93s75.99-15.93,75.99-15.93c21.67-67.25,32.22-127.48,35.15-180.9-5.22,3.3-34.88,19.48-114.85,19.48Z"/>
        <path class="ah" d="M788.78,280.79c-41.27,0-56.49-10.31-61.05-14.63-28.09,53.38-54.14,132.95-49.16,240.52l.22-.07s32.82,19.77,110.94,19.77,110.85-19.58,111.15-19.76c4.97-107.63-21.12-187.21-49.23-240.58-4.89,4.25-21.19,14.76-62.86,14.76Z"/>
        <path class="ac" d="M855.97,274.52c-.16,.22-11.32,15.34-66.27,15.34s-66.08-15.12-66.24-15.34c-26.4,53.2-49.62,130.06-44.9,232.16l.22-.07s32.82,19.77,110.94,19.77,110.85-19.58,111.15-19.76c4.71-102.07-18.51-178.91-44.9-232.1Z"/>
        <g>
          <path class="ae" d="M851.64,266.04c-29.71-56.4-61.68-83.54-61.68-83.54h-.48s-32.02,27.17-61.75,83.66c4.57,4.32,19.78,14.63,61.05,14.63s57.97-10.51,62.86-14.76Z"/>
          <g class="aj">
            <path class="ac" d="M789.96,182.5c24.54,44,107.17,240.85,36.86,530.92-70.31,290.08,273.1,114.97,273.1,114.97,0,0-44.03-686.85-43.22-688.87,.81-2.02-266.73,42.98-266.73,42.98Z"/>
          </g>
        </g>
        <g class="ai">
          <path class="w" d="M789.96,182.5c24.54,44,107.17,240.85,36.86,530.92-70.31,290.08,273.1,114.97,273.1,114.97,0,0-44.03-686.85-43.22-688.87,.81-2.02-266.73,42.98-266.73,42.98Z"/>
        </g>
        <g class="ak">
          <path class="u" d="M789.96,182.5c24.54,44,107.17,240.85,36.86,530.92-70.31,290.08,273.1,114.97,273.1,114.97,0,0-44.03-686.85-43.22-688.87,.81-2.02-266.73,42.98-266.73,42.98Z"/>
        </g>
        <polygon class="w" points="965.5 797.74 923.46 585.25 836.6 538.61 827 541.81 836.56 561.04 836.42 650.2 875.01 671.01 951.52 797.38 954.16 797.45 955.9 800.95 965.5 797.74"/>
        <polygon class="ae" points="827 541.81 913.86 588.46 955.9 800.95 941.91 800.59 865.41 674.22 826.81 653.41 827 541.81"/>
      </g>
      <ellipse class="x" cx="748.97" cy="447.48" rx="31.13" ry="47.3"/>
      <ellipse class="af" cx="743.55" cy="447.48" rx="31.13" ry="47.3"/>
      <ellipse class="w" cx="743.18" cy="447.48" rx="23.38" ry="36.11"/>
      <ellipse class="v" cx="745.21" cy="447.48" rx="21.35" ry="36.11"/>
    </g>
    <path class="ac" d="M619.89,290.39h-63.42c-1.99,0-3.61-1.94-3.61-4.33s1.61-4.33,3.61-4.33h63.42c1.99,0,3.61,1.94,3.61,4.33s-1.61,4.33-3.61,4.33Z"/>
    <path class="ac" d="M619.89,308.39h-63.42c-1.99,0-3.61-1.94-3.61-4.33s1.61-4.33,3.61-4.33h63.42c1.99,0,3.61,1.94,3.61,4.33s-1.61,4.33-3.61,4.33Z"/>
    <g>
      <path class="w" d="M582.25,769.06c-20.46-39.54-57.34-61.09-82.39-48.14-.9,.47-1.77,.99-2.62,1.53l-.27,.16-9.57,6.34,.97,1.74c-14.1,18.51-13.57,52.91,3.18,85.28,18.09,34.97,49.04,55.85,73.27,51.25l1.26,2.25,11.05-7.25v-.02c22.12-14.83,24.66-55.35,5.11-93.15Z"/>
      <ellipse class="af" cx="527.67" cy="798.64" rx="51.05" ry="80.61" transform="translate(-307.98 331.79) rotate(-27.36)"/>
      <path class="w" d="M552.71,801.72c-7.17-13.8-20.67-12.63-29.61-11.85-6.14,.54-9.99,.73-11.52-1.15-1.54-1.88-2.05-4.99-1.3-7.93,.33-1.29,1.42-4.42,4.38-5.62,3.49-1.41,6.44,2.78,6.76,3.26l-.05-.08,13.52-8.61c-3.03-4.76-10.91-12.16-21.19-10.78l-2.33-5.78-12.38,5,2.68,6.63c-3.28,3.11-5.69,7.23-6.91,12.01-2.03,7.95-.37,16.2,4.43,22.06,7.01,8.55,17.59,7.62,25.31,6.95,9.26-.81,12.04-.49,13.99,3.26,1.91,3.68,2.51,6.78,1.7,8.74-.9,2.17-3.77,3.36-5.4,3.87-4.66,1.47-9.89-4.19-9.9-4.2l-12.13,10.48c3.89,4.5,12.61,10.97,22.72,9.87l3.02,7.47,13.21-5.34-3.11-7.69c2.86-2.29,5.05-5.1,6.39-8.33,1.88-4.53,3.01-12.07-2.28-22.26Z"/>
      <path class="w" d="M554.83,863.17c-21.88,7.75-51.82-10.76-68.67-43.33-8.53-16.49-12.52-34.12-11.23-49.65,1.33-15.97,8.06-27.87,18.96-33.51,22.08-11.41,54.53,7.3,72.35,41.73,17.81,34.43,14.35,71.74-7.73,83.16-1.2,.62-2.43,1.15-3.68,1.6Zm-55.43-123.22c-1.06,.38-2.1,.82-3.11,1.35-9.25,4.79-14.99,15.2-16.17,29.32-1.21,14.56,2.58,31.19,10.67,46.83,15.64,30.23,42.8,47.73,62.22,40.85,1.06-.38,2.1-.82,3.11-1.35,19.53-10.1,22-44.26,5.5-76.15-15.64-30.23-42.8-47.73-62.22-40.85Z"/>
    </g>
  </g>
  <g id="l" data-name="Layer 7"/>
  <g id="m" data-name="Layer 8"/>
  <g id="n" data-name="Layer 10"/>
  <g id="o" data-name="Layer 11"/>
  <g id="p" data-name="Layer 12"/>
  <g id="q" data-name="Layer 13"/>
  <g id="r" data-name="Layer 14"/>
  <g id="s" data-name="Layer 15"/>
  <g id="t" data-name="Layer 16"/>
</svg>