<?xml version="1.0" encoding="UTF-8"?>
<svg xmlns="http://www.w3.org/2000/svg" width="1600" height="1200" xmlns:xlink="http://www.w3.org/1999/xlink" viewBox="0 0 1600 1200">
  <defs>
    <style>
      .ae {
        fill: url(#t);
      }

      .af {
        fill: #fff;
      }

      .ag {
        fill: #112e72;
      }

      .ah {
        fill: url(#r);
      }

      .ai {
        fill: #174bc5;
      }

      .aj {
        fill: url(#j);
      }

      .aj, .ak, .al, .am, .an, .ao {
        opacity: .31;
      }

      .ap {
        opacity: .25;
      }

      .ap, .aq {
        fill: #4885ff;
      }

      .ar {
        fill: #072968;
      }

      .al {
        fill: url(#l);
      }

      .as {
        fill: url(#u);
      }

      .at {
        fill: url(#v);
      }

      .au {
        stroke: #fff;
        stroke-linecap: round;
        stroke-miterlimit: 10;
        stroke-width: 6px;
      }

      .au, .av {
        fill: none;
      }

      .am {
        fill: url(#b);
      }

      .aw {
        fill: #64b2ff;
      }

      .ax {
        opacity: .63;
      }

      .an {
        fill: url(#i);
      }

      .ay {
        clip-path: url(#m);
      }

      .aq {
        opacity: .69;
      }

      .ao {
        fill: url(#h);
      }

      .b` {
        clip-path: url(#p);
      }

      .ba {
        fill: url(#s);
      }

      .bb {
        fill: url(#n);
      }

      .bc {
        fill: url(#o);
      }

      .bd {
        fill: url(#q);
      }

      .be {
        clip-path: url(#k);
      }
    </style>
    <linearGradient id="b" x1="551.5" y1="767.25" x2="973.81" y2="767.25" gradientTransform="matrix(1, 0, 0, 1, 0, 0)" gradientUnits="userSpaceOnUse">
      <stop offset="0" stop-color="#072968"/>
      <stop offset=".21" stop-color="#072968" stop-opacity=".96"/>
      <stop offset=".4" stop-color="#082969" stop-opacity=".86"/>
      <stop offset=".59" stop-color="#0a2a6b" stop-opacity=".68"/>
      <stop offset=".77" stop-color="#0c2b6d" stop-opacity=".42"/>
      <stop offset=".95" stop-color="#0f2d70" stop-opacity=".1"/>
      <stop offset="1" stop-color="#112e72" stop-opacity="0"/>
    </linearGradient>
    <linearGradient id="h" x1="457" y1="872.65" x2="704" y2="872.65" xlink:href="#b"/>
    <linearGradient id="i" x1="910.93" y1="877.09" x2="1129.5" y2="877.09" xlink:href="#b"/>
    <linearGradient id="j" x1="1095.24" y1="799.82" x2="1497.89" y2="799.82" xlink:href="#b"/>
    <clipPath id="k">
      <polygon class="av" points="593.9 665.53 1129.5 877.29 1129.5 454.24 593.5 257.79 593.9 665.53"/>
    </clipPath>
    <linearGradient id="l" x1="843.3" y1="596" x2="843.3" y2="876.42" xlink:href="#b"/>
    <clipPath id="m">
      <polygon class="av" points="593.9 665.53 1129.5 877.29 1129.5 454.24 593.5 257.79 593.9 665.53"/>
    </clipPath>
    <linearGradient id="n" x1="1034.5" y1="761.5" x2="1034.5" y2="1016.5" xlink:href="#b"/>
    <linearGradient id="o" x1="970.74" y1="739.14" x2="970.74" y2="861" xlink:href="#b"/>
    <clipPath id="p">
      <polygon class="av" points="593.9 665.53 1129.5 877.29 1129.5 454.24 593.5 257.79 593.9 665.53"/>
    </clipPath>
    <linearGradient id="q" x1="624.5" y1="312.5" x2="624.5" y2="538.5" xlink:href="#b"/>
    <linearGradient id="r" x1="787.5" y1="364.5" x2="787.5" y2="590.5" xlink:href="#b"/>
    <linearGradient id="s" x1="733.5" y1="434.5" x2="733.5" y2="572.5" xlink:href="#b"/>
    <linearGradient id="t" x1="678.5" y1="257.5" x2="678.5" y2="556.5" xlink:href="#b"/>
    <linearGradient id="u" x1="839.5" y1="307.5" x2="839.5" y2="606.5" xlink:href="#b"/>
    <linearGradient id="v" x1="891.5" y1="292.5" x2="891.5" y2="624.5" xlink:href="#b"/>
  </defs>
  <g id="a" data-name="Layer 2">
    <polyline class="am" points="777 813 973.81 808.42 739.5 721.5 551.5 722.5 777 813"/>
  </g>
  <g id="c" data-name="Layer 3"/>
  <g id="d" data-name="Layer 5"/>
  <g id="e" data-name="Layer 4"/>
  <g id="f" data-name="Layer 6"/>
  <g id="g" data-name="Layer 7">
    <path class="ao" d="M497.23,894.86s253.51,2.34,199.13-28.21c-54.38-30.55-239.35-8.64-239.35-8.64l40.23,36.85Z"/>
    <path class="an" d="M1129.5,877.29c-35,40.21-142.13,68.79-218.57,0-.43,.21,35.22-41.95,35.22-41.95l52.83,13.16,24.41-13.16,106.11,41.95Z"/>
    <polygon class="aj" points="1129.5 877.29 1497.89 877.29 1497.89 862 1146.5 722.36 1095.24 848.5 1129.5 877.29"/>
    <circle class="ar" cx="1198" cy="633" r="10.5"/>
    <polygon class="ar" points="613 249 593.5 257.79 610.53 277.47 610.9 654.53 1106.2 850.35 1129.5 877.29 1146.5 866.29 1146.5 443.24 613 249"/>
    <g>
      <polygon class="af" points="593.9 665.53 1129.5 877.29 1129.5 454.24 593.5 257.79 593.9 665.53"/>
      <path class="ai" d="M1130.5,878.76l-1.37-.54-536.23-212.01v-.68l-.4-409.18,538,197.19v425.21Zm-535.6-213.91l533.6,210.97V454.94l-534-195.72,.4,405.63Z"/>
    </g>
    <polygon class="ap" points="1222 507.75 1223 725 841.28 578.5 882.5 533.75 941.07 533.75 992 515 1054 571 1086.63 490.5 1154 530 1183.5 508.07 1222 507.75"/>
    <rect class="ai" x="904.5" y="335.5" width="215" height="85"/>
    <g>
      <polygon class="ar" points="524.5 262.5 524.5 480.5 548.5 488.5 548.5 271.5 524.5 262.5"/>
      <polygon class="ar" points="687.5 314.5 687.5 532.5 711.5 540.5 711.5 323.5 687.5 314.5"/>
      <polygon class="ar" points="633.5 384.5 633.5 514.5 657.5 522.5 657.5 393.5 633.5 384.5"/>
      <polygon class="ar" points="578.5 207.5 578.5 498.5 602.5 506.5 602.5 216.5 578.5 207.5"/>
      <polygon class="ar" points="739.5 257.5 739.5 548.5 763.5 556.5 763.5 266.5 739.5 257.5"/>
      <polygon class="ar" points="791.5 242.5 791.5 566.5 815.5 574.5 815.5 251.5 791.5 242.5"/>
    </g>
    <circle class="ar" cx="774" cy="877" r="10.5"/>
    <circle class="ar" cx="951" cy="278" r="10.5"/>
    <circle class="ar" cx="457.5" cy="575.5" r="10.5"/>
    <path class="ar" d="M1221.75,502c-2.17,0-4.06,1.2-5.03,2.97l-30.03-.16c-1-1.68-2.84-2.81-4.94-2.81-3.18,0-5.75,2.57-5.75,5.75,0,.13,.01,.26,.02,.39l-17.68,17.12c-.98-.79-2.23-1.26-3.59-1.26-1.57,0-3,.63-4.04,1.66l-57.31-34.92c.06-.32,.09-.65,.09-.99,0-3.18-2.57-5.75-5.75-5.75s-5.75,2.57-5.75,5.75c0,1.44,.53,2.74,1.4,3.75l-29.55,72.5s-.07,0-.1,0c-.35,0-.69,.04-1.02,.1l-55.29-49.53c.04-.27,.06-.54,.06-.82,0-3.18-2.57-5.75-5.75-5.75-2.92,0-5.33,2.19-5.7,5.01l-42.05,14c-.93-.64-2.05-1.01-3.25-1.01-2.03,0-3.81,1.06-4.83,2.64h-48.33c-1.02-1.59-2.8-2.64-4.83-2.64-3.18,0-5.75,2.57-5.75,5.75,0,.82,.18,1.61,.49,2.32l-32.88,36.01c-.28-.04-.57-.07-.86-.07-3.18,0-5.75,2.57-5.75,5.75s2.57,5.75,5.75,5.75,5.75-2.57,5.75-5.75c0-1.02-.27-1.98-.74-2.81l32.54-35.63c.46,.12,.95,.19,1.45,.19,2.51,0,4.64-1.61,5.42-3.86h47.15c.78,2.24,2.91,3.86,5.42,3.86,3.18,0,5.75-2.57,5.75-5.75,0-.1,0-.2-.01-.3l41.14-13.7c1.04,1.07,2.5,1.74,4.12,1.74,1.04,0,2.01-.28,2.85-.76l54.03,48.4c-.4,.78-.63,1.67-.63,2.61,0,3.18,2.57,5.75,5.75,5.75s5.75-2.57,5.75-5.75c0-1.31-.44-2.51-1.17-3.47l29.66-72.79c.9-.04,1.75-.27,2.49-.68l58.57,35.69c.37,2.82,2.77,5,5.7,5s5.52-2.36,5.73-5.34l18.15-17.58c.9,.58,1.97,.92,3.12,.92,2.45,0,4.53-1.53,5.36-3.68l29.34,.16c.87,2.07,2.92,3.53,5.3,3.53,3.18,0,5.75-2.57,5.75-5.75s-2.57-5.75-5.75-5.75Z"/>
    <g class="ax">
      <g class="be">
        <polygon class="al" points="731 596 951.5 676.5 956.11 876.42 730.5 790.5 731 596"/>
      </g>
    </g>
    <g class="ax">
      <g class="ay">
        <g class="ak">
          <path class="bb" d="M1034.5,761.5c-9.76,0-19.17,1.98-28.03,5.64l28.03,121.86-87.52-49.67c-4.81,15.26-7.48,32.05-7.48,49.67,0,70.42,42.53,127.5,95,127.5s95-57.08,95-127.5-42.53-127.5-95-127.5Z"/>
          <path class="bc" d="M986.47,739.14c-26.86,11.12-48.64,37.79-59.49,72.19l87.52,49.67-28.03-121.86Z"/>
        </g>
      </g>
    </g>
    <g class="ax">
      <g class="b`">
        <g class="ak">
          <polygon class="bd" points="612.5 312.5 612.5 530.5 636.5 538.5 636.5 321.5 612.5 312.5"/>
          <polygon class="ah" points="775.5 364.5 775.5 582.5 799.5 590.5 799.5 373.5 775.5 364.5"/>
          <polygon class="ba" points="721.5 434.5 721.5 564.5 745.5 572.5 745.5 443.5 721.5 434.5"/>
          <polygon class="ae" points="666.5 257.5 666.5 548.5 690.5 556.5 690.5 266.5 666.5 257.5"/>
          <polygon class="as" points="827.5 307.5 827.5 598.5 851.5 606.5 851.5 316.5 827.5 307.5"/>
          <polygon class="at" points="879.5 292.5 879.5 616.5 903.5 624.5 903.5 301.5 879.5 292.5"/>
        </g>
      </g>
    </g>
    <polygon class="aq" points="551.72 524.14 777.11 603 777 813 551.5 722.5 551.72 524.14"/>
    <g>
      <path class="ag" d="M571.64,847c-20.44-7.27-53.65-12-91.14-12s-70.7,4.73-91.14,12h-21.36v17c0,16.02,50.37,29,112.5,29s112.5-12.98,112.5-29v-17h-21.36Z"/>
      <ellipse class="aw" cx="480.5" cy="847" rx="112.5" ry="29"/>
      <path class="ag" d="M480.5,869c-25.45,0-49.42-2.21-67.47-6.22-19.92-4.43-30.03-10.41-30.03-17.78s10.1-13.35,30.03-17.78c18.06-4.01,42.02-6.22,67.47-6.22s49.42,2.21,67.47,6.22c19.92,4.43,30.03,10.41,30.03,17.78s-10.1,13.35-30.03,17.78c-18.06,4.01-42.02,6.22-67.47,6.22Zm0-42c-25.03,0-48.53,2.16-66.17,6.08-19.99,4.44-25.33,9.58-25.33,11.92s5.33,7.48,25.33,11.92c17.64,3.92,41.14,6.08,66.17,6.08s48.53-2.16,66.17-6.08c19.99-4.44,25.33-9.58,25.33-11.92s-5.33-7.48-25.33-11.92c-17.64-3.92-41.14-6.08-66.17-6.08Z"/>
      <path class="ag" d="M493.75,831.29c-19.24,.82-24.16,8.07-27.42,12.86-2.24,3.3-3.81,5.33-6.68,5.73-2.88,.4-6.7,.02-9.74-.99-1.33-.44-4.44-1.66-4.44-3.44,0-2.11,6.2-2.75,6.9-2.82h-.11l-3.63-8.8c-6.89,.57-19.09,3.1-22.28,8.72h-7.74v7.46h8.89c2.05,2.35,5.68,4.46,10.62,6.09,8.21,2.72,18.48,3.58,27.47,2.32,13.11-1.84,16.97-7.51,19.78-11.66,3.38-4.97,5.04-6.34,10.27-6.57,5.12-.22,8.98,.12,10.86,.95,2.08,.92,2.11,2.65,1.95,3.61-.47,2.72-9.43,4.24-9.45,4.25l6.43,8.47c6.99-1.07,18.5-4.24,21.94-9.7h10.02v-7.96h-10.31c-1.3-1.96-3.53-3.68-6.63-5.05-4.35-1.92-12.51-4.08-26.71-3.48Z"/>
    </g>
    <g>
      <path class="ag" d="M563.64,825c-20.44-7.27-53.65-12-91.14-12s-70.7,4.73-91.14,12h-21.36v17c0,16.02,50.37,29,112.5,29s112.5-12.98,112.5-29v-17h-21.36Z"/>
      <ellipse class="aw" cx="472.5" cy="825" rx="112.5" ry="29"/>
      <path class="ag" d="M472.5,847c-25.45,0-49.42-2.21-67.47-6.22-19.92-4.43-30.03-10.41-30.03-17.78s10.1-13.35,30.03-17.78c18.06-4.01,42.02-6.22,67.47-6.22s49.42,2.21,67.47,6.22c19.92,4.43,30.03,10.41,30.03,17.78s-10.1,13.35-30.03,17.78c-18.06,4.01-42.02,6.22-67.47,6.22Zm0-42c-25.03,0-48.53,2.16-66.17,6.08-19.99,4.44-25.33,9.58-25.33,11.92s5.33,7.48,25.33,11.92c17.64,3.92,41.14,6.08,66.17,6.08s48.53-2.16,66.17-6.08c19.99-4.44,25.33-9.58,25.33-11.92s-5.33-7.48-25.33-11.92c-17.64-3.92-41.14-6.08-66.17-6.08Z"/>
      <path class="ag" d="M485.75,809.29c-19.24,.82-24.16,8.07-27.42,12.86-2.24,3.3-3.81,5.33-6.68,5.73-2.88,.4-6.7,.02-9.74-.99-1.33-.44-4.44-1.66-4.44-3.44,0-2.11,6.2-2.75,6.9-2.82h-.11l-3.63-8.8c-6.89,.57-19.09,3.1-22.28,8.72h-7.74v7.46h8.89c2.05,2.35,5.68,4.46,10.62,6.09,8.21,2.72,18.48,3.58,27.47,2.32,13.11-1.84,16.97-7.51,19.78-11.66,3.38-4.97,5.04-6.34,10.27-6.57,5.12-.22,8.98,.12,10.86,.95,2.08,.92,2.11,2.65,1.95,3.61-.47,2.72-9.43,4.24-9.45,4.25l6.43,8.47c6.99-1.07,18.5-4.24,21.94-9.7h10.02v-7.96h-10.31c-1.3-1.96-3.53-3.68-6.63-5.05-4.35-1.92-12.51-4.08-26.71-3.48Z"/>
    </g>
    <g>
      <path class="ag" d="M568.64,799c-20.44-7.27-53.65-12-91.14-12s-70.7,4.73-91.14,12h-21.36v17c0,16.02,50.37,29,112.5,29s112.5-12.98,112.5-29v-17h-21.36Z"/>
      <ellipse class="aw" cx="477.5" cy="799" rx="112.5" ry="29"/>
      <path class="ag" d="M477.5,821c-25.45,0-49.42-2.21-67.47-6.22-19.92-4.43-30.03-10.41-30.03-17.78s10.1-13.35,30.03-17.78c18.06-4.01,42.02-6.22,67.47-6.22s49.42,2.21,67.47,6.22c19.92,4.43,30.03,10.41,30.03,17.78s-10.1,13.35-30.03,17.78c-18.06,4.01-42.02,6.22-67.47,6.22Zm0-42c-25.03,0-48.53,2.16-66.17,6.08-19.99,4.44-25.33,9.58-25.33,11.92s5.33,7.48,25.33,11.92c17.64,3.92,41.14,6.08,66.17,6.08s48.53-2.16,66.17-6.08c19.99-4.44,25.33-9.58,25.33-11.92s-5.33-7.48-25.33-11.92c-17.64-3.92-41.14-6.08-66.17-6.08Z"/>
      <path class="ag" d="M490.75,783.29c-19.24,.82-24.16,8.07-27.42,12.86-2.24,3.3-3.81,5.33-6.68,5.73-2.88,.4-6.7,.02-9.74-.99-1.33-.44-4.44-1.66-4.44-3.44,0-2.11,6.2-2.75,6.9-2.82h-.11l-3.63-8.8c-6.89,.57-19.09,3.1-22.28,8.72h-7.74v7.46h8.89c2.05,2.35,5.68,4.46,10.62,6.09,8.21,2.72,18.48,3.58,27.47,2.32,13.11-1.84,16.97-7.51,19.78-11.66,3.38-4.97,5.04-6.34,10.27-6.57,5.12-.22,8.98,.12,10.86,.95,2.08,.92,2.11,2.65,1.95,3.61-.47,2.72-9.43,4.24-9.45,4.25l6.43,8.47c6.99-1.07,18.5-4.24,21.94-9.7h10.02v-7.96h-10.31c-1.3-1.96-3.53-3.68-6.63-5.05-4.35-1.92-12.51-4.08-26.71-3.48Z"/>
    </g>
    <g>
      <path class="ag" d="M434.94,751.04c-20.98,5.54-51.06,20.37-82.01,41.53s-55.7,43.81-68.47,61.34l-17.63,12.05,9.59,14.03c9.04,13.22,57.95-4.49,109.24-39.55,51.29-35.07,85.54-74.21,76.51-87.43l-9.59-14.03-17.63,12.05Z"/>
      <ellipse class="aw" cx="359.7" cy="802.48" rx="112.5" ry="29" transform="translate(-390.13 343.01) rotate(-34.36)"/>
      <path class="ag" d="M372.12,820.64c-21.01,14.37-42.04,26.06-59.21,32.94-18.95,7.59-30.66,8.35-34.82,2.27-4.16-6.08,.81-16.72,14.76-31.62,12.64-13.5,31.18-28.85,52.19-43.22,21.01-14.37,42.04-26.06,59.21-32.94,18.95-7.59,30.66-8.35,34.82-2.27,4.16,6.08-.81,16.72-14.76,31.62-12.64,13.5-31.18,28.85-52.19,43.22Zm-23.7-34.67c-20.66,14.13-38.84,29.17-51.2,42.36-14,14.95-15.5,22.21-14.18,24.14s8.62,3.16,27.64-4.45c16.78-6.72,37.39-18.2,58.06-32.33,20.66-14.13,38.84-29.17,51.2-42.36,14-14.95,15.5-22.21,14.18-24.14-1.32-1.93-8.62-3.16-27.64,4.45-16.78,6.72-37.39,18.2-58.06,32.33Z"/>
      <path class="ag" d="M361.77,782.04c-15.42,11.54-15.39,20.3-15.38,26.1,0,3.98-.14,6.55-2.28,8.5-2.15,1.96-5.52,3.8-8.6,4.68-1.35,.39-4.6,1.13-5.61-.34-1.19-1.74,3.56-5.77,4.11-6.22l-.09,.07-7.96-5.22c-5.37,4.36-14,13.33-13.47,19.78l-6.39,4.37,4.21,6.16,7.34-5.02c3.02,.78,7.21,.47,12.2-.96,8.31-2.39,17.28-7.47,23.99-13.59,9.78-8.92,9.76-15.78,9.75-20.79-.01-6.01,.58-8.08,4.77-11.22,4.11-3.07,7.48-4.97,9.5-5.35,2.24-.41,3.24,1,3.65,1.88,1.15,2.51-5.39,8.83-5.4,8.84l10.09,3.37c5.17-4.83,12.88-13.94,12.64-20.39l8.27-5.65-4.49-6.57-8.51,5.82c-2.18-.89-4.99-1.05-8.32-.43-4.67,.87-12.63,3.69-24.01,12.2Z"/>
    </g>
    <path class="ai" d="M892.5,713.5c-9.76,0-19.17,1.98-28.03,5.64l28.03,121.86-87.52-49.67c-4.81,15.26-7.48,32.05-7.48,49.67,0,70.42,42.53,127.5,95,127.5s95-57.08,95-127.5-42.53-127.5-95-127.5Z"/>
    <path class="ai" d="M844.47,691.14c-26.86,11.12-48.64,37.79-59.49,72.19l87.52,49.67-28.03-121.86Z"/>
    <line class="au" x1="943.05" y1="368.5" x2="1080.95" y2="368.5"/>
    <line class="au" x1="943.05" y1="386.5" x2="1080.95" y2="386.5"/>
  </g>
  <g id="w" data-name="Layer 8"/>
  <g id="x" data-name="Layer 10"/>
  <g id="y" data-name="Layer 11"/>
  <g id="a`" data-name="Layer 12"/>
  <g id="aa" data-name="Layer 13"/>
  <g id="ab" data-name="Layer 14"/>
  <g id="ac" data-name="Layer 15"/>
  <g id="ad" data-name="Layer 16"/>
</svg>