<?xml version="1.0" encoding="UTF-8"?>
<svg xmlns="http://www.w3.org/2000/svg" width="1600" height="1200" xmlns:xlink="http://www.w3.org/1999/xlink" viewBox="0 0 1600 1200">
  <defs>
    <style>
      .p {
        fill: #fff;
      }

      .q {
        fill: #112e72;
      }

      .r {
        fill: #174bc5;
      }

      .s {
        fill: #031e54;
      }

      .t {
        fill: #0039aa;
      }

      .u, .v {
        fill: #4885ff;
      }

      .w {
        fill: #64b2ff;
      }

      .x {
        fill: #226be0;
      }

      .v {
        opacity: .69;
      }

      .y {
        fill: url(#h);
        opacity: .31;
      }
    </style>
    <linearGradient id="h" x1="774.5" y1="883.01" x2="1429.08" y2="883.01" gradientTransform="matrix(1, 0, 0, 1, 0, 0)" gradientUnits="userSpaceOnUse">
      <stop offset="0" stop-color="#072968"/>
      <stop offset=".21" stop-color="#072968" stop-opacity=".96"/>
      <stop offset=".4" stop-color="#082969" stop-opacity=".86"/>
      <stop offset=".59" stop-color="#0a2a6b" stop-opacity=".68"/>
      <stop offset=".77" stop-color="#0c2b6d" stop-opacity=".42"/>
      <stop offset=".95" stop-color="#0f2d70" stop-opacity=".1"/>
      <stop offset="1" stop-color="#112e72" stop-opacity="0"/>
    </linearGradient>
  </defs>
  <g id="a" data-name="Layer 2"/>
  <g id="b" data-name="Layer 3"/>
  <g id="c" data-name="Layer 5"/>
  <g id="d" data-name="Layer 4"/>
  <g id="e" data-name="Layer 6"/>
  <g id="f" data-name="Layer 7"/>
  <g id="g" data-name="Layer 8">
    <path class="r" d="M1097.96,582.94l-167.46-207.79v-22.64l-15-3-1.94,.64c-11.64-14.74-26.4-23.81-42.79-24.57-2.53-.12-5.04-.03-7.53,.24l-1.6-.25-.45-.05c-1.46-.2-2.93-.36-4.41-.43-30.52-1.42-58.11,26.34-71.55,67.3l-162.62,53.52v21.98l-120.28,97.13v8l12.17-10v11.72l-73,91.78,73,30.23v169.77l151.58,64.71v-.26l23.07-10.45v-206.98l.35-.02,66.96,27v229.3l18.04,7.7,293.65-143.5v-239.5l28.54-11.07,1.28-.5Zm-475.35-112.37h0Z"/>
    <path class="v" d="M362.5,605.5h245s8-84.83-33-83.33-44.96,36.5-44.96,36.5c0,0,14.04-115-48.5-114s-48.08,114-48.08,114c0,0-3.55-52-39.01-47-35.46,5-31.46,47-31.46,47,0,0-45.17-.35-43.09,46.83,.09,.17,43.09,0,43.09,0Z"/>
    <path class="v" d="M996.72,554.83h275.48s18.7-9.92,0-44.12c-18.7-34.2-51.65-14.41-51.65-14.41,0,0,18.26-37.14-9.39-54.47-27.65-17.33-47.65,8.19-47.65,8.19,0,0,2.58-103.52-61.71-97.52-64.29,6-54.99,115.37-54.99,115.37,0,0-8.87-65.37-50.09-47.37s-20.35,75.8-20.35,75.8l20.35,58.53Z"/>
    <path class="y" d="M1343.52,880.26l85.56-61.51-85.22-85.23h-275.7l-293.65,243.98h240.58l60.42,55h80.09l-53.35-55h38.26l33,25,96.48-69.36c49.03,2.48,140.08,3.45,144.26-23.2,3.56-22.67-38.34-28.51-70.71-29.67Z"/>
    <polygon class="q" points="774.5 977.5 1068.15 834 1068.15 567 774.5 679.36 774.5 977.5"/>
    <g>
      <polygon class="p" points="637.5 472.5 789.5 701.5 1096.33 582.5 929.33 375.28 637.5 472.5"/>
      <path class="r" d="M789.11,702.72l-.44-.67-152.72-230.09,1.24-.41,292.48-97.44,.44,.54,167.86,208.28-1.28,.5-307.58,119.29Zm-150.06-229.69l150.83,227.24,304.8-118.21-165.71-205.61-289.93,96.59Z"/>
    </g>
    <polygon class="q" points="638.5 474.5 638.5 450.02 930.5 352.5 930.5 376.28 638.5 474.5"/>
    <polygon class="r" points="638.5 474.5 622.61 470.57 622.61 445.89 638.5 450.02 638.5 474.5"/>
    <polygon class="u" points="622.61 445.89 915.5 349.5 930.5 352.5 638.5 450.02 622.61 445.89"/>
    <polygon class="q" points="514.5 563 502.33 573 502.33 565 622.61 467.87 622.61 476.57 514.5 563"/>
    <polygon class="r" points="631.46 463.5 514.5 557 514.5 617 514.5 866.5 666.08 931.21 669.5 714.5 689.5 713.5 756.46 740.5 756.46 969.8 774.5 977.5 774.5 710.5 774.5 679.36 631.46 463.5"/>
    <polygon class="q" points="665.78 931.08 689.15 920.5 689.15 713.46 665.78 704.42 665.78 931.08"/>
    <polygon class="p" points="653.5 662.5 653.5 901.5 527.5 854.5 525.5 614.5 536.5 616.5 653.5 662.5"/>
    <polygon class="u" points="524.5 857.5 530.5 851.24 536.5 852.5 653.5 899.37 653.5 909.93 524.5 857.5"/>
    <polygon class="q" points="524.5 857.5 536.5 852.5 536.5 616.24 524.5 611.5 524.5 857.5"/>
    <polygon class="s" points="660.59 701.5 589 727.59 660.5 614.5 660.59 701.5"/>
    <polygon class="u" points="660.59 614.5 525.5 560.89 441.5 666.5 589 727.59 660.59 614.5"/>
    <polygon class="q" points="613.5 595.5 538.5 706.5 589 727.59 660.59 614.5 613.5 595.5"/>
    <polygon class="q" points="564.44 576.34 486.48 685.13 441.5 666.5 525.5 560.89 564.44 576.34"/>
    <path class="s" d="M441.5,666.5s-2,26,18,35c22.04,9.92,26.98-16.37,26.98-16.37l-44.98-18.63Z"/>
    <path class="x" d="M486.5,684.5s-2,28,17,36c24.44,10.29,35-14,35-14l-52-22Z"/>
    <path class="s" d="M538.5,706.5s-2,28,17,36c24.44,10.29,34-16,34-16l-51-20Z"/>
    <polygon class="p" points="552.37 554.63 630.55 496.15 708.17 613.5 552.37 554.63"/>
    <polygon class="u" points="551.04 554.63 570.5 547.5 694.53 591.87 709.5 614.5 551.04 554.63"/>
    <polygon class="q" points="551.04 554.63 570.5 547.5 634.28 500.78 630.55 495.15 551.04 554.63"/>
    <polygon class="w" points="809.02 741.39 809.02 841.28 1033.5 744.89 1033.5 648.22 809.02 741.39"/>
    <polygon class="r" points="1022.98 651.69 1022.98 739.85 1035.5 744.89 1035.5 646.5 1022.98 651.69"/>
    <polygon class="t" points="1022.98 739.85 1035.5 744.89 807.02 843 807.02 831.15 1022.98 739.85"/>
    <polygon class="r" points="773.4 710.16 911.03 757.48 911.2 771.58 763.3 718.94 759.98 701.5 773.4 710.16"/>
    <polygon class="p" points="788.21 742.75 788.21 818.27 900.9 860.24 900.9 785.37 788.21 742.75"/>
    <polygon class="q" points="776.55 524.89 800 554.83 951.5 502.5 930.5 474.5 776.55 524.89"/>
    <path class="q" d="M776.55,524.89l23.45,29.93,12.84-4.43c-8-8.25-15-18.63-20.67-30.61l-15.61,5.11Z"/>
    <path class="q" d="M951.5,502.5l-15.46-20.61c-1.99,10.21-4.79,19.87-8.29,28.81l23.75-8.2Z"/>
    <g>
      <path class="q" d="M840.42,559.75v-.03c-38.41-6.18-66.51-58.41-63.61-120.5,3.03-64.96,38.84-116.06,79.98-114.14,1.49,.07,2.95,.23,4.41,.43l.45,.05,16.57,2.58-.23,2.9c30.01,15.97,50.29,61.94,47.8,115.13-2.68,57.46-31.01,104.04-65.98,112.72"/>
      <ellipse class="w" cx="865.29" cy="443.18" rx="117.75" ry="74.57" transform="translate(382.26 1286.88) rotate(-87.33)"/>
      <path class="q" d="M904.24,462.55c-1.09-22.69-19.74-29.37-32.08-33.79-8.48-3.04-13.7-5.13-14.59-8.55-.9-3.43,.33-7.87,3.12-11.32,1.23-1.51,4.58-5.01,9.24-4.79,5.5,.26,6.85,7.62,6.99,8.45l-.02-.13,23.19-3.18c-1.12-8.17-7.05-22.79-21.55-27.24l.43-9.09-19.49-.92-.49,10.44c-6.25,2.12-11.96,6.13-16.49,11.72-7.55,9.31-10.38,21.27-7.57,31.98,4.09,15.62,18.69,20.85,29.35,24.66,12.78,4.58,16.29,6.69,16.58,12.87,.29,6.04-.8,10.53-3.08,12.64-2.52,2.33-7.05,2.16-9.53,1.85-7.08-.89-10.56-11.59-10.57-11.61l-22.49,6.51c2.42,8.34,10.04,22.24,24.13,26.96l-.55,11.76,20.79,.98,.57-12.11c5.2-1.29,9.81-3.7,13.56-7.17,5.26-4.87,11.36-14.19,10.55-30.94Z"/>
      <path class="q" d="M862.76,545.52c-36.27-1.69-63.63-49.09-60.99-105.66,2.64-56.57,34.3-101.2,70.56-99.52,17.91,.84,34.11,12.52,45.61,32.91,11.18,19.82,16.64,45.66,15.38,72.75-2.5,53.5-30.94,96.34-64.7,99.39-1.94,.18-3.89,.22-5.86,.13Zm-53.4-105.31c-2.44,52.38,21.67,96.21,53.75,97.71,1.66,.08,3.31,.04,4.95-.11,29.97-2.72,55.34-42.51,57.66-92.17,1.2-25.68-3.92-50.07-14.41-68.66-10.17-18.03-24.14-28.34-39.34-29.05-1.66-.08-3.31-.04-4.95,.11-29.97,2.72-55.34,42.51-57.66,92.17Z"/>
    </g>
    <path class="p" d="M794.7,554.63c4.8-.13,168.8-59.13,168.8-59.13l33.22,41.8s-160.22,49.2-164.22,49.2-37.8-31.87-37.8-31.87Z"/>
    <g>
      <path class="r" d="M800.02,298.54l-35-28.83c-3.41-2.81-8.45-2.32-11.26,1.09-2.81,3.41-2.32,8.45,1.09,11.26l35,28.83c1.49,1.23,3.29,1.83,5.08,1.83,2.31,0,4.6-.99,6.18-2.91,2.81-3.41,2.32-8.45-1.09-11.26Z"/>
      <path class="r" d="M844.5,226.5c-4.42,0-8,3.58-8,8v44.83c0,4.42,3.58,8,8,8s8-3.58,8-8v-44.83c0-4.42-3.58-8-8-8Z"/>
      <path class="r" d="M922.38,252.98c-3.46-2.74-8.49-2.16-11.24,1.3l-25.6,32.31c-2.74,3.46-2.16,8.49,1.3,11.24,1.47,1.17,3.22,1.73,4.96,1.73,2.36,0,4.7-1.04,6.28-3.03l25.6-32.31c2.74-3.46,2.16-8.49-1.3-11.24Z"/>
    </g>
    <circle class="q" cx="669" cy="332" r="8.5"/>
    <circle class="q" cx="1155" cy="662" r="8.5"/>
    <circle class="q" cx="415" cy="743" r="8.5"/>
    <rect class="v" x="970.5" y="818.5" width="176" height="59"/>
  </g>
  <g id="i" data-name="Layer 10"/>
  <g id="j" data-name="Layer 11"/>
  <g id="k" data-name="Layer 12"/>
  <g id="l" data-name="Layer 13"/>
  <g id="m" data-name="Layer 14"/>
  <g id="n" data-name="Layer 15"/>
  <g id="o" data-name="Layer 16"/>
</svg>