<?xml version="1.0" encoding="UTF-8"?>
<svg xmlns="http://www.w3.org/2000/svg" width="1600" height="1200" xmlns:xlink="http://www.w3.org/1999/xlink" viewBox="0 0 1600 1200">
  <defs>
    <style>
      .w {
        fill: #fff;
      }

      .x {
        fill: #112e72;
      }

      .y {
        fill: #174bc5;
      }

      .a` {
        fill: url(#j);
      }

      .a`, .aa, .ab, .ac, .ad {
        opacity: .31;
      }

      .aa {
        fill: url(#k);
      }

      .ab {
        fill: url(#l);
      }

      .ae, .af {
        fill: #4885ff;
      }

      .ag {
        fill: #64b2ff;
      }

      .ac {
        fill: url(#i);
      }

      .ad {
        fill: url(#m);
      }

      .ah {
        fill: url(#n);
        opacity: .09;
      }

      .af {
        opacity: .69;
      }

      .ai {
        fill: #fbfaff;
      }
    </style>
    <linearGradient id="i" x1="854" y1="801.73" x2="1527.61" y2="801.73" gradientTransform="matrix(1, 0, 0, 1, 0, 0)" gradientUnits="userSpaceOnUse">
      <stop offset="0" stop-color="#072968"/>
      <stop offset=".21" stop-color="#072968" stop-opacity=".96"/>
      <stop offset=".4" stop-color="#082969" stop-opacity=".86"/>
      <stop offset=".59" stop-color="#0a2a6b" stop-opacity=".68"/>
      <stop offset=".77" stop-color="#0c2b6d" stop-opacity=".42"/>
      <stop offset=".95" stop-color="#0f2d70" stop-opacity=".1"/>
      <stop offset="1" stop-color="#112e72" stop-opacity="0"/>
    </linearGradient>
    <linearGradient id="j" x1="400.25" y1="950.22" x2="1091" y2="950.22" xlink:href="#i"/>
    <linearGradient id="k" x1="495.03" y1="661.97" x2="592.86" y2="661.97" xlink:href="#i"/>
    <linearGradient id="l" x1="890.98" y1="721.43" x2="968.51" y2="721.43" xlink:href="#i"/>
    <linearGradient id="m" x1="828.51" y1="337.81" x2="936.54" y2="337.81" xlink:href="#i"/>
    <linearGradient id="n" x1="1098.23" y1="942.06" x2="1199.23" y2="942.06" gradientTransform="translate(-5.23 8.44)" xlink:href="#i"/>
  </defs>
  <g id="a" data-name="Layer 2"/>
  <g id="b" data-name="Layer 3"/>
  <g id="c" data-name="Layer 5"/>
  <g id="d" data-name="Layer 4"/>
  <g id="e" data-name="Layer 6"/>
  <g id="f" data-name="Layer 7"/>
  <g id="g" data-name="Layer 8"/>
  <g id="h" data-name="Layer 18">
    <path class="ac" d="M1527.61,864l-394.61-142-279-.57,150.35,56.05h-31.23l-90.12,71.53,25.57,2.16,97.43-42.16h82.93l121.1,45.14c-4.95,5.44-7.13,11.61-5.29,17.03,3.46,10.2,19.83,13.87,36.58,8.19,9.79-3.32,17.53-9.09,21.59-15.36h264.7Z"/>
    <path class="a`" d="M1073.7,925.43c-17.3,21.43-31.7,7.57-46.7-3.43-15-11-53.88,10.04-53.88,10.04l-113.14-40.04H400.25l123,116.43h392.68l71.33-31.68c11.36,7.6,20.23,16.32,26.74,17.25,14,2,49.3-25.5,49.3-25.5l27.7-64.5-17.3,21.43Z"/>
    <g>
      <g>
        <polygon class="y" points="332.57 698.88 332.57 921.34 523.26 1008.43 676.86 930.65 677.17 715.96 484.26 642.07 332.57 698.88"/>
        <g>
          <polygon class="w" points="481.15 642.07 332.57 698.88 526.26 776.64 676.86 715.96 481.15 642.07"/>
          <path class="y" d="M526.26,777.47l-.29-.12-195.53-78.49,150.71-57.63,197.85,74.7-152.74,61.53Zm-191.56-78.58l191.56,76.9,148.46-59.81-193.57-73.09-146.45,56Z"/>
        </g>
        <polygon class="ae" points="510.71 789.08 510.71 985.1 344.25 912.22 344.25 720.87 510.71 789.08"/>
        <polygon class="ae" points="332.49 746.4 332.58 789.35 318.58 792.43 321.69 751.2 332.49 746.4"/>
        <polygon class="ae" points="332.58 818.88 332.58 868.69 318.58 871.77 321.69 830.54 332.58 818.88"/>
        <polygon class="x" points="332.49 743.29 304.58 755.87 304.58 797.87 344.25 813.97 353.58 807.21 353.58 764.43 327.14 755.87 332.49 753.4 332.49 743.29"/>
        <polygon class="y" points="304.58 755.87 344.25 771.43 344.25 814.21 304.58 797.87 304.58 755.87"/>
        <polygon class="x" points="332.49 818.74 304.58 832.1 304.58 874.1 344.25 891.76 353.58 884.99 353.58 842.21 327.14 832.1 332.49 829.63 332.49 818.74"/>
        <polygon class="y" points="304.58 832.1 344.25 849.21 344.25 891.99 304.58 874.1 304.58 832.1"/>
        <polygon class="x" points="395.59 783.09 464.82 810.32 464.82 907.55 453.92 913.54 452.37 824.32 383.92 788.54 395.59 783.09"/>
        <polygon class="y" points="383.92 788.54 453.93 815.76 453.93 913.77 383.92 883.44 383.92 788.54"/>
        <polygon class="ai" points="392.48 804.1 392.48 826.65 440.7 845.86 440.7 821.75 392.48 804.1"/>
        <polygon class="x" points="526.26 776.64 523.26 1008.43 676.86 930.65 676.86 715.96 526.26 776.64"/>
      </g>
      <polygon class="x" points="447 686 457 682 556.65 720.87 547 725 447 686"/>
    </g>
    <g>
      <polygon class="x" points="588.61 658.85 556.65 637.65 542.06 656.43 588.61 658.85"/>
      <path class="ag" d="M451.93,686.7c21.07-13.7,58.07-40.7,40.07-55.7,5,0,96.61,27.85,96.61,27.85,0,0,24.39,13.15-43.61,64.15l-93.07-36.3Z"/>
      <g>
        <path class="x" d="M581.54,662.96c.51-2.19,.66-4.21,.49-6.1-1.57-.47-3.38-1.02-5.39-1.63,.61,1.83,.62,4.01,.02,6.6-3.96,17.13-32.15,43.45-49.08,54.38l5.68,2.21c18-12.48,44.21-37.88,48.28-55.47Z"/>
        <path class="x" d="M510.07,642.39c-3.85,16.66-28.22,39.91-43.7,49.94l5.64,2.2c16.07-11.29,38.92-33.66,42.93-51.01,.53-2.28,.7-4.41,.55-6.39-1.83-.52-3.59-1.02-5.27-1.5,.5,1.93,.45,4.16-.15,6.76Z"/>
      </g>
      <path class="aa" d="M588.61,658.85s-46.77-14.22-75.3-22.34l-18.28-2.12s81.04,64.41,88.01,54.02h0c.49-.74,1.1-1.52,1.79-2.33,15.5-20.9,3.78-27.23,3.78-27.23Z"/>
      <path class="ag" d="M588.61,658.85c-37.61-7.85-17.61-44.85,16.39-82.85l-111.43-29s-53.57,59-32.57,73,117,39,121,39,6.61-.15,6.61-.15Z"/>
      <path class="x" d="M581.46,582.37l2.34-2.48-82.61-20.72-.8,.84c-1.49,1.56-34.04,35.94-34,63.04,1.26,.63,2.62,1.28,4.08,1.94-1.69-23.42,26.88-55.75,32.03-61.37l73.81,18.51c-8.18,9.44-34.74,43.07-23.15,69.77,1.78,.48,3.51,.95,5.17,1.39-16.33-28.49,22.73-70.49,23.13-70.92Z"/>
    </g>
    <g>
      <polygon class="x" points="990 799 988.82 794.17 988.82 794.17 988.82 794.17 959 672 887.91 643.19 922.41 762.19 971.81 783.59 975.39 795.38 975.29 795.39 923 774 845 807.05 812.09 810 812.09 821 883 849 985.56 800.85 990 799"/>
      <polygon class="y" points="950 676 878.91 647.19 914 768 812.09 810 883 838 978 794.17 950 676"/>
      <g>
        <polygon class="w" points="814.46 809.8 883.34 837 975.63 794.43 913.46 769 814.46 809.8"/>
        <path class="y" d="M883.38,838.09l-71.59-28.27,101.67-41.9,64.68,26.45-94.76,43.72Zm-66.25-28.31l66.18,26.13,89.81-41.43-59.66-24.4-96.33,39.7Z"/>
      </g>
      <polygon class="ab" points="953.69 691.58 890.98 688.73 900.8 722.55 968.51 754.13 953.69 691.58"/>
    </g>
    <g>
      <g>
        <polygon class="x" points="771.85 307.01 756.85 313.01 768.86 329.88 730.38 623.67 1069.25 751.82 1080.62 767.8 1095.62 761.8 1132.88 414.35 771.85 307.01"/>
        <g>
          <polygon class="w" points="715.38 629.67 756.85 313.01 1117.88 420.35 1080.62 767.8 715.38 629.67"/>
          <path class="y" d="M1081.48,769.19l-367.19-138.86,.1-.79,41.62-317.82,362.95,107.91-37.49,349.56Zm-365-140.17l363.29,137.39,37.04-345.33-359.11-106.77-41.21,314.71Z"/>
        </g>
      </g>
      <polygon class="x" points="844 404 842 416 990 463 992 451 844 404"/>
    </g>
    <g>
      <path class="x" d="M684.59,329.02h0l4.52-6.33,1.05,.85c14.57-10.25,40.87-4.97,62.18,13.44,19.89,17.19,29.09,40.33,23.71,56.27l.84,.68-4.2,5.88c-.05,.06-.09,.13-.14,.2l-.03,.04h0c-.34,.46-.7,.92-1.08,1.36-13.09,15.15-42.87,10.88-66.51-9.54-22.84-19.74-31.59-47.34-20.34-62.85Z"/>
      <ellipse class="ag" cx="733.06" cy="358.24" rx="36.26" ry="56.57" transform="translate(-17.28 678.72) rotate(-49.17)"/>
      <path class="x" d="M752.46,354.6c-7.39-8.66-15.33-6.48-20.58-5.04-3.61,.99-5.9,1.51-7.25,.4-1.35-1.12-2.34-3.19-2.53-5.26-.08-.91-.11-3.15,1.42-4.27,1.81-1.32,4.52,1.23,4.82,1.53l-.05-.05,6.31-7.24c-2.89-2.93-9.29-7.16-15.24-5.17l-2.69-3.69-6.42,4.67,3.08,4.24c-1.31,2.45-1.86,5.5-1.55,8.88,.52,5.62,3.33,11.06,7.54,14.56,6.13,5.1,12.35,3.39,16.89,2.14,5.44-1.5,7.2-1.57,9.21,.79,1.97,2.31,3.02,4.36,2.95,5.78-.07,1.57-1.55,2.67-2.42,3.19-2.5,1.48-6.92-1.84-6.93-1.85l-5.06,8.37c3.35,2.66,10.06,6.17,15.96,4.39l3.48,4.78,6.84-4.98-3.58-4.92c1.24-1.85,1.94-3.99,2.04-6.32,.14-3.28-.83-8.52-6.28-14.92Z"/>
      <path class="x" d="M713.63,377.37c-19.63-19.63-25.82-44.19-14.1-55.91,11.72-11.72,36.28-5.53,55.91,14.1,19.63,19.63,25.82,44.19,14.1,55.91-4.01,4.01-9.51,5.92-15.81,5.92-12.13,0-27.18-7.1-40.1-20.02Zm-10.94-52.75c-9.79,9.79-3.46,32.04,14.1,49.6,17.56,17.56,39.81,23.88,49.6,14.1,9.79-9.79,3.46-32.04-14.1-49.6-11.96-11.96-26.09-18.7-36.98-18.7-5.1,0-9.5,1.48-12.62,4.61Z"/>
    </g>
    <g>
      <path class="ag" d="M857.28,415.99c-18.75-14.27-28.35-27.29-19.71-72.84,8.64-45.56-33.59-54.85-33.59-54.85l94.04,21.38,29.75,15.81s15,22.8,5.76,50.21c-9.25,27.41,5.76,58.57,36.47,75.31l-112.72-35.01Z"/>
      <g>
        <path class="x" d="M918.88,386.25c9.5-30.07,3.46-55.69-8.49-70l-12.08-6.42-1,1.87c16.53,8.85,28.03,37.46,16.8,73.04-5.74,18.19-1.85,36.09,11.23,52.38l9.2,2.86c-16.38-16.71-21.65-34.76-15.66-53.74Z"/>
        <path class="x" d="M865.93,418.68l9.66,3c-1.24-1.24-2.48-2.51-3.71-3.84-19.36-21-25.75-42.74-18.99-64.6,10.12-32.75,1.32-47.33-11.06-56.34l-10.83-2.46-.68,1.27c15.25,8.16,29.18,19.22,17.79,56.06-6.94,22.46-.78,45.53,17.82,66.92Z"/>
      </g>
      <path class="ad" d="M933.18,376.85c.12-.39,.23-.77,.36-1.16,9.25-27.41-5.76-50.21-5.76-50.21l-29.75-15.81-47.96-10.9c-10.59,2.09-18.67,3.69-21.56,4.26,5.83,6.59,10.36,15.92,10.21,28.95h0s65.75,21.31,82.02,37.66c4.53,4.56,8.73,6.61,12.44,7.2Z"/>
      <path class="ag" d="M756,285.51l115.16,35.33s47.98-20.45,63.39,21.6c-.05-.22-4.85-29.97-40.36-41.13-42.74-13.43-72.93-23.24-90.21-25.1s-47.98,9.3-47.98,9.3Z"/>
      <path class="x" d="M902.06,304.31c-2.45-1.1-5.05-2.11-7.87-3-1.65-.52-3.28-1.03-4.89-1.54-10.79,1.05-19.21,3.35-21.78,4.11l-60.6-19.05c6.38-1.2,15.85-2.42,26.92-2.04-6.52-1.82-12.36-3.33-17.53-4.46-11.42,1.21-18.89,3.57-19.57,3.79l-7.45,2.42,78.22,24.58,.75-.24c.23-.07,15.91-4.94,33.8-4.57Z"/>
    </g>
    <g>
      <path class="x" d="M609.92,459.38c14.75-34.98,8.75-70.91-13.41-80.25-.8-.34-1.61-.62-2.43-.88l-.25-.08-9.38-2.81-.61,1.59c-19.83,.86-42.07,19.97-54.15,48.61-13.04,30.94-9.85,62.61,6.39,75.97l-.79,2.05,10.78,3.28v-.02c21.79,6.41,49.74-14.03,63.83-47.47Z"/>
      <ellipse class="ag" cx="560.76" cy="439.76" rx="68.74" ry="43.53" transform="translate(-62.32 785.61) rotate(-67.14)"/>
      <path class="x" d="M572.4,457.85c5.14-12.23-3.01-20.44-8.39-25.87-3.7-3.73-5.92-6.15-5.53-8.17,.39-2.03,2.15-4.07,4.49-5.18,1.03-.49,3.67-1.49,6.07-.2,2.83,1.52,1.69,5.73,1.55,6.21l.02-.08,13.02,4.16c1.47-4.58,2.02-13.78-4.5-19.77l2.51-4.68-10.03-5.39-2.88,5.37c-3.83-.45-7.84,.22-11.64,2.02-6.32,3.01-10.82,8.59-12.04,14.94-1.78,9.26,4.6,15.68,9.25,20.38,5.58,5.63,6.89,7.62,5.5,10.95-1.37,3.26-3.07,5.35-4.8,5.88-1.91,.59-4.26-.64-5.48-1.42-3.51-2.25-2.65-8.77-2.65-8.78l-13.48-2.23c-.83,5-.31,14.24,5.93,20.27l-3.25,6.06,10.7,5.74,3.35-6.23c3.06,.63,6.1,.52,8.94-.36,4-1.24,9.55-4.62,13.34-13.64Z"/>
      <path class="x" d="M533.29,492.76c-17.01-10.11-21.22-39.83-9.07-68.64,6.15-14.59,15.53-26.82,26.41-34.45,11.19-7.84,22.66-9.92,32.31-5.86,19.52,8.24,24.97,39.72,12.13,70.18-12.84,30.46-39.18,48.54-58.71,40.31-1.06-.45-2.08-.96-3.05-1.54Zm50.5-103.55c-.83-.49-1.69-.93-2.58-1.3-8.19-3.45-18.14-1.53-28.03,5.4-10.2,7.15-19.03,18.71-24.86,32.54-11.28,26.74-7.92,54.09,7.18,63.06,.83,.49,1.69,.93,2.58,1.3,17.28,7.28,41.01-9.74,52.9-37.94,11.28-26.74,7.92-54.09-7.18-63.06Z"/>
    </g>
    <polygon class="af" points="961.48 492 938.05 672.84 1171.95 756 1188.56 562.15 961.48 492"/>
    <polygon class="x" points="915.28 526.91 902.61 618.14 1029.02 663.09 1040 565.32 915.28 526.91"/>
    <polygon class="x" points="697 445 679 568 837.53 629 854 499 697 445"/>
    <path class="w" d="M821.57,542.11c-.26,0-.52-.04-.78-.13l-107.08-36.58c-1.27-.43-1.94-1.81-1.51-3.08,.43-1.27,1.81-1.94,3.08-1.51l107.08,36.58c1.27,.43,1.94,1.81,1.51,3.08-.34,1.01-1.29,1.64-2.3,1.64Z"/>
    <path class="w" d="M819.75,554.54c-.26,0-.52-.04-.78-.13l-107.08-36.58c-1.27-.43-1.94-1.81-1.51-3.08,.43-1.27,1.81-1.95,3.08-1.51l107.08,36.58c1.27,.43,1.94,1.81,1.51,3.08-.34,1.01-1.29,1.64-2.3,1.64Z"/>
    <path class="w" d="M817.94,566.97c-.26,0-.52-.04-.78-.13l-107.08-36.58c-1.27-.43-1.94-1.81-1.51-3.08,.43-1.27,1.81-1.94,3.08-1.51l107.08,36.58c1.27,.43,1.94,1.81,1.51,3.08-.34,1.01-1.29,1.64-2.3,1.64Z"/>
    <circle class="x" cx="400.5" cy="471.5" r="8.5"/>
    <circle class="x" cx="760.5" cy="725.5" r="8.5"/>
    <circle class="x" cx="1054.5" cy="870.5" r="8.5"/>
    <circle class="x" cx="1045.5" cy="288.5" r="8.5"/>
    <circle class="x" cx="583.5" cy="204.5" r="8.5"/>
    <ellipse class="ah" cx="1143.5" cy="950.5" rx="50.5" ry="27.5" transform="translate(-142.12 203.36) rotate(-9.57)"/>
    <path class="w" d="M952.97,609.46l-20.53-19.66-16.9,14.21c-1.06,.89-2.63,.75-3.52-.3s-.75-2.63,.3-3.52l20.33-17.1,21.38,20.47,33.93-14.73,12.13,4.81,23.9-18.12c1.1-.83,2.67-.62,3.5,.48,.83,1.1,.62,2.67-.48,3.5l-26.14,19.82-12.82-5.08-35.07,15.23Z"/>
  </g>
  <g id="o" data-name="Layer 10"/>
  <g id="p" data-name="Layer 11"/>
  <g id="q" data-name="Layer 12"/>
  <g id="r" data-name="Layer 13"/>
  <g id="s" data-name="Layer 14"/>
  <g id="t" data-name="Layer 15"/>
  <g id="u" data-name="Layer 16"/>
  <g id="v" data-name="Layer 17"/>
</svg>