<?xml version="1.0" encoding="UTF-8"?>
<svg xmlns="http://www.w3.org/2000/svg" width="1600" height="1200" xmlns:xlink="http://www.w3.org/1999/xlink" viewBox="0 0 1600 1200">
  <defs>
    <style>
      .q {
        fill: #043cad;
      }

      .r {
        fill: #fff;
      }

      .s {
        fill: #112e72;
      }

      .t {
        fill: #174bc5;
      }

      .u {
        fill: url(#j);
      }

      .u, .v {
        opacity: .31;
      }

      .w {
        fill: #021e56;
      }

      .x, .y {
        fill: #4885ff;
      }

      .a` {
        fill: #64b2ff;
      }

      .v {
        fill: url(#i);
      }

      .y {
        opacity: .69;
      }

      .aa {
        fill: #00194c;
      }
    </style>
    <linearGradient id="i" x1="864.48" y1="908.56" x2="1198.71" y2="907.89" gradientTransform="matrix(1, 0, 0, 1, 0, 0)" gradientUnits="userSpaceOnUse">
      <stop offset="0" stop-color="#072968"/>
      <stop offset=".21" stop-color="#072968" stop-opacity=".96"/>
      <stop offset=".4" stop-color="#082969" stop-opacity=".86"/>
      <stop offset=".59" stop-color="#0a2a6b" stop-opacity=".68"/>
      <stop offset=".77" stop-color="#0c2b6d" stop-opacity=".42"/>
      <stop offset=".95" stop-color="#0f2d70" stop-opacity=".1"/>
      <stop offset="1" stop-color="#112e72" stop-opacity="0"/>
    </linearGradient>
    <linearGradient id="j" x1="347.5" y1="902.02" x2="871" y2="902.02" xlink:href="#i"/>
  </defs>
  <g id="a" data-name="Layer 2"/>
  <g id="b" data-name="Layer 3"/>
  <g id="c" data-name="Layer 5"/>
  <g id="d" data-name="Layer 4"/>
  <g id="e" data-name="Layer 6"/>
  <g id="f" data-name="Layer 7"/>
  <g id="g" data-name="Layer 8"/>
  <g id="h" data-name="Layer 10">
    <g>
      <path class="t" d="M1019.5,296.5s-.43-.14-1.19-.39c.4,.12,.79,.25,1.19,.39-44-18-60-25.04-60-25.04,0,0-7.16-2.5-18.13,3.55-12.55-17.28-32.42-33.09-41.53-36.25-7.32-9.26-38.09-.34-59.96,7.58-.29-6.36-1.73-12.96-5.38-18.47-11-16.63-63-47.37-81.95-46.51l.02,.11c-9.96-1.1-19.11,5.85-24.76,21.93-6.27-.19-15.85,.98-26.79,7.37l-50.52-17.62-27.15,43.39c-5.24-19.97-7.81-41.86-4-63.04-20.85,15-35.85,25-35.85,25l-28-25s-2.21,61.5,43,94.83c36.23,26.71,52.35,39.04,57.27,42.83,9.12,11.57,24.27,2.16,41.21-13.91l73.52,56.25,187,73,27-47-31.03-28.61c7.54-12.24,15.38-24.57,23.63-34.53,3.56,22.98,2.09,44.14,2.09,44.14l22.3-15,34,33s9-81-16-82Zm-381.93-20.52c-4.53-9.99-9.07-21.5-12.67-33.89l28.18,21.56c-5.75,5.77-10.97,9.68-15.5,12.33Z"/>
      <polygon class="t" points="565.35 677.24 565.35 899.88 618.79 924.69 618.79 924.69 660.29 943.95 660.29 943.95 740.61 981.24 856.53 922.36 856.53 922.35 856.53 922.35 914.12 893.1 914.12 677.03 739.14 597.5 565.35 677.24"/>
    </g>
    <polygon class="v" points="1210.41 842.5 1137.89 842.5 1141.02 854.5 1130.5 854.5 1126.93 848.5 1124.33 842.5 1112.86 842.5 1106.5 842.5 1110.31 846.5 1071.46 848.5 1024.67 835.6 776.5 835.6 740.61 981.24 1096.28 981.24 1163.57 936.5 1171.28 936.5 1169.67 932.44 1174.46 929.26 1175.98 929.2 1180.15 936.5 1230.11 936.5 1239.63 936.5 1239.5 932.5 1244.5 932.5 1249.02 936.5 1256.5 936.5 1210.41 842.5"/>
    <g>
      <path class="t" d="M752.55,181.36c18.95-.86,70.95,29.88,81.95,46.51,11,16.63,1.93,43.08,1.93,43.08l-70.5-11.1-13.39-78.48Z"/>
      <path class="aa" d="M724,218.78c5.5-33.28,21.5-43.28,37.5-34.28s46.38,70.87,46.38,70.87l-83.88-36.59Z"/>
      <path class="aa" d="M1019.5,296.5c25,1,16,82,16,82l-34-33-22.3,15s4.3-62.09-19.7-89.04c5,7.04,60,25.04,60,25.04Z"/>
      <path class="s" d="M947.57,360.5c20.93-34,43.93-74,71.93-64-44-18-60-25.04-60-25.04,0,0-24.93-8.71-52.97,45.67s41.04,43.37,41.04,43.37Z"/>
      <path class="t" d="M899.84,238.76c13.66,4.74,51.54,37.91,52.6,61.83,1.06,23.91-24.94,28.91-24.94,28.91l-50-40.74,22.34-50Z"/>
      <path class="aa" d="M817.09,255.37s71.09-31.35,82.75-16.61c11.66,14.74-4.34,54.13-15.34,52.43-11-1.7-67.41-35.83-67.41-35.83Z"/>
      <g>
        <g>
          <polygon class="w" points="650.5 193.15 798.5 310.5 984.5 379.5 862.61 267.11 650.5 193.15"/>
          <polygon class="q" points="770.5 353.5 957.5 426.5 984.5 379.5 798.5 310.5 770.5 353.5"/>
          <polygon class="s" points="621.5 239.5 770.5 353.5 798.5 310.5 650.5 193.15 621.5 239.5"/>
          <polygon class="t" points="621.5 239.5 650.5 193.15 862.61 267.11 834.5 317.59 621.5 239.5"/>
          <polygon class="s" points="834.5 317.59 957.5 426.5 984.5 379.5 862.61 267.11 834.5 317.59"/>
        </g>
        <polygon class="x" points="693.79 266 724 218.78 770.5 234.99 742.05 283.7 693.79 266"/>
        <polygon class="x" points="884.5 361.5 911.97 312.62 944.55 342.67 918.2 391.7 884.5 361.5"/>
      </g>
      <polygon class="aa" points="781.52 229.85 817.09 251.24 724 218.78 735.5 204.5 781.52 229.85"/>
      <path class="s" d="M652.5,305.5c22,51,101.05-96.3,129.02-75.65-.02-.35-46.02-25.35-46.02-25.35,0,0-33-11-64,36-29.57,44.84-52.15,40.83-52.15,40.83l33.15,24.17Z"/>
      <path class="t" d="M555.5,173.5s-2.21,61.5,43,94.83c45,33.17,59,44.17,59,44.17,0,0-50-73-38.15-139-20.85,15-35.85,25-35.85,25l-28-25Z"/>
    </g>
    <g>
      <polygon class="q" points="914.12 677.03 739.14 597.5 739.14 813.57 914.12 893.1 914.12 677.03"/>
      <polygon class="s" points="565.35 677.24 565.35 899.88 739.14 813.57 739.14 597.5 565.35 677.24"/>
    </g>
    <circle class="aa" cx="999" cy="534" r="8"/>
    <circle class="aa" cx="1120" cy="365" r="8"/>
    <circle class="aa" cx="561" cy="569" r="8"/>
    <circle class="aa" cx="1093" cy="928" r="8"/>
    <circle class="aa" cx="516.5" cy="407.5" r="8"/>
    <g>
      <path class="s" d="M830.64,718c-20.44-7.27-53.65-12-91.14-12s-70.7,4.73-91.14,12h-21.36v17c0,16.02,50.37,29,112.5,29s112.5-12.98,112.5-29v-17h-21.36Z"/>
      <ellipse class="a`" cx="739.5" cy="718" rx="112.5" ry="29"/>
      <path class="s" d="M739.5,740c-25.45,0-49.42-2.21-67.47-6.22-19.92-4.43-30.03-10.41-30.03-17.78s10.1-13.35,30.03-17.78c18.06-4.01,42.02-6.22,67.47-6.22s49.42,2.21,67.47,6.22c19.92,4.43,30.03,10.41,30.03,17.78s-10.1,13.35-30.03,17.78c-18.06,4.01-42.02,6.22-67.47,6.22Zm0-42c-25.03,0-48.53,2.16-66.17,6.08-19.99,4.44-25.33,9.58-25.33,11.92s5.33,7.48,25.33,11.92c17.64,3.92,41.14,6.08,66.17,6.08s48.53-2.16,66.17-6.08c19.99-4.44,25.33-9.58,25.33-11.92s-5.33-7.48-25.33-11.92c-17.64-3.92-41.14-6.08-66.17-6.08Z"/>
      <path class="s" d="M752.75,702.29c-19.24,.82-24.16,8.07-27.42,12.86-2.24,3.3-3.81,5.33-6.68,5.73-2.88,.4-6.7,.02-9.74-.99-1.33-.44-4.44-1.66-4.44-3.44,0-2.11,6.2-2.75,6.9-2.82h-.11l-3.63-8.8c-6.89,.57-19.09,3.1-22.28,8.72h-7.74v7.46h8.89c2.05,2.35,5.68,4.46,10.62,6.09,8.21,2.72,18.48,3.58,27.47,2.32,13.11-1.84,16.97-7.51,19.78-11.66,3.38-4.97,5.04-6.34,10.27-6.57,5.12-.22,8.98,.12,10.86,.95,2.08,.92,2.11,2.65,1.95,3.61-.47,2.72-9.43,4.24-9.45,4.25l6.43,8.47c6.99-1.07,18.5-4.24,21.94-9.7h10.02v-7.96h-10.31c-1.3-1.96-3.53-3.68-6.63-5.05-4.35-1.92-12.51-4.08-26.71-3.48Z"/>
    </g>
    <g>
      <path class="s" d="M830.64,698c-20.44-7.27-53.65-12-91.14-12s-70.7,4.73-91.14,12h-21.36v17c0,16.02,50.37,29,112.5,29s112.5-12.98,112.5-29v-17h-21.36Z"/>
      <ellipse class="a`" cx="739.5" cy="698" rx="112.5" ry="29"/>
      <path class="s" d="M739.5,720c-25.45,0-49.42-2.21-67.47-6.22-19.92-4.43-30.03-10.41-30.03-17.78s10.1-13.35,30.03-17.78c18.06-4.01,42.02-6.22,67.47-6.22s49.42,2.21,67.47,6.22c19.92,4.43,30.03,10.41,30.03,17.78s-10.1,13.35-30.03,17.78c-18.06,4.01-42.02,6.22-67.47,6.22Zm0-42c-25.03,0-48.53,2.16-66.17,6.08-19.99,4.44-25.33,9.58-25.33,11.92s5.33,7.48,25.33,11.92c17.64,3.92,41.14,6.08,66.17,6.08s48.53-2.16,66.17-6.08c19.99-4.44,25.33-9.58,25.33-11.92s-5.33-7.48-25.33-11.92c-17.64-3.92-41.14-6.08-66.17-6.08Z"/>
      <path class="s" d="M752.75,682.29c-19.24,.82-24.16,8.07-27.42,12.86-2.24,3.3-3.81,5.33-6.68,5.73-2.88,.4-6.7,.02-9.74-.99-1.33-.44-4.44-1.66-4.44-3.44,0-2.11,6.2-2.75,6.9-2.82h-.11l-3.63-8.8c-6.89,.57-19.09,3.1-22.28,8.72h-7.74v7.46h8.89c2.05,2.35,5.68,4.46,10.62,6.09,8.21,2.72,18.48,3.58,27.47,2.32,13.11-1.84,16.97-7.51,19.78-11.66,3.38-4.97,5.04-6.34,10.27-6.57,5.12-.22,8.98,.12,10.86,.95,2.08,.92,2.11,2.65,1.95,3.61-.47,2.72-9.43,4.24-9.45,4.25l6.43,8.47c6.99-1.07,18.5-4.24,21.94-9.7h10.02v-7.96h-10.31c-1.3-1.96-3.53-3.68-6.63-5.05-4.35-1.92-12.51-4.08-26.71-3.48Z"/>
    </g>
    <g>
      <path class="s" d="M830.64,672c-20.44-7.27-53.65-12-91.14-12s-70.7,4.73-91.14,12h-21.36v17c0,16.02,50.37,29,112.5,29s112.5-12.98,112.5-29v-17h-21.36Z"/>
      <ellipse class="a`" cx="739.5" cy="672" rx="112.5" ry="29"/>
      <path class="s" d="M739.5,694c-25.45,0-49.42-2.21-67.47-6.22-19.92-4.43-30.03-10.41-30.03-17.78s10.1-13.35,30.03-17.78c18.06-4.01,42.02-6.22,67.47-6.22s49.42,2.21,67.47,6.22c19.92,4.43,30.03,10.41,30.03,17.78s-10.1,13.35-30.03,17.78c-18.06,4.01-42.02,6.22-67.47,6.22Zm0-42c-25.03,0-48.53,2.16-66.17,6.08-19.99,4.44-25.33,9.58-25.33,11.92s5.33,7.48,25.33,11.92c17.64,3.92,41.14,6.08,66.17,6.08s48.53-2.16,66.17-6.08c19.99-4.44,25.33-9.58,25.33-11.92s-5.33-7.48-25.33-11.92c-17.64-3.92-41.14-6.08-66.17-6.08Z"/>
      <path class="s" d="M752.75,656.29c-19.24,.82-24.16,8.07-27.42,12.86-2.24,3.3-3.81,5.33-6.68,5.73-2.88,.4-6.7,.02-9.74-.99-1.33-.44-4.44-1.66-4.44-3.44,0-2.11,6.2-2.75,6.9-2.82h-.11l-3.63-8.8c-6.89,.57-19.09,3.1-22.28,8.72h-7.74v7.46h8.89c2.05,2.35,5.68,4.46,10.62,6.09,8.21,2.72,18.48,3.58,27.47,2.32,13.11-1.84,16.97-7.51,19.78-11.66,3.38-4.97,5.04-6.34,10.27-6.57,5.12-.22,8.98,.12,10.86,.95,2.08,.92,2.11,2.65,1.95,3.61-.47,2.72-9.43,4.24-9.45,4.25l6.43,8.47c6.99-1.07,18.5-4.24,21.94-9.7h10.02v-7.96h-10.31c-1.3-1.96-3.53-3.68-6.63-5.05-4.35-1.92-12.51-4.08-26.71-3.48Z"/>
    </g>
    <g>
      <path class="s" d="M830.64,646c-20.44-7.27-53.65-12-91.14-12s-70.7,4.73-91.14,12h-21.36v17c0,16.02,50.37,29,112.5,29s112.5-12.98,112.5-29v-17h-21.36Z"/>
      <ellipse class="a`" cx="739.5" cy="646" rx="112.5" ry="29"/>
      <path class="s" d="M739.5,668c-25.45,0-49.42-2.21-67.47-6.22-19.92-4.43-30.03-10.41-30.03-17.78s10.1-13.35,30.03-17.78c18.06-4.01,42.02-6.22,67.47-6.22s49.42,2.21,67.47,6.22c19.92,4.43,30.03,10.41,30.03,17.78s-10.1,13.35-30.03,17.78c-18.06,4.01-42.02,6.22-67.47,6.22Zm0-42c-25.03,0-48.53,2.16-66.17,6.08-19.99,4.44-25.33,9.58-25.33,11.92s5.33,7.48,25.33,11.92c17.64,3.92,41.14,6.08,66.17,6.08s48.53-2.16,66.17-6.08c19.99-4.44,25.33-9.58,25.33-11.92s-5.33-7.48-25.33-11.92c-17.64-3.92-41.14-6.08-66.17-6.08Z"/>
      <path class="s" d="M752.75,630.29c-19.24,.82-24.16,8.07-27.42,12.86-2.24,3.3-3.81,5.33-6.68,5.73-2.88,.4-6.7,.02-9.74-.99-1.33-.44-4.44-1.66-4.44-3.44,0-2.11,6.2-2.75,6.9-2.82h-.11l-3.63-8.8c-6.89,.57-19.09,3.1-22.28,8.72h-7.74v7.46h8.89c2.05,2.35,5.68,4.46,10.62,6.09,8.21,2.72,18.48,3.58,27.47,2.32,13.11-1.84,16.97-7.51,19.78-11.66,3.38-4.97,5.04-6.34,10.27-6.57,5.12-.22,8.98,.12,10.86,.95,2.08,.92,2.11,2.65,1.95,3.61-.47,2.72-9.43,4.24-9.45,4.25l6.43,8.47c6.99-1.07,18.5-4.24,21.94-9.7h10.02v-7.96h-10.31c-1.3-1.96-3.53-3.68-6.63-5.05-4.35-1.92-12.51-4.08-26.71-3.48Z"/>
    </g>
    <g>
      <path class="s" d="M841.64,620c-20.44-7.27-53.65-12-91.14-12s-70.7,4.73-91.14,12h-21.36v17c0,16.02,50.37,29,112.5,29s112.5-12.98,112.5-29v-17h-21.36Z"/>
      <ellipse class="a`" cx="750.5" cy="620" rx="112.5" ry="29"/>
      <path class="s" d="M750.5,642c-25.45,0-49.42-2.21-67.47-6.22-19.92-4.43-30.03-10.41-30.03-17.78s10.1-13.35,30.03-17.78c18.06-4.01,42.02-6.22,67.47-6.22s49.42,2.21,67.47,6.22c19.92,4.43,30.03,10.41,30.03,17.78s-10.1,13.35-30.03,17.78c-18.06,4.01-42.02,6.22-67.47,6.22Zm0-42c-25.03,0-48.53,2.16-66.17,6.08-19.99,4.44-25.33,9.58-25.33,11.92s5.33,7.48,25.33,11.92c17.64,3.92,41.14,6.08,66.17,6.08s48.53-2.16,66.17-6.08c19.99-4.44,25.33-9.58,25.33-11.92s-5.33-7.48-25.33-11.92c-17.64-3.92-41.14-6.08-66.17-6.08Z"/>
      <path class="s" d="M763.75,604.29c-19.24,.82-24.16,8.07-27.42,12.86-2.24,3.3-3.81,5.33-6.68,5.73-2.88,.4-6.7,.02-9.74-.99-1.33-.44-4.44-1.66-4.44-3.44,0-2.11,6.2-2.75,6.9-2.82h-.11l-3.63-8.8c-6.89,.57-19.09,3.1-22.28,8.72h-7.74v7.46h8.89c2.05,2.35,5.68,4.46,10.62,6.09,8.21,2.72,18.48,3.58,27.47,2.32,13.11-1.84,16.97-7.51,19.78-11.66,3.38-4.97,5.04-6.34,10.27-6.57,5.12-.22,8.98,.12,10.86,.95,2.08,.92,2.11,2.65,1.95,3.61-.47,2.72-9.43,4.24-9.45,4.25l6.43,8.47c6.99-1.07,18.5-4.24,21.94-9.7h10.02v-7.96h-10.31c-1.3-1.96-3.53-3.68-6.63-5.05-4.35-1.92-12.51-4.08-26.71-3.48Z"/>
    </g>
    <g>
      <path class="s" d="M803.96,538.94c-9.31-19.6-29.45-46.42-55.96-72.93-26.51-26.51-53.34-46.65-72.93-55.96l-15.1-15.1-12.02,12.02c-11.33,11.33,15.11,56.12,59.04,100.06,43.93,43.93,88.73,70.37,100.06,59.04l12.02-12.02-15.1-15.1Z"/>
      <ellipse class="a`" cx="739.51" cy="474.49" rx="29" ry="112.5" transform="translate(-118.92 661.89) rotate(-45)"/>
      <path class="s" d="M723.95,490.05c-18-18-33.38-36.51-43.31-52.11-10.96-17.22-13.87-28.59-8.66-33.8s16.58-2.3,33.8,8.66c15.61,9.93,34.11,25.31,52.11,43.31,18,18,33.38,36.51,43.31,52.11,10.96,17.22,13.87,28.59,8.66,33.8s-16.58,2.3-33.8-8.66c-15.61-9.93-34.11-25.31-52.11-43.31Zm29.7-29.7c-17.7-17.7-35.84-32.79-51.09-42.49-17.28-11-24.69-11.13-26.34-9.48s-1.52,9.06,9.48,26.34c9.7,15.25,24.79,33.39,42.49,51.09s35.84,32.79,51.09,42.49c17.28,11,24.69,11.13,26.34,9.48s1.52-9.06-9.48-26.34c-9.7-15.25-24.79-33.39-42.49-51.09Z"/>
      <path class="s" d="M759.98,472.75c-14.19-13.02-22.79-11.38-28.49-10.3-3.91,.75-6.46,1.07-8.77-.67-2.32-1.75-4.75-4.73-6.19-7.59-.63-1.25-1.96-4.31-.7-5.57,1.49-1.49,6.33,2.43,6.88,2.89l-.09-.07,3.66-8.79c-5.28-4.47-15.69-11.3-21.92-9.59l-5.48-5.48-5.28,5.28,6.28,6.28c-.21,3.11,.86,7.17,3.2,11.81,3.89,7.73,10.54,15.6,17.79,21.07,10.57,7.97,17.31,6.68,22.23,5.75,5.9-1.12,8.05-.92,11.91,2.62,3.78,3.47,6.27,6.43,7.01,8.35,.82,2.12-.38,3.37-1.17,3.93-2.26,1.59-9.67-3.67-9.68-3.68l-1.45,10.54c5.7,4.19,16.08,10.08,22.38,8.65l7.08,7.08,5.63-5.63-7.29-7.29c.47-2.31,.11-5.1-1.11-8.26-1.72-4.43-5.96-11.73-16.43-21.34Z"/>
    </g>
    <g>
      <g>
        <polygon class="t" points="565.35 899.88 740.61 981.24 740.61 755.8 565.35 677.24 565.35 899.88"/>
        <polygon class="x" points="618.79 701.2 618.79 924.69 660.29 943.95 660.29 719.8 618.79 701.2"/>
      </g>
      <g>
        <polyline class="s" points="740.61 755.8 914.12 677.03 914.12 893.1 740.61 981.24 740.61 755.8"/>
        <polygon class="t" points="810.61 724.02 810.61 945.51 856.53 922.35 856.53 703.18 810.61 724.02"/>
      </g>
    </g>
    <ellipse class="t" cx="982.04" cy="859.75" rx="75.92" ry="81.22"/>
    <g>
      <circle class="r" cx="1028.33" cy="876.74" r="27.97"/>
      <path class="r" d="M1028.65,912.45c-25.57,0-46.3,17.71-46.3,39.55h92.6c0-21.84-20.73-39.55-46.3-39.55Z"/>
    </g>
    <g>
      <circle class="x" cx="914.33" cy="800.74" r="27.97"/>
      <path class="x" d="M914.65,836.45c-25.57,0-46.3,17.71-46.3,39.55h92.6c0-21.84-20.73-39.55-46.3-39.55Z"/>
    </g>
    <polygon class="u" points="554 1005 871 1005 765.17 968.76 739.14 876.74 565.35 799.03 565.35 899.88 565.35 908.42 347.5 908.42 554 1005"/>
    <g>
      <polygon class="y" points="400.5 769.5 400.5 528 607 617 607 864 400.5 769.5"/>
      <polygon class="y" points="347.5 910.5 347.5 547 554 636 554 1005 347.5 910.5"/>
      <g>
        <ellipse class="t" cx="424.52" cy="633.74" rx="11.27" ry="12.39"/>
        <path class="t" d="M424.39,651.76c-8.42-2.66-16.39,1.84-16.39,11.52l35,15.06c0-9.68-7.61-23.11-18.61-26.58Z"/>
      </g>
      <g>
        <ellipse class="t" cx="424.52" cy="709.32" rx="11.27" ry="12.39"/>
        <path class="t" d="M424.39,727.35c-8.42-2.66-16.39,1.84-16.39,11.52l35,15.06c0-9.68-7.61-23.11-18.61-26.58Z"/>
      </g>
      <g>
        <ellipse class="t" cx="424.52" cy="784.91" rx="11.27" ry="12.39"/>
        <path class="t" d="M424.39,802.93c-8.42-2.66-16.39,1.84-16.39,11.52l35,15.06c0-9.68-7.61-23.11-18.61-26.58Z"/>
      </g>
      <g>
        <ellipse class="t" cx="424.52" cy="860.49" rx="11.27" ry="12.39"/>
        <path class="t" d="M424.39,878.51c-8.42-2.66-16.39,1.84-16.39,11.52l35,15.06c0-9.68-7.61-23.11-18.61-26.58Z"/>
      </g>
      <path class="s" d="M377.96,647.87l-6.82-15.29c-.52-1.17,0-2.54,1.17-3.07,1.17-.52,2.54,0,3.07,1.17l3.84,8.61,15.06-17.48c.84-.97,2.3-1.08,3.27-.24,.97,.84,1.08,2.3,.24,3.27l-19.83,23.03Z"/>
      <path class="s" d="M377.96,723.45l-6.82-15.29c-.52-1.17,0-2.54,1.17-3.07,1.17-.52,2.54,0,3.07,1.17l3.84,8.61,15.06-17.48c.84-.97,2.3-1.08,3.27-.24,.97,.84,1.08,2.3,.24,3.27l-19.83,23.03Z"/>
      <path class="s" d="M377.96,799.03l-6.82-15.29c-.52-1.17,0-2.54,1.17-3.07,1.17-.52,2.54,0,3.07,1.17l3.84,8.61,15.06-17.48c.84-.97,2.3-1.08,3.27-.24,.97,.84,1.08,2.3,.24,3.27l-19.83,23.03Z"/>
      <path class="s" d="M377.96,874.62l-6.82-15.29c-.52-1.17,0-2.54,1.17-3.07,1.17-.52,2.54,0,3.07,1.17l3.84,8.61,15.06-17.48c.84-.97,2.3-1.08,3.27-.24,.97,.84,1.08,2.3,.24,3.27l-19.83,23.03Z"/>
      <path class="r" d="M525.35,688.19c-.4,0-.8-.08-1.18-.24l-60.52-26c-1.52-.65-2.23-2.42-1.57-3.94,.65-1.52,2.42-2.22,3.94-1.57l60.52,26c1.52,.65,2.23,2.42,1.57,3.94-.49,1.14-1.59,1.82-2.76,1.82Z"/>
      <path class="r" d="M525.35,701.19c-.4,0-.8-.08-1.18-.24l-60.52-26c-1.52-.65-2.23-2.42-1.57-3.94,.65-1.52,2.42-2.22,3.94-1.57l60.52,26c1.52,.65,2.23,2.42,1.57,3.94-.49,1.14-1.59,1.82-2.76,1.82Z"/>
      <path class="r" d="M525.35,763.19c-.4,0-.8-.08-1.18-.24l-60.52-26c-1.52-.65-2.23-2.42-1.57-3.94,.65-1.52,2.42-2.22,3.94-1.57l60.52,26c1.52,.65,2.23,2.42,1.57,3.94-.49,1.14-1.59,1.82-2.76,1.82Z"/>
      <path class="r" d="M525.35,776.19c-.4,0-.8-.08-1.18-.24l-60.52-26c-1.52-.65-2.23-2.42-1.57-3.94,.65-1.52,2.42-2.22,3.94-1.57l60.52,26c1.52,.65,2.23,2.42,1.57,3.94-.49,1.14-1.59,1.82-2.76,1.82Z"/>
      <path class="r" d="M525.35,839.19c-.4,0-.8-.08-1.18-.24l-60.52-26c-1.52-.65-2.23-2.42-1.57-3.94,.65-1.52,2.42-2.22,3.94-1.57l60.52,26c1.52,.65,2.23,2.42,1.57,3.94-.49,1.14-1.59,1.82-2.76,1.82Z"/>
      <path class="r" d="M525.35,852.19c-.4,0-.8-.08-1.18-.24l-60.52-26c-1.52-.65-2.23-2.42-1.57-3.94,.65-1.52,2.42-2.22,3.94-1.57l60.52,26c1.52,.65,2.23,2.42,1.57,3.94-.49,1.14-1.59,1.82-2.76,1.82Z"/>
      <path class="r" d="M525.35,915.19c-.4,0-.8-.08-1.18-.24l-60.52-26c-1.52-.65-2.23-2.42-1.57-3.94,.65-1.52,2.42-2.22,3.94-1.57l60.52,26c1.52,.65,2.23,2.42,1.57,3.94-.49,1.14-1.59,1.82-2.76,1.82Z"/>
      <path class="r" d="M525.35,928.19c-.4,0-.8-.08-1.18-.24l-60.52-26c-1.52-.65-2.23-2.42-1.57-3.94,.65-1.52,2.42-2.22,3.94-1.57l60.52,26c1.52,.65,2.23,2.42,1.57,3.94-.49,1.14-1.59,1.82-2.76,1.82Z"/>
    </g>
  </g>
  <g id="k" data-name="Layer 11"/>
  <g id="l" data-name="Layer 12"/>
  <g id="m" data-name="Layer 13"/>
  <g id="n" data-name="Layer 14"/>
  <g id="o" data-name="Layer 15"/>
  <g id="p" data-name="Layer 16"/>
</svg>